<?xml version="1.0" encoding="UTF-8"?>
<svg width="152px" height="48px" viewBox="0 0 152 48" version="1.1" xmlns="http://www.w3.org/2000/svg" xmlns:xlink="http://www.w3.org/1999/xlink">
    <title>82443E2B-4C43-470B-B5DD-4FAC91BB5E88</title>
    <g id="Home" stroke="none" stroke-width="1" fill="none" fill-rule="evenodd">
        <g id="new-existing-integrations" transform="translate(-1112.000000, -480.000000)">
            <g id="Group-Copy-9" transform="translate(1112.000000, 480.000000)">
                <g id="Logo/GCalendar" transform="translate(0.000000, 3.000000)" fill-rule="nonzero">
                    <path d="M3.62886598,36.8532051 L5.74570447,40.5192308 C6.18556701,41.2910256 6.81786942,41.8974359 7.56013746,42.3384615 L15.1202749,29.2179487 L0,29.2179487 C0,30.0724359 0.219931271,30.9269231 0.659793814,31.6987179 L3.62886598,36.8532051 Z" id="Path" fill="#0066DA"></path>
                    <path d="M24,13.7820513 L16.4398625,0.661538462 C15.6975945,1.1025641 15.0652921,1.70897436 14.6254296,2.48076923 L0.659793814,26.7371795 C0.228020893,27.4923301 0.000574879964,28.3475079 0,29.2179487 L15.1202749,29.2179487 L24,13.7820513 Z" id="Path" fill="#00AC47"></path>
                    <path d="M40.4398625,42.3384615 C41.1821306,41.8974359 41.814433,41.2910256 42.2542955,40.5192308 L43.1340206,39.0032051 L47.3402062,31.6987179 C47.7800687,30.9269231 48,30.0724359 48,29.2179487 L32.8786254,29.2179487 L36.0962199,35.5576923 L40.4398625,42.3384615 Z" id="Path" fill="#EA4335"></path>
                    <path d="M24,13.7820513 L31.5601375,0.661538462 C30.8178694,0.220512821 29.9656357,0 29.0859107,0 L18.9140893,0 C18.0343643,0 17.1821306,0.248076923 16.4398625,0.661538462 L24,13.7820513 Z" id="Path" fill="#00832D"></path>
                    <path d="M32.8797251,29.2179487 L15.1202749,29.2179487 L7.56013746,42.3384615 C8.3024055,42.7794872 9.15463918,43 10.0343643,43 L37.9656357,43 C38.8453608,43 39.6975945,42.7519231 40.4398625,42.3384615 L32.8797251,29.2179487 Z" id="Path" fill="#2684FC"></path>
                    <path d="M40.3573883,14.6089744 L33.3745704,2.48076923 C32.9347079,1.70897436 32.3024055,1.1025641 31.5601375,0.661538462 L24,13.7820513 L32.8797251,29.2179487 L47.9725086,29.2179487 C47.9725086,28.3634615 47.7525773,27.5089744 47.3127148,26.7371795 L40.3573883,14.6089744 Z" id="Path" fill="#FFBA00"></path>
                </g>
                <g id="Logo/Twilio" transform="translate(111.000000, 0.000000)" fill-rule="nonzero">
                    <g id="006-sheets">
                        <path d="M34.819875,13.1470313 L34.819875,44.90775 C34.819875,46.6157813 33.4344375,47.9999063 31.7277188,47.9999063 L3.147375,47.9999063 C1.43934375,47.9999063 0.05521875,46.6157813 0.05521875,44.90775 L0.05521875,3.09215625 C0.05521875,1.384125 1.43925,0 3.147375,0 L21.6728438,0 L34.819875,13.1470313 Z" id="Path" fill="#28B446"></path>
                        <polygon id="Path" fill="#219B38" points="23.4665625 12.861375 34.819875 17.5386562 34.819875 13.1470313 28.3829062 11.2464375"></polygon>
                        <path d="M34.819875,13.1470312 L24.765,13.1470312 C23.056875,13.1470312 21.6728437,11.7629063 21.6728437,10.054875 L21.6728437,0 L34.819875,13.1470312 Z" id="Path" fill="#6ACE7C"></path>
                        <path d="M25.0420312,23.9011875 L9.832125,23.9011875 C9.2865,23.9011875 8.844375,24.3434063 8.844375,24.8889375 L8.844375,38.1235312 C8.844375,38.6689687 9.2865,39.1112812 9.832125,39.1112812 L25.0420312,39.1112812 C25.5876562,39.1112812 26.0297812,38.6690625 26.0297812,38.1235312 L26.0297812,24.8889375 C26.0297812,24.3435 25.5876562,23.9011875 25.0420312,23.9011875 Z M10.819875,30.2514375 L16.449375,30.2514375 L16.449375,32.7614063 L10.819875,32.7614063 L10.819875,30.2514375 Z M18.4247812,30.2514375 L24.0542812,30.2514375 L24.0542812,32.7614063 L18.4247812,32.7614063 L18.4247812,30.2514375 Z M24.054375,28.2760312 L18.424875,28.2760312 L18.424875,25.8766875 L24.054375,25.8766875 L24.054375,28.2760312 L24.054375,28.2760312 Z M16.449375,25.8766875 L16.449375,28.2759375 L10.819875,28.2759375 L10.819875,25.8766875 L16.449375,25.8766875 Z M10.819875,34.7368125 L16.449375,34.7368125 L16.449375,37.1360625 L10.819875,37.1360625 L10.819875,34.7368125 Z M18.4247812,37.1359687 L18.4247812,34.7367188 L24.0542812,34.7367188 L24.0542812,37.1359687 L18.4247812,37.1359687 Z" id="Shape" fill="#FFFFFF"></path>
                    </g>
                </g>
                <text id="→" font-family="GilmerRegular, Gilmer Regular" font-size="24" font-weight="normal" line-spacing="16" fill="#1D2028">
                    <tspan x="66" y="32">→</tspan>
                </text>
            </g>
        </g>
    </g>
</svg>