<?xml version="1.0" encoding="UTF-8"?>
<svg width="152px" height="48px" viewBox="0 0 152 48" version="1.1" xmlns="http://www.w3.org/2000/svg" xmlns:xlink="http://www.w3.org/1999/xlink">
    <title>1FA07746-729F-4334-B879-400189EF5AC4</title>
    <g id="Home" stroke="none" stroke-width="1" fill="none" fill-rule="evenodd">
        <g id="new-integrations" transform="translate(-176.000000, -480.000000)">
            <g id="Group-Copy-4" transform="translate(176.000000, 480.000000)">
                <g id="Logo/GCalendar" fill="#161514">
                    <path d="M23.99779,0 C10.7465545,0 0,11.0170092 0,24.6081283 C0,35.4801173 6.87608582,44.7025005 16.4130268,47.956393 C17.6138003,48.1829872 18.0513828,47.4231413 18.0513828,46.7705501 C18.0513828,46.1874477 18.030756,44.6390541 18.0189693,42.5861108 C11.3432579,44.0725687 9.93474324,39.2868995 9.93474324,39.2868995 C8.84299702,36.4438978 7.26946806,35.6870733 7.26946806,35.6870733 C5.09039565,34.1613391 7.43448234,34.1915517 7.43448234,34.1915517 C9.84339605,34.3652739 11.1104699,36.7278959 11.1104699,36.7278959 C13.2512355,40.4878487 16.7283219,39.4017073 18.095583,38.7717754 C18.3136376,37.1825949 18.9339145,36.0979641 19.6190184,35.4831385 C14.2899414,34.8622704 8.6868228,32.7504127 8.6868228,23.3210734 C8.6868228,20.635177 9.62239479,18.4372134 11.1576169,16.7181189 C10.9100955,16.0957402 10.0864974,13.5926298 11.3933515,10.205802 C11.3933515,10.205802 13.4074097,9.54414701 17.9924491,12.7285506 C19.90632,12.1817033 21.9601584,11.9097903 24.0007367,11.8992159 C26.0398416,11.9097903 28.0922066,12.1817033 30.0090242,12.7285506 C34.591117,9.54414701 36.6022284,10.205802 36.6022284,10.205802 C37.9120292,13.5926298 37.0884312,16.0957402 36.8423831,16.7181189 C38.3805519,18.4372134 39.3087572,20.635177 39.3087572,23.3210734 C39.3087572,32.7745827 33.6967986,34.8547173 28.3515148,35.4635003 C29.2119463,36.2233462 29.9795574,37.7249103 29.9795574,40.0210647 C29.9795574,43.3097016 29.9500905,45.9638748 29.9500905,46.7705501 C29.9500905,47.4291839 30.383253,48.1950722 31.6002333,47.9548824 C41.1298075,44.6934368 48,35.477096 48,24.6081283 C48,11.0170092 37.2534455,0 23.99779,0" id="Fill-4"></path>
                </g>
                <g id="Logo/Twilio" transform="translate(104.000000, 0.000000)" fill-rule="nonzero">
                    <g id="Slack">
                        <path d="M4.07543998,25.2444444 C2.29766221,25.2444444 0.786551096,24.1777778 0.208773318,22.5333333 C0.208773318,22.4888889 0.164328873,22.4 0.164328873,22.3555556 C-0.457893349,20.2222222 0.742106651,18 2.83099554,17.2888889 L36.7865511,5.91111111 C37.1865511,5.77777778 37.6309955,5.73333333 38.0309955,5.73333333 C39.8532178,5.73333333 41.4087733,6.8 41.9865511,8.48888889 L42.0309955,8.66666667 C42.6532178,10.8888889 41.0976622,12.8888889 39.1865511,13.5111111 C39.1865511,13.5111111 38.8309955,13.6444444 5.40877332,25.0222222 C5.00877332,25.1555556 4.51988443,25.2444444 4.07543998,25.2444444 Z" id="XMLID_10_" fill="#70CADB"></path>
                        <path d="M9.71988443,41.9555556 C7.89766221,41.9555556 6.3865511,40.9333333 5.85321776,39.2888889 C5.85321776,39.2444444 5.80877332,39.1555556 5.80877332,39.1111111 C5.1865511,36.9333333 6.3865511,34.7111111 8.47543998,34 L42.4309955,22.4888889 C42.87544,22.3555556 43.3198844,22.2666667 43.7643289,22.2666667 C45.5865511,22.2666667 47.1421067,23.3777778 47.7198844,25.0222222 L47.7643289,25.2 C48.07544,26.3555556 47.8976622,27.6444444 47.2309955,28.6666667 C46.7421067,29.4222222 45.2309955,30.0888889 45.2309955,30.0888889 L11.1421067,41.7333333 C10.6976622,41.8666667 10.2087733,41.9111111 9.71988443,41.9555556 L9.71988443,41.9555556 Z" id="XMLID_11_" fill="#E01765"></path>
                        <path d="M37.9865511,42 C36.1643289,42 34.5643289,40.8888889 33.9865511,39.1555556 L22.6532178,5.51111111 L22.6087733,5.33333333 C21.9865511,3.2 23.1865511,0.933333333 25.27544,0.222222222 C25.7198844,0.0888888889 26.1198844,6.31593543e-15 26.5643289,6.31593543e-15 C27.2309955,6.31593543e-15 27.8532178,0.133333333 28.4309955,0.444444444 C29.4087733,0.933333333 30.1643289,1.77777778 30.5198844,2.84444444 L41.8532178,36.4888889 L41.8976622,36.5777778 C42.5198844,38.8 41.3643289,41.0666667 39.2309955,41.7777778 C38.87544,41.9111111 38.4309955,42 37.9865511,42 Z" id="XMLID_12_" fill="#E8A723"></path>
                        <path d="M21.1421067,47.6888889 C19.3198844,47.6888889 17.7198844,46.5777778 17.1421067,44.8444444 L5.80877332,11.2 C5.80877332,11.1555556 5.76432887,11.0666667 5.76432887,11.0222222 C5.14210665,8.88888889 6.34210665,6.62222222 8.43099554,5.91111111 C8.83099554,5.77777778 9.27543998,5.68888889 9.71988443,5.68888889 C11.5421067,5.68888889 13.1421067,6.8 13.7198844,8.53333333 L25.0532178,42.1777778 C25.0532178,42.2222222 25.0976622,42.3111111 25.0976622,42.3555556 C25.7198844,44.4888889 24.5198844,46.7555556 22.4309955,47.4666667 C22.0309955,47.6 21.5865511,47.6888889 21.1421067,47.6888889 L21.1421067,47.6888889 L21.1421067,47.6888889 Z" id="XMLID_13_" fill="#3EB890"></path>
                        <polygon id="XMLID_14_" fill="#CC2027" points="32.3865511 34.4444444 40.2976622 31.7333333 37.7198844 24.0444444 29.8087733 26.7111111"></polygon>
                        <polygon id="XMLID_15_" fill="#361238" points="15.5865511 40.1777778 23.4976622 37.4666667 20.87544 29.7333333 12.9643289 32.4444444"></polygon>
                        <polygon id="XMLID_16_" fill="#65863A" points="26.7865511 17.7333333 34.6976622 15.0222222 32.1198844 7.46666667 24.2087733 10.0888889"></polygon>
                        <polygon id="XMLID_17_" fill="#1A937D" points="9.94210665 23.4666667 17.8532178 20.7555556 15.27544 13.1111111 7.36432887 15.7333333"></polygon>
                    </g>
                </g>
                <text id="→" font-family="GilmerRegular, Gilmer Regular" font-size="24" font-weight="normal" line-spacing="16" fill="#1D2028">
                    <tspan x="66" y="32">→</tspan>
                </text>
            </g>
        </g>
    </g>
</svg>