<?xml version="1.0" encoding="UTF-8"?>
<svg width="152px" height="48px" viewBox="0 0 152 48" version="1.1" xmlns="http://www.w3.org/2000/svg" xmlns:xlink="http://www.w3.org/1999/xlink">
    <title>4F6550C7-247E-48CF-B1F5-2388B5699C38</title>
    <g id="Home" stroke="none" stroke-width="1" fill="none" fill-rule="evenodd">
        <g id="new-existing-integrations" transform="translate(-800.000000, -728.000000)">
            <g id="Group-Copy-8" transform="translate(800.000000, 728.000000)">
                <g id="Logo/GCalendar" transform="translate(0.000000, 6.000000)" fill-rule="nonzero">
                    <g id="Gmail_icon_(2020)">
                        <path d="M3.27272727,36.5454545 L10.9090909,36.5454545 L10.9090909,18 L0,9.81818182 L0,33.2727273 C0,35.0836364 1.46727273,36.5454545 3.27272727,36.5454545" id="Path" fill="#4285F4"></path>
                        <path d="M37.0909091,36.5454545 L44.7272727,36.5454545 C46.5381818,36.5454545 48,35.0781818 48,33.2727273 L48,9.81818182 L37.0909091,18" id="Path" fill="#34A853"></path>
                        <path d="M37.0909091,3.81818182 L37.0909091,18 L48,9.81818182 L48,5.45454545 C48,1.40727273 43.38,-0.9 40.1454545,1.52727273" id="Path" fill="#FBBC04"></path>
                        <polyline id="Path" fill="#EA4335" points="10.9090909 18 10.9090909 3.81818182 24 13.6363636 37.0909091 3.81818182 37.0909091 18 24 27.8181818"></polyline>
                        <path d="M0,5.45454545 L0,9.81818182 L10.9090909,18 L10.9090909,3.81818182 L7.85454545,1.52727273 C4.61454545,-0.9 0,1.40727273 0,5.45454545" id="Path" fill="#C5221F"></path>
                    </g>
                </g>
                <g id="Logo/Twilio" transform="translate(104.000000, 3.000000)" fill-rule="nonzero">
                    <path d="M3.62886598,36.8532051 L5.74570447,40.5192308 C6.18556701,41.2910256 6.81786942,41.8974359 7.56013746,42.3384615 L15.1202749,29.2179487 L0,29.2179487 C0,30.0724359 0.219931271,30.9269231 0.659793814,31.6987179 L3.62886598,36.8532051 Z" id="Path" fill="#0066DA"></path>
                    <path d="M24,13.7820513 L16.4398625,0.661538462 C15.6975945,1.1025641 15.0652921,1.70897436 14.6254296,2.48076923 L0.659793814,26.7371795 C0.228020893,27.4923301 0.000574879964,28.3475079 0,29.2179487 L15.1202749,29.2179487 L24,13.7820513 Z" id="Path" fill="#00AC47"></path>
                    <path d="M40.4398625,42.3384615 C41.1821306,41.8974359 41.814433,41.2910256 42.2542955,40.5192308 L43.1340206,39.0032051 L47.3402062,31.6987179 C47.7800687,30.9269231 48,30.0724359 48,29.2179487 L32.8786254,29.2179487 L36.0962199,35.5576923 L40.4398625,42.3384615 Z" id="Path" fill="#EA4335"></path>
                    <path d="M24,13.7820513 L31.5601375,0.661538462 C30.8178694,0.220512821 29.9656357,0 29.0859107,0 L18.9140893,0 C18.0343643,0 17.1821306,0.248076923 16.4398625,0.661538462 L24,13.7820513 Z" id="Path" fill="#00832D"></path>
                    <path d="M32.8797251,29.2179487 L15.1202749,29.2179487 L7.56013746,42.3384615 C8.3024055,42.7794872 9.15463918,43 10.0343643,43 L37.9656357,43 C38.8453608,43 39.6975945,42.7519231 40.4398625,42.3384615 L32.8797251,29.2179487 Z" id="Path" fill="#2684FC"></path>
                    <path d="M40.3573883,14.6089744 L33.3745704,2.48076923 C32.9347079,1.70897436 32.3024055,1.1025641 31.5601375,0.661538462 L24,13.7820513 L32.8797251,29.2179487 L47.9725086,29.2179487 C47.9725086,28.3634615 47.7525773,27.5089744 47.3127148,26.7371795 L40.3573883,14.6089744 Z" id="Path" fill="#FFBA00"></path>
                </g>
                <text id="→" font-family="GilmerRegular, Gilmer Regular" font-size="24" font-weight="normal" line-spacing="16" fill="#1D2028">
                    <tspan x="66" y="32">→</tspan>
                </text>
            </g>
        </g>
    </g>
</svg>