<?xml version="1.0" encoding="UTF-8"?>
<svg width="48px" height="48px" viewBox="0 0 48 48" version="1.1" xmlns="http://www.w3.org/2000/svg" xmlns:xlink="http://www.w3.org/1999/xlink">
    <title>C26EDAA7-7E89-4D81-BC39-67A90432672F</title>
    <g id="Apps" stroke="none" stroke-width="1" fill="none" fill-rule="evenodd">
        <g id="apps-library-default" transform="translate(-192.000000, -560.000000)" fill="#5567D5" fill-rule="nonzero">
            <path d="M227,560.5 C233.903559,560.5 239.5,566.096441 239.5,573 L239.5,573 L239.5,595 C239.5,601.903559 233.903559,607.5 227,607.5 L227,607.5 L205,607.5 C198.096441,607.5 192.5,601.903559 192.5,595 L192.5,595 L192.5,573 C192.5,566.096441 198.096441,560.5 205,560.5 L205,560.5 Z M227,563.5 L205,563.5 C199.753295,563.5 195.5,567.753295 195.5,573 L195.5,573 L195.5,595 C195.5,600.246705 199.753295,604.5 205,604.5 L205,604.5 L227,604.5 C232.246705,604.5 236.5,600.246705 236.5,595 L236.5,595 L236.5,573 C236.5,567.753295 232.246705,563.5 227,563.5 L227,563.5 Z M227.571068,580.669747 C231.476311,584.57499 231.476311,590.90664 227.571068,594.811883 C223.665825,598.717126 217.334175,598.717126 213.428932,594.811883 C212.843146,594.226097 212.843146,593.276349 213.428932,592.690563 C214.014719,592.104776 214.964466,592.104776 215.550253,592.690563 C218.283923,595.424233 222.716077,595.424233 225.449747,592.690563 C228.183418,589.956893 228.183418,585.524738 225.449747,582.791068 C222.716077,580.057398 218.283923,580.057398 215.550253,582.791068 C214.964466,583.376854 214.014719,583.376854 213.428932,582.791068 C212.843146,582.205281 212.843146,581.255534 213.428932,580.669747 C217.334175,576.764505 223.665825,576.764505 227.571068,580.669747 Z M218.571068,573.189747 C219.156854,573.775534 219.156854,574.725281 218.571068,575.311068 C217.985281,575.896854 217.035534,575.896854 216.449747,575.311068 C213.716077,572.577398 209.283923,572.577398 206.550253,575.311068 C203.816582,578.044738 203.816582,582.476893 206.550253,585.210563 C209.283923,587.944233 213.716077,587.944233 216.449747,585.210563 C217.035534,584.624776 217.985281,584.624776 218.571068,585.210563 C219.156854,585.796349 219.156854,586.746097 218.571068,587.331883 C214.665825,591.237126 208.334175,591.237126 204.428932,587.331883 C200.523689,583.42664 200.523689,577.09499 204.428932,573.189747 C208.334175,569.284505 214.665825,569.284505 218.571068,573.189747 Z" id="Chane"></path>
        </g>
    </g>
</svg>