<?xml version="1.0" encoding="UTF-8"?>
<svg width="152px" height="48px" viewBox="0 0 152 48" version="1.1" xmlns="http://www.w3.org/2000/svg" xmlns:xlink="http://www.w3.org/1999/xlink">
    <title>7A97A08D-4502-4DDD-8270-3D8AC0222B2A</title>
    <g id="Home" stroke="none" stroke-width="1" fill="none" fill-rule="evenodd">
        <g id="new-existing-integrations" transform="translate(-800.000000, -1224.000000)">
            <g id="Group-Copy-17" transform="translate(800.000000, 1224.000000)">
                <g id="Logo/GCalendar" fill-rule="nonzero">
                    <g id="slack-new-logo">
                        <path d="M17.5989569,0 C14.9455834,0.00195718654 12.7981746,2.15094801 12.8001344,4.79902141 C12.7981746,7.4470948 14.9475445,9.59608563 17.600918,9.59804281 L22.4017017,9.59804281 L22.4017017,4.80097859 C22.4036614,2.1529052 20.2542916,0.00391437309 17.5989569,0 C17.600918,0 17.600918,0 17.5989569,0 M17.5989569,12.8 L4.800793,12.8 C2.14741945,12.8019572 -0.0019503996,14.950948 5.34482933e-06,17.5990214 C-0.00391150348,20.2470948 2.14545835,22.3960856 4.7988319,22.4 L17.5989569,22.4 C20.2523305,22.3980428 22.4017003,20.249052 22.3997406,17.6009786 C22.4017003,14.950948 20.2523305,12.8019572 17.5989569,12.8 Z" id="Shape" fill="#36C5F0"></path>
                        <path d="M47.9999906,17.5990214 C48.0019504,14.950948 45.8525805,12.8019572 43.199207,12.8 C40.5458334,12.8019572 38.3964636,14.950948 38.3984234,17.5990214 L38.3984234,22.4 L43.199207,22.4 C45.8525805,22.3980428 48.0019504,20.249052 47.9999906,17.5990214 Z M35.1998656,17.5990214 L35.1998656,4.79902141 C35.2018254,2.1529052 33.0544166,0.00391437309 30.4010431,0 C27.7476695,0.00195718654 25.5982997,2.15094801 25.6002554,4.79902141 L25.6002554,17.5990214 C25.5963386,20.2470948 27.7457084,22.3960856 30.399082,22.4 C33.0524555,22.3980428 35.2018254,20.249052 35.1998656,17.5990214 Z" id="Shape" fill="#2EB67D"></path>
                        <path d="M30.399082,48 C33.0524555,47.9980428 35.2018254,45.849052 35.1998656,43.2009786 C35.2018254,40.5529052 33.0524555,38.4039144 30.399082,38.4019572 L25.5982983,38.4019572 L25.5982983,43.2009786 C25.5963386,45.8470948 27.7457084,47.9960856 30.399082,48 Z M30.399082,35.1980428 L43.199207,35.1980428 C45.8525805,35.1960856 48.0019504,33.0470948 47.9999947,30.3990214 C48.0039115,27.750948 45.8545416,25.6019572 43.2011681,25.5980428 L30.4010431,25.5980428 C27.7476695,25.6 25.5982997,27.7489908 25.6002594,30.3970642 C25.5982997,33.0470948 27.7457084,35.1960856 30.399082,35.1980428 L30.399082,35.1980428 Z" id="Shape" fill="#ECB22E"></path>
                        <path d="M9.36335346e-06,30.3990214 C-0.0019503996,33.0470948 2.14741945,35.1960856 4.800793,35.1980428 C7.45416656,35.1960856 9.60353641,33.0470948 9.60157665,30.3990214 L9.60157665,25.6 L4.800793,25.6 C2.14741945,25.6019572 -0.0019503996,27.750948 9.36335346e-06,30.3990214 Z M12.8001304,30.3990214 L12.8001304,43.1990214 C12.7962135,45.8470948 14.9455834,47.9960856 17.5989569,48 C20.2523305,47.9980428 22.4017003,45.849052 22.3997446,43.2009786 L22.3997446,30.4029358 C22.4036614,27.7548624 20.2542916,25.6058716 17.600918,25.6019572 C14.9455834,25.6019572 12.7981746,27.750948 12.8001304,30.3990214 C12.8001304,30.3990214 12.8001304,30.4009786 12.8001304,30.3990214" id="Shape" fill="#E01E5A"></path>
                    </g>
                </g>
                <g id="Logo/Twilio" transform="translate(104.000000, 0.000000)" fill="#CF272D" fill-rule="nonzero">
                    <g id="Twilio">
                        <path d="M24,41.6745205 C14.2421918,41.6745205 6.32547945,33.7578082 6.32547945,24 C6.32547945,14.2421918 14.2421918,6.32547945 24,6.32547945 C33.7578082,6.32547945 41.6745205,14.2421918 41.6745205,24 C41.6745205,33.7578082 33.7578082,41.6745205 24,41.6745205 Z M24,0 C10.7441096,0 0,10.7441096 0,24 C0,37.2558904 10.7441096,48 24,48 C37.2558904,48 48,37.2558904 48,24 C48,10.7441096 37.2558904,0 24,0 Z" id="XMLID_5_"></path>
                        <path d="M24.9836066,18.0327869 C24.9836066,15.2786885 27.2131148,13.0622951 29.9540984,13.0622951 C32.7081967,13.0622951 34.9245902,15.2918033 34.9245902,18.0327869 C34.9245902,20.7868852 32.695082,23.0033363 29.9540984,23.0033363 C27.2131148,23.0163934 24.9836066,20.7868852 24.9836066,18.0327869" id="XMLID_6_"></path>
                        <path d="M24.9836066,29.9672131 C24.9836066,27.2131148 27.2131148,24.9967213 29.9540984,24.9967213 C32.7081967,24.9967213 34.9245902,27.2262295 34.9245902,29.9672131 C34.9245902,32.7213115 32.695082,34.9377049 29.9540984,34.9377049 C27.2131148,34.9377049 24.9836066,32.7081967 24.9836066,29.9672131" id="XMLID_7_"></path>
                        <path d="M13.0622951,29.9672131 C13.0622951,27.2131148 15.2918033,24.9967213 18.0327869,24.9967213 C20.7868852,24.9967213 23.0032787,27.2262295 23.0032787,29.9672131 C23.0032787,32.7213115 20.7737705,34.9377049 18.0327869,34.9377049 C15.2918033,34.9377049 13.0622951,32.7081967 13.0622951,29.9672131" id="XMLID_8_"></path>
                        <path d="M13.0622951,18.0327869 C13.0622951,15.2786885 15.2918033,13.0622951 18.0327869,13.0622951 C20.7868852,13.0622951 23.0032787,15.2918033 23.0032787,18.0327869 C23.0032787,20.7737705 20.7737705,23.0033363 18.0327869,23.0033363 C15.2918033,23.0163934 13.0622951,20.7868852 13.0622951,18.0327869" id="XMLID_9_"></path>
                    </g>
                </g>
                <text id="→" font-family="GilmerRegular, Gilmer Regular" font-size="24" font-weight="normal" line-spacing="16" fill="#1D2028">
                    <tspan x="66" y="32">→</tspan>
                </text>
            </g>
        </g>
    </g>
</svg>