<svg width="50" height="50" viewBox="0 0 50 50" fill="none" xmlns="http://www.w3.org/2000/svg">
<path fill-rule="evenodd" clip-rule="evenodd" d="M0.5 12C0.5 7.85786 3.85786 4.5 8 4.5H42C46.1421 4.5 49.5 7.85786 49.5 12V38C49.5 42.1421 46.1421 45.5 42 45.5H8C3.85787 45.5 0.5 42.1421 0.5 38V12ZM8 7.5C5.51472 7.5 3.5 9.51472 3.5 12V15.5H46.5V12C46.5 9.51472 44.4853 7.5 42 7.5H8ZM3.5 38V18.5H46.5V38C46.5 40.4853 44.4853 42.5 42 42.5H8C5.51472 42.5 3.5 40.4853 3.5 38ZM12 24.5C11.1716 24.5 10.5 25.1716 10.5 26C10.5 26.8284 11.1716 27.5 12 27.5H31C31.8284 27.5 32.5 26.8284 32.5 26C32.5 25.1716 31.8284 24.5 31 24.5H12ZM10.5 34C10.5 33.1716 11.1716 32.5 12 32.5H20.5C21.3284 32.5 22 33.1716 22 34C22 34.8284 21.3284 35.5 20.5 35.5H12C11.1716 35.5 10.5 34.8284 10.5 34ZM7.5 10C6.67157 10 6 10.6716 6 11.5C6 12.3284 6.67157 13 7.5 13H7.51C8.33843 13 9.01 12.3284 9.01 11.5C9.01 10.6716 8.33843 10 7.51 10H7.5ZM11 11.5C11 10.6716 11.6716 10 12.5 10H12.51C13.3384 10 14.01 10.6716 14.01 11.5C14.01 12.3284 13.3384 13 12.51 13H12.5C11.6716 13 11 12.3284 11 11.5ZM17.5 10C16.6716 10 16 10.6716 16 11.5C16 12.3284 16.6716 13 17.5 13H17.51C18.3384 13 19.01 12.3284 19.01 11.5C19.01 10.6716 18.3384 10 17.51 10H17.5Z" fill="#40404B"/>
</svg>
