<svg width="50" height="50" viewBox="0 0 50 50" fill="none" xmlns="http://www.w3.org/2000/svg">
<path d="M14.2105 20.921C14.2105 21.5296 14.2763 22.023 14.3915 22.3849C14.523 22.7467 14.6875 23.1414 14.9178 23.5691C15 23.7006 15.0329 23.8322 15.0329 23.9474C15.0329 24.1118 14.9342 24.2763 14.7204 24.4408L13.6842 25.1316C13.5362 25.2303 13.3882 25.2796 13.2566 25.2796C13.0921 25.2796 12.9276 25.1974 12.7632 25.0493C12.5329 24.8026 12.3355 24.5395 12.1711 24.2763C12.0066 23.9967 11.8421 23.6842 11.6612 23.3059C10.3783 24.8191 8.76646 25.5756 6.82567 25.5756C5.44409 25.5756 4.34212 25.1809 3.5362 24.3914C2.73028 23.602 2.31909 22.5493 2.31909 21.2335C2.31909 19.8355 2.81251 18.7006 3.8158 17.8454C4.81909 16.9901 6.15133 16.5625 7.84541 16.5625C8.40462 16.5625 8.98028 16.6118 9.58883 16.6941C10.1974 16.7763 10.8224 16.9079 11.4803 17.0559V15.8553C11.4803 14.6053 11.2171 13.7335 10.7072 13.2237C10.1809 12.7138 9.29278 12.4671 8.02633 12.4671C7.45067 12.4671 6.85857 12.5329 6.25001 12.6809C5.64146 12.8289 5.04936 13.0099 4.4737 13.2401C4.21054 13.3553 4.01317 13.421 3.89804 13.4539C3.78291 13.4868 3.70067 13.5033 3.63488 13.5033C3.40462 13.5033 3.28949 13.3388 3.28949 12.9934V12.1875C3.28949 11.9243 3.32238 11.727 3.40462 11.6118C3.48686 11.4967 3.63488 11.3816 3.86514 11.2664C4.4408 10.9704 5.13159 10.7237 5.93751 10.5263C6.74343 10.3125 7.5987 10.2138 8.5033 10.2138C10.4605 10.2138 11.8915 10.6579 12.8125 11.546C13.7171 12.4342 14.1776 13.7829 14.1776 15.5921V20.921H14.2105ZM7.53291 23.421C8.07567 23.421 8.63488 23.3224 9.22699 23.125C9.81909 22.9276 10.3454 22.5658 10.7895 22.0724C11.0526 21.7599 11.25 21.4145 11.3487 21.0197C11.4474 20.625 11.5132 20.148 11.5132 19.5888V18.898C11.0362 18.7829 10.5263 18.6842 10 18.6184C9.4737 18.5526 8.96383 18.5197 8.45396 18.5197C7.35199 18.5197 6.54607 18.7335 6.0033 19.1776C5.46054 19.6217 5.19738 20.2467 5.19738 21.0691C5.19738 21.8421 5.39475 22.4178 5.80593 22.8125C6.20067 23.2237 6.77633 23.421 7.53291 23.421ZM20.7401 25.1974C20.4441 25.1974 20.2467 25.148 20.1151 25.0329C19.9836 24.9342 19.8684 24.7039 19.7697 24.3914L15.9046 11.6776C15.8059 11.3487 15.7566 11.1349 15.7566 11.0197C15.7566 10.7566 15.8882 10.6085 16.1513 10.6085H17.7632C18.0757 10.6085 18.2895 10.6579 18.4046 10.773C18.5362 10.8717 18.6349 11.102 18.7336 11.4145L21.4967 22.3026L24.0625 11.4145C24.1447 11.0855 24.2434 10.8717 24.375 10.773C24.5066 10.6743 24.7369 10.6085 25.0329 10.6085H26.3487C26.6612 10.6085 26.875 10.6579 27.0066 10.773C27.1382 10.8717 27.2533 11.102 27.3191 11.4145L29.9178 22.4342L32.7632 11.4145C32.8619 11.0855 32.977 10.8717 33.0921 10.773C33.2237 10.6743 33.4375 10.6085 33.7336 10.6085H35.2632C35.5263 10.6085 35.6744 10.7401 35.6744 11.0197C35.6744 11.102 35.6579 11.1842 35.6415 11.2829C35.625 11.3816 35.5921 11.5131 35.5263 11.6941L31.5625 24.4079C31.4638 24.7368 31.3487 24.9506 31.2171 25.0493C31.0855 25.148 30.8717 25.2138 30.5921 25.2138H29.1776C28.8651 25.2138 28.6513 25.1645 28.5197 25.0493C28.3882 24.9342 28.273 24.7204 28.2072 24.3914L25.6579 13.7829L23.125 24.375C23.0428 24.7039 22.9441 24.9178 22.8125 25.0329C22.6809 25.148 22.4507 25.1974 22.1546 25.1974H20.7401ZM41.875 25.6414C41.0197 25.6414 40.1645 25.5428 39.3421 25.3454C38.5197 25.148 37.8783 24.9342 37.4507 24.6875C37.1875 24.5395 37.0066 24.375 36.9408 24.227C36.875 24.0789 36.8421 23.9145 36.8421 23.7664V22.9276C36.8421 22.5822 36.9737 22.4178 37.2204 22.4178C37.3191 22.4178 37.4178 22.4342 37.5165 22.4671C37.6151 22.5 37.7632 22.5658 37.9276 22.6316C38.4869 22.8783 39.0954 23.0756 39.7369 23.2072C40.3947 23.3388 41.0362 23.4046 41.6941 23.4046C42.7303 23.4046 43.5362 23.2237 44.0954 22.8618C44.6546 22.5 44.9507 21.9737 44.9507 21.2993C44.9507 20.8388 44.8026 20.4605 44.5066 20.148C44.2105 19.8355 43.6513 19.5559 42.8454 19.2928L40.4605 18.5526C39.2599 18.1743 38.3717 17.6151 37.829 16.875C37.2862 16.1513 37.0066 15.3454 37.0066 14.4901C37.0066 13.7993 37.1546 13.1908 37.4507 12.6645C37.7467 12.1381 38.1415 11.6776 38.6349 11.3158C39.1283 10.9375 39.6875 10.6579 40.3454 10.4605C41.0033 10.2631 41.6941 10.1809 42.4178 10.1809C42.7796 10.1809 43.1579 10.1974 43.5197 10.2467C43.898 10.296 44.2434 10.3618 44.5888 10.4276C44.9178 10.5099 45.2303 10.5921 45.5263 10.6908C45.8224 10.7895 46.0526 10.8881 46.2171 10.9868C46.4474 11.1184 46.6119 11.25 46.7105 11.398C46.8092 11.5296 46.8586 11.7105 46.8586 11.9408V12.7138C46.8586 13.0592 46.727 13.2401 46.4803 13.2401C46.3487 13.2401 46.1349 13.1743 45.8553 13.0428C44.9178 12.6151 43.8651 12.4013 42.6974 12.4013C41.7599 12.4013 41.0197 12.5493 40.5099 12.8618C40 13.1743 39.7369 13.6513 39.7369 14.3256C39.7369 14.7862 39.9013 15.1809 40.2303 15.4934C40.5592 15.8059 41.1678 16.1184 42.0395 16.398L44.375 17.1381C45.5592 17.5164 46.4145 18.0428 46.9244 18.7171C47.4342 19.3914 47.6809 20.1645 47.6809 21.0197C47.6809 21.727 47.5329 22.3684 47.2533 22.9276C46.9572 23.4868 46.5625 23.9803 46.0526 24.375C45.5428 24.7862 44.9342 25.0822 44.227 25.296C43.4869 25.5263 42.7138 25.6414 41.875 25.6414Z" fill="#252F3E"/>
<path fill-rule="evenodd" clip-rule="evenodd" d="M44.9836 33.6349C39.5724 37.6316 31.7105 39.7534 24.9507 39.7534C15.477 39.7534 6.9408 36.2501 0.493435 30.4277C-0.0164336 29.9672 0.444093 29.3422 1.05265 29.704C8.02633 33.7501 16.6283 36.2007 25.5263 36.2007C31.5296 36.2007 38.125 34.9507 44.1941 32.3849C45.0987 31.9738 45.8717 32.977 44.9836 33.6349Z" fill="#FF9900"/>
<path fill-rule="evenodd" clip-rule="evenodd" d="M47.2369 31.0691C46.5461 30.181 42.6645 30.6415 40.9046 30.8553C40.3783 30.9211 40.2961 30.4606 40.773 30.1152C43.8651 27.9441 48.9474 28.5691 49.5395 29.2928C50.1316 30.0329 49.375 35.1152 46.4803 37.5494C46.0362 37.9277 45.6086 37.7303 45.8059 37.2369C46.4638 35.6086 47.9277 31.9408 47.2369 31.0691Z" fill="#FF9900"/>
</svg>
