<svg width="50" height="50" viewBox="0 0 50 50" fill="none" xmlns="http://www.w3.org/2000/svg">
<path fill-rule="evenodd" clip-rule="evenodd" d="M39.3434 0.543284C42.5815 2.62901 46.2053 4.04375 50 4.7037V7.48106C50 13.2509 47.2341 18.671 42.562 22.0566L38.5 25L34.438 22.0566C29.7659 18.671 27 13.2509 27 7.48106V4.7037C30.7947 4.04375 34.4185 2.62901 37.6566 0.543284L38.5 0L39.3434 0.543284ZM36.1984 19.6273L38.5 21.2952L40.8016 19.6273C44.695 16.806 47 12.2892 47 7.48106V7.12375C44.011 6.35349 41.1472 5.15121 38.5 3.55262C35.8528 5.15121 32.989 6.35349 30 7.12375V7.48106C30 12.2892 32.305 16.806 36.1984 19.6273Z" fill="#40404B"/>
<path fill-rule="evenodd" clip-rule="evenodd" d="M5.22938 19.6094C5.08746 19.5562 4.94495 19.5128 4.80248 19.4787L20.8244 13.468C20.9376 13.4255 21.0624 13.4255 21.1756 13.468L24.0356 14.5409C24.8113 14.8319 25.6759 14.439 25.9669 13.6634C26.2579 12.8877 25.865 12.0231 25.0894 11.7321L22.2294 10.6591C21.4368 10.3618 20.5632 10.3618 19.7706 10.6591L2.77062 17.0368C1.40479 17.5492 0.500003 18.855 0.500003 20.3138L0.5 38.9862C0.5 40.445 1.40479 41.7508 2.77061 42.2632L19.7706 48.6409C20.5632 48.9382 21.4368 48.9382 22.2294 48.6409L39.2294 42.2632C40.5952 41.7508 41.5 40.445 41.5 38.9862V29.186C41.5 28.3576 40.8284 27.686 40 27.686C39.1716 27.686 38.5 28.3576 38.5 29.186V38.9862C38.5 39.1946 38.3707 39.3811 38.1756 39.4543L22.5 45.3352V28.1673L31.0269 24.9684C31.8025 24.6774 32.1954 23.8128 31.9044 23.0371C31.6134 22.2615 30.7488 21.8686 29.9731 22.1596L21 25.5259L5.22938 19.6094ZM3.5 22.8864L3.5 22.8849C3.50101 22.5366 3.84921 22.2958 4.17562 22.4183L19.5 28.1673V45.3352L3.82438 39.4543C3.62925 39.3811 3.5 39.1946 3.5 38.9862V22.8864Z" fill="#40404B"/>
</svg>
