<svg width="50" height="50" viewBox="0 0 50 50" fill="none" xmlns="http://www.w3.org/2000/svg">
<g clip-path="url(#clip0_5140_2058)">
<path d="M46.2625 16.1296L44.7176 11.9601L45.7807 9.56811C45.9136 9.25249 45.8472 8.90365 45.6146 8.65448L42.7077 5.71429C41.4286 4.43522 39.5349 3.98671 37.8239 4.58472L37.01 4.86711L32.5581 0.0498339L25.0332 0H24.9834L17.4086 0.0664452L12.9734 4.91694L12.1761 4.63455C10.4485 4.01993 8.53821 4.46844 7.25914 5.78073L4.30233 8.77076C4.103 8.9701 4.05316 9.25249 4.15283 9.50166L5.26579 11.9934L3.73755 16.1628L4.73423 19.9336L9.2525 37.093C9.76745 39.0698 10.9635 40.7973 12.6412 41.9934C12.6412 41.9934 18.1229 45.8638 23.5216 49.3688C24.0033 49.6844 24.5017 49.9003 25.0332 49.9003C25.5648 49.9003 26.0631 49.6844 26.5449 49.3688C32.6246 45.3821 37.4253 41.9767 37.4253 41.9767C39.0864 40.7807 40.2824 39.0532 40.7974 37.0764L45.2824 19.9169L46.2625 16.1296Z" fill="#F15A22"/>
<path style="mix-blend-mode:lighten" opacity="0.15" d="M9.46845 37.8239L3.73755 16.5282L5.41529 12.3588L4.2525 9.26909L7.02659 6.44517C7.94021 5.63121 9.73423 5.34882 10.5648 5.83055L14.9003 8.32224L20.5482 9.63453L24.9502 7.80729L25.3156 45.6312C25.2492 51.0797 25.598 50.4983 21.5947 47.9236L11.711 41.2957C10.6478 40.2824 9.83389 39.1362 9.46845 37.8239Z" fill="url(#paint0_linear_5140_2058)"/>
<path style="mix-blend-mode:darken" opacity="0.4" d="M37.3256 41.9013L28.9203 47.6488C26.5781 48.9278 25.4485 50.1903 25.2658 49.5757C25.1163 49.094 25.2326 47.682 25.1827 45.4893L25.0831 8.49595C25.0997 8.1305 25.3488 7.51589 25.7807 7.58233L30.0665 8.87801L36.2459 7.91456L40.3322 4.90791C40.7641 4.57569 41.3954 4.60891 41.794 4.99097L45.4485 8.47934C45.7807 8.82818 45.7974 9.50924 45.598 9.94113L44.5847 11.8182L46.2625 16.1538L40.4817 37.6488C39.5847 40.3232 38.3223 41.0209 37.3256 41.9013Z" fill="url(#paint1_linear_5140_2058)"/>
<path d="M25.9967 30.6979C25.7974 30.6148 25.5814 30.5484 25.515 30.5484H25.2492H24.9834C24.917 30.5484 24.701 30.6148 24.5017 30.6979L22.3422 31.5949C22.1429 31.678 21.8106 31.8275 21.6113 31.9271L18.3555 33.6215C18.1562 33.7212 18.1396 33.9039 18.3223 34.0368L21.196 36.0634C21.3788 36.1962 21.6611 36.4122 21.8273 36.5617L23.1063 37.658C23.2724 37.8075 23.5382 38.0401 23.7043 38.1896L24.9336 39.2859C25.0997 39.4354 25.3655 39.4354 25.5316 39.2859L26.794 38.1896C26.9602 38.0401 27.2259 37.8075 27.392 37.658L28.6711 36.5451C28.8372 36.3956 29.1196 36.1796 29.3023 36.0467L32.1761 34.0036C32.3588 33.8707 32.3422 33.6879 32.1429 33.5883L28.8871 31.9271C28.6877 31.8275 28.3555 31.678 28.1562 31.5949L25.9967 30.6979Z" fill="white"/>
<path d="M41.5803 16.8699C41.6467 16.654 41.6467 16.5709 41.6467 16.5709C41.6467 16.355 41.6301 15.9895 41.5969 15.7736L41.4308 15.2919C41.3311 15.0925 41.165 14.7769 41.0321 14.5942L39.155 11.8201C39.0387 11.6374 38.8228 11.355 38.6733 11.1723L36.248 8.13239C36.1152 7.96628 35.9823 7.81678 35.9657 7.83339H35.9324C35.9324 7.83339 35.7497 7.86661 35.5338 7.89983L31.8294 8.63073C31.6135 8.68057 31.2647 8.74701 31.0487 8.78023L30.9823 8.79685C30.7663 8.83007 30.4175 8.81346 30.2015 8.74701L27.0952 7.75033C26.8793 7.68389 26.5304 7.58422 26.3311 7.53439C26.3311 7.53439 25.6999 7.38488 25.1849 7.4015C24.67 7.4015 24.0387 7.53439 24.0387 7.53439C23.8228 7.58422 23.474 7.68389 23.2746 7.75033L20.1683 8.74701C19.9524 8.81346 19.6035 8.83007 19.3876 8.79685L19.3211 8.78023C19.1052 8.74701 18.7563 8.66395 18.5404 8.63073L14.8029 7.93306C14.5869 7.88322 14.4042 7.86661 14.4042 7.86661H14.371C14.3544 7.86661 14.2215 7.9995 14.0886 8.16562L11.6633 11.2055C11.5304 11.3716 11.3145 11.6706 11.1816 11.8533L9.30452 14.6274C9.18824 14.8101 9.00552 15.1257 8.90585 15.3251L8.73974 15.8068C8.70652 16.0228 8.67329 16.3882 8.6899 16.6042C8.6899 16.6042 8.6899 16.6706 8.75635 16.9032C8.87263 17.3018 9.15502 17.6673 9.15502 17.6673C9.28791 17.8334 9.53708 18.1158 9.68658 18.2653L15.1849 24.1125C15.3344 24.2786 15.3843 24.5776 15.3012 24.7769L14.155 27.4846C14.072 27.6839 14.0554 28.0161 14.1384 28.2321L14.454 29.0792C14.7198 29.7935 15.1683 30.4248 15.7663 30.9065L16.8793 31.8035C17.0454 31.9364 17.3444 31.9862 17.5437 31.8865L21.0653 30.2088C21.2647 30.1091 21.5637 29.9098 21.7298 29.7603L24.2547 27.4846C24.6201 27.1523 24.6367 26.5875 24.3045 26.2221L19.0055 22.6507C18.8228 22.5344 18.7563 22.2686 18.856 22.0693L21.1816 17.6839C21.2813 17.4846 21.2979 17.1689 21.2148 16.9696L20.9324 16.3218C20.8494 16.1224 20.6002 15.8899 20.4009 15.8068L13.5736 13.2487C13.3743 13.1656 13.3743 13.0826 13.5902 13.0659L17.9922 12.6507C18.2082 12.6341 18.557 12.6673 18.773 12.7171L22.6932 13.8135C22.9092 13.8799 23.0421 14.0958 23.0088 14.3118L21.6467 21.7703C21.6135 21.9862 21.6135 22.2852 21.6633 22.4513C21.7132 22.6174 21.9291 22.7669 22.1451 22.8168L24.8693 23.3982C25.0853 23.448 25.4341 23.448 25.65 23.3982L28.1916 22.8168C28.4075 22.7669 28.6235 22.6008 28.6733 22.4513C28.7231 22.3018 28.7397 21.9862 28.6899 21.7703L27.3444 14.3118C27.3112 14.0958 27.4441 13.8633 27.66 13.8135L31.5803 12.7171C31.7962 12.6507 32.1451 12.6341 32.361 12.6507L36.763 13.0659C36.9789 13.0826 36.9956 13.1656 36.7796 13.2487L29.9524 15.84C29.753 15.9231 29.5039 16.139 29.4208 16.355L29.1384 17.0028C29.0554 17.2022 29.0554 17.5344 29.1716 17.7171L31.5138 22.1025C31.6135 22.3018 31.547 22.551 31.3643 22.6839L26.0653 26.2719C25.7165 26.6208 25.7497 27.2022 26.1152 27.5344L28.6401 29.8101C28.8062 29.9596 29.1052 30.159 29.3045 30.242L32.8427 31.9198C33.0421 32.0194 33.3411 31.9696 33.5072 31.8367L34.6201 30.9231C35.2181 30.4414 35.6666 29.8101 35.9158 29.0958L36.2314 28.2487C36.3145 28.0493 36.2979 27.7005 36.2148 27.5012L35.0686 24.7935C34.9856 24.5942 35.0354 24.2952 35.1849 24.1291L40.6833 18.2819C40.8328 18.1158 41.0653 17.85 41.2148 17.6839C41.1816 17.6341 41.4806 17.2686 41.5803 16.8699Z" fill="white"/>
</g>
<defs>
<linearGradient id="paint0_linear_5140_2058" x1="3.73755" y1="2217.69" x2="2163.64" y2="2217.69" gradientUnits="userSpaceOnUse">
<stop stop-color="white"/>
<stop offset="0.1413" stop-color="white" stop-opacity="0.9576"/>
<stop offset="1" stop-color="white" stop-opacity="0.7"/>
</linearGradient>
<linearGradient id="paint1_linear_5140_2058" x1="24.2558" y1="2256.7" x2="2143.02" y2="2256.7" gradientUnits="userSpaceOnUse">
<stop stop-color="#F1F1F2"/>
<stop offset="0.0919144" stop-color="#E4E5E6"/>
<stop offset="0.2357" stop-color="#D9DADB"/>
<stop offset="0.438" stop-color="#D2D4D5"/>
<stop offset="1" stop-color="#D0D2D3"/>
</linearGradient>
<clipPath id="clip0_5140_2058">
<rect width="50" height="50" fill="white"/>
</clipPath>
</defs>
</svg>
