<svg width="50" height="50" viewBox="0 0 50 50" fill="none" xmlns="http://www.w3.org/2000/svg">
<path d="M5 0.5C2.51472 0.5 0.5 2.51472 0.5 5V17.7815L6.75547 16.7003C7.57179 16.5592 8.11918 15.7831 7.97808 14.9668C7.83699 14.1504 7.06085 13.603 6.24453 13.7441L3.5 14.2185V5C3.5 4.17157 4.17157 3.5 5 3.5H17C17.8284 3.5 18.5 4.17157 18.5 5V9.91503C18.5 10.7435 19.1716 11.415 20 11.415C20.8284 11.415 21.5 10.7435 21.5 9.91503V5C21.5 2.51472 19.4853 0.5 17 0.5H5Z" fill="#40404B"/>
<path d="M22 25C22 26.1046 21.1046 27 20 27C18.8954 27 18 26.1046 18 25C18 23.8954 18.8954 23 20 23C21.1046 23 22 23.8954 22 25Z" fill="#40404B"/>
<path d="M29 27C30.1046 27 31 26.1046 31 25C31 23.8954 30.1046 23 29 23C27.8954 23 27 23.8954 27 25C27 26.1046 27.8954 27 29 27Z" fill="#40404B"/>
<path fill-rule="evenodd" clip-rule="evenodd" d="M34.1289 34.3776C36.9559 33.836 39 31.3632 39 28.4848V20C39 16.6863 36.3137 14 33 14H16C12.6863 14 10 16.6863 10 20V39L34.1289 34.3776ZM33 17H16C14.3431 17 13 18.3431 13 20V35.3707L33.5644 31.4312C34.978 31.1604 36 29.924 36 28.4848V20C36 18.3431 34.6569 17 33 17Z" fill="#40404B"/>
<path d="M39.9545 35C39.9545 34.1716 40.6261 33.5 41.4545 33.5H45C47.4853 33.5 49.5 35.5147 49.5 38V42.5542C49.5 44.7642 47.8952 46.6471 45.7131 46.9973L28.5 49.7599V39.9706C28.5 39.1422 29.1716 38.4706 30 38.4706C30.8284 38.4706 31.5 39.1422 31.5 39.9706V46.2401L45.2377 44.0352C45.9651 43.9185 46.5 43.2909 46.5 42.5542V38C46.5 37.1716 45.8284 36.5 45 36.5H41.4545C40.6261 36.5 39.9545 35.8284 39.9545 35Z" fill="#40404B"/>
</svg>
