<svg width="50" height="50" viewBox="0 0 50 50" fill="none" xmlns="http://www.w3.org/2000/svg">
<path fill-rule="evenodd" clip-rule="evenodd" d="M8.41082 12.2411C8.45297 11.8298 8.63002 11.2839 9.19748 10.8326C9.195 10.8021 9.19254 10.7702 9.19012 10.7369C9.08767 9.32916 9.06543 5.54255 11.4057 2.83824C13.0348 0.955001 15.4553 0 18.5975 0H18.6005C21.7453 0.000751378 24.1658 0.956504 25.7959 2.84077C28.1349 5.54487 28.1132 9.32895 28.0108 10.7363C28.0084 10.7696 28.0059 10.8016 28.0034 10.8322C28.5701 11.2829 28.7467 11.8279 28.7892 12.239L28.7893 12.2407L28.7898 12.2456C28.9741 14.1026 26.6356 16.3633 25.8196 17.0908L25.8176 17.0926C25.7712 17.1339 25.7298 17.1703 25.694 17.2013C25.6697 17.2508 25.6451 17.3001 25.6203 17.3492L25.6176 17.3545C24.8358 18.8996 23.8319 20.2017 22.702 21.1337L22.7003 21.1351C21.3553 22.2405 20.025 22.8 18.7435 22.8C18.6885 22.8 18.6341 22.7993 18.5792 22.797L18.5732 22.7967C17.1453 22.7413 15.7742 22.1829 14.5011 21.1361L14.4991 21.1345C13.3317 20.1712 12.299 18.814 11.5066 17.2017C11.4708 17.1705 11.4292 17.1341 11.3827 17.0926L11.3381 17.0527C10.6083 16.3963 8.84736 14.676 8.47148 13.0485C8.4083 12.7749 8.38426 12.5039 8.41082 12.2411ZM11.7579 13.0631C11.8301 13.1696 11.9125 13.2833 12.0056 13.4031C12.5474 14.1014 13.2041 14.7025 13.4738 14.9367L13.9315 15.3343L14.1989 15.8783C14.8382 17.1789 15.6247 18.1736 16.408 18.8201C17.2543 19.5156 18.0125 19.7727 18.689 19.799L18.6981 19.7993L18.7061 19.7997C18.7061 19.7997 18.7099 19.7998 18.7193 19.7999C18.7251 19.8 18.733 19.8 18.7435 19.8C19.1172 19.8 19.7948 19.6395 20.7932 18.8192C21.5756 18.1739 22.3622 17.1791 23.0017 15.878L23.2693 15.3335L23.7274 14.9358C23.9967 14.7021 24.6534 14.101 25.1952 13.4029C25.2392 13.3463 25.2807 13.291 25.32 13.2373C22.424 12.8034 20.295 11.4743 18.7052 10.4819L18.689 10.4717C18.0574 10.0772 17.5567 9.76661 17.1053 9.54716C16.6496 9.32561 16.3888 9.27177 16.2469 9.27177C16.1781 9.27177 16.0842 9.28239 15.8821 9.44769C15.6361 9.64883 15.3818 9.95037 14.9779 10.444L14.9226 10.5116C14.2704 11.3101 13.2977 12.501 11.7579 13.0631ZM23.5272 4.80358C24.8981 6.38869 25.0843 8.77059 25.0388 10.1349C23.1666 9.7104 21.6789 8.80163 20.2776 7.92687L20.2432 7.90539C19.6577 7.5396 19.0276 7.14593 18.417 6.84911C17.7987 6.54849 17.0546 6.27177 16.2469 6.27177C15.2947 6.27177 14.5516 6.66033 13.9831 7.12525C13.4796 7.53694 13.0447 8.06889 12.6991 8.49153L12.6559 8.54437C12.4871 8.75083 12.3281 8.94128 12.1752 9.11461C12.2542 7.76744 12.602 6.0404 13.6742 4.80136C14.59 3.74272 16.08 3 18.5975 3H18.5997C21.1192 3.00074 22.6101 3.74364 23.5272 4.80358Z" fill="#40404B"/>
<path d="M14.7307 23.9303L14.7281 23.9239C14.7281 23.9239 14.7481 23.9632 14.8006 24.0598C14.8657 24.1796 14.9636 24.354 15.0908 24.5666C15.3465 24.9938 15.7132 25.5627 16.1636 26.1471C17.0115 27.2473 17.9713 28.158 18.8817 28.5311C19.6366 28.2298 20.4553 27.5828 21.2241 26.7138C22.101 25.7228 22.7405 24.6387 23.0036 23.9899L23.0044 23.9879C23.3934 23.032 24.5639 22.0758 25.9416 22.6774C26.2862 22.8264 26.5562 22.933 26.8014 23.0297C27.0694 23.1359 27.2439 23.2382 27.2439 23.2382C27.2439 23.2382 27.6742 23.4696 27.9772 23.7833C28.5526 24.3793 28.5361 25.3289 27.9402 25.9043C27.5259 26.3044 26.4772 26.2833 25.8192 25.8673L25.7047 25.8221C25.6408 25.7969 25.5723 25.7699 25.4991 25.7407C25.0429 26.6484 24.3337 27.7267 23.4709 28.7018C22.4187 29.891 20.9602 31.1295 19.2455 31.5609L18.8808 31.6526L18.516 31.5615C16.4467 31.0445 14.8066 29.3009 13.7874 27.9784C13.2476 27.278 12.8154 26.6065 12.5165 26.1071C12.4406 25.9802 12.3728 25.8636 12.3136 25.7596C7.25797 28.3591 3.64271 34.8384 3.50413 42.5H7.04877C7.8772 42.5 8.54877 43.1716 8.54877 44C8.54877 44.8284 7.8772 45.5 7.04877 45.5H2.79441C2.00704 45.5 1.40032 45.0774 1.03925 44.6033C0.679186 44.1305 0.5 43.5433 0.5 42.9568C0.5 33.9436 4.88105 25.6776 11.8203 22.6762C13.1799 22.0866 14.3214 23.0003 14.7307 23.9303Z" fill="#40404B"/>
<path fill-rule="evenodd" clip-rule="evenodd" d="M39.0734 27.9269C39.1184 28.3404 39.4168 28.6777 39.8094 28.8154C40.1537 28.9361 40.4902 29.079 40.8146 29.2397C41.1893 29.4254 41.6416 29.397 41.9666 29.1338L42.7708 28.4822C43.1686 28.16 43.7454 28.1901 44.1074 28.5521L44.7906 29.2353L45.4689 29.9136C45.8329 30.2776 45.8611 30.8585 45.534 31.2561L44.8868 32.0426C44.613 32.3754 44.5895 32.8433 44.7825 33.2286C44.9392 33.5415 45.0737 33.8653 45.1878 34.202C45.3235 34.602 45.6664 34.9054 46.0867 34.947L47.0985 35.0472C47.6102 35.0979 48 35.5282 48 36.0423V37V37.9665C48 38.4769 47.6157 38.9054 47.1083 38.9606L46.0731 39.0734C45.6596 39.1184 45.3225 39.4168 45.1885 39.8106C45.0738 40.148 44.9385 40.478 44.7806 40.7963C44.5892 41.1824 44.613 41.6505 44.8868 41.9833L45.534 42.7698C45.8611 43.1673 45.8329 43.7483 45.4689 44.1123L44.7906 44.7906L44.1123 45.4689C43.7483 45.8329 43.1673 45.8611 42.7698 45.534L41.9833 44.8868C41.6505 44.613 41.1824 44.5892 40.7963 44.7806C40.478 44.9385 40.148 45.0738 39.8106 45.1885C39.4168 45.3225 39.1184 45.6596 39.0734 46.0731L38.9606 47.1083C38.9054 47.6157 38.4769 48 37.9665 48H37H36.0424C35.5282 48 35.0979 47.6102 35.0472 47.0985L34.947 46.0867C34.9054 45.6664 34.602 45.3235 34.202 45.1878C33.8653 45.0737 33.5415 44.9392 33.2286 44.7825C32.8433 44.5895 32.3754 44.613 32.0426 44.8868L31.2561 45.534C30.8585 45.8611 30.2776 45.8329 29.9136 45.4689L29.2353 44.7906L28.5521 44.1074C28.1901 43.7454 28.16 43.1686 28.4822 42.7708L29.1338 41.9666C29.397 41.6416 29.4254 41.1893 29.2397 40.8146C29.079 40.4902 28.9361 40.1537 28.8154 39.8094C28.6777 39.4168 28.3404 39.1184 27.9269 39.0734L26.8917 38.9606C26.3843 38.9054 26 38.4769 26 37.9665V37V36.0424C26 35.5282 26.3898 35.0979 26.9015 35.0472L27.9133 34.947C28.3336 34.9054 28.6767 34.602 28.8161 34.2032C28.9362 33.8596 29.0783 33.5293 29.238 33.2104C29.4252 32.8364 29.397 32.3843 29.1338 32.0593L28.4822 31.2551C28.16 30.8573 28.1901 30.2804 28.5521 29.9185L29.2353 29.2353L29.9185 28.5521C30.2804 28.1901 30.8573 28.16 31.2551 28.4822L32.0593 29.1338C32.3843 29.397 32.8364 29.4252 33.2104 29.238C33.5293 29.0783 33.8596 28.9362 34.2032 28.8161C34.602 28.6767 34.9054 28.3336 34.947 27.9133L35.0472 26.9015C35.0979 26.3898 35.5282 26 36.0423 26H37H37.9665C38.4769 26 38.9054 26.3843 38.9606 26.8917L39.0734 27.9269Z" stroke="#40404B" stroke-width="3"/>
<circle cx="37" cy="37" r="4" stroke="#40404B" stroke-width="3"/>
</svg>
