<svg width="50" height="50" viewBox="0 0 50 50" fill="none" xmlns="http://www.w3.org/2000/svg">
<path d="M33 6.5C32.1716 6.5 31.5 7.17157 31.5 8C31.5 8.82843 32.1716 9.5 33 9.5H42C42.8284 9.5 43.5 8.82843 43.5 8C43.5 7.17157 42.8284 6.5 42 6.5H33Z" fill="#40404B"/>
<path d="M33 13.5C32.1716 13.5 31.5 14.1716 31.5 15C31.5 15.8284 32.1716 16.5 33 16.5H38C38.8284 16.5 39.5 15.8284 39.5 15C39.5 14.1716 38.8284 13.5 38 13.5H33Z" fill="#40404B"/>
<path fill-rule="evenodd" clip-rule="evenodd" d="M31 0C27.6863 0 25 2.68629 25 6V19C25 22.3137 27.6863 25 31 25H44C47.3137 25 50 22.3137 50 19V6C50 2.68629 47.3137 0 44 0H31ZM44 3H31C29.3431 3 28 4.34315 28 6V19C28 20.6569 29.3431 22 31 22H44C45.6569 22 47 20.6569 47 19V6C47 4.34315 45.6569 3 44 3Z" fill="#40404B"/>
<path d="M3.5 29C3.5 19.8404 10.5378 12.3236 19.5 11.5633V28.443C19.5 29.3087 19.948 30.1129 20.6841 30.5686L29.9422 36.2998C30.6466 36.7358 31.5711 36.5183 32.0071 35.8139C32.4432 35.1096 32.2256 34.1851 31.5212 33.749L22.5 28.1644V11C22.5 9.64079 21.383 8.45217 19.9226 8.52787C9.10089 9.08888 0.5 18.0395 0.5 29C0.5 40.3218 9.67816 49.5 21 49.5C32.3218 49.5 41.5 40.3218 41.5 29C41.5 28.1716 40.8284 27.5 40 27.5C39.1716 27.5 38.5 28.1716 38.5 29C38.5 38.665 30.665 46.5 21 46.5C11.335 46.5 3.5 38.665 3.5 29Z" fill="#40404B"/>
</svg>
