<svg width="50" height="50" viewBox="0 0 50 50" fill="none" xmlns="http://www.w3.org/2000/svg">
<path fill-rule="evenodd" clip-rule="evenodd" d="M14.2461 5.76438C22.4566 -1.78137 31.4565 -0.374866 35.1181 1.4293L35.2387 1.49496C35.365 1.57113 35.4772 1.66345 35.5736 1.76795C35.7042 1.90958 35.8055 2.07312 35.8742 2.24867C37.3754 6.03933 38.0402 15.1073 29.8292 22.6535C29.6442 22.8235 29.4604 22.9916 29.2778 23.1579C29.4859 25.8065 28.6902 28.2992 27.5762 30.3975C27.4678 30.6016 27.356 30.8028 27.2413 31.001C26.7785 31.8001 25.7034 31.928 25.0085 31.3199C24.4218 30.8065 24.3157 29.9415 24.6964 29.2612C24.7522 29.1616 24.8069 29.0612 24.8606 28.9602C25.3561 28.0269 25.7462 27.0574 25.9828 26.0723C23.3745 28.3109 21.0917 30.1052 19.2238 31.481L16.6935 33.2681C16.2434 33.5705 15.8391 33.8326 15.4834 34.0549C14.2237 34.8426 12.6577 34.541 11.7209 33.5258L1.89984 22.8832C0.962826 21.8678 0.790034 20.2843 1.68077 19.0953C1.93182 18.7601 2.22642 18.38 2.56506 17.9576L1.19181 16.4695C-0.40063 14.7438 -0.51449 11.8601 1.56759 10.2383C4.34306 8.07649 8.90987 5.49748 13.6966 6.27179C13.8778 6.10368 14.061 5.93453 14.2461 5.76438ZM16.3276 8.02241C23.0136 1.87779 30.1114 2.70088 33.2125 3.93985C34.1946 7.12537 34.4332 14.2513 27.7477 20.3955C21.3056 26.316 16.3543 29.8785 13.9384 31.3999L4.20393 20.851C5.92228 18.5729 9.8867 13.9419 16.3276 8.02241ZM3.45804 12.6581C5.39142 11.1521 7.91307 9.72126 10.5089 9.31568C8.06157 11.7235 6.08386 13.8446 4.55765 15.5879L3.45214 14.3899C2.88519 13.7755 3.00682 13.0095 3.45804 12.6581ZM28.2428 8.50506C25.9471 6.01728 22.0656 5.85787 19.5728 8.1488C17.0796 10.4402 16.9197 14.3151 19.2158 16.8034C21.5115 19.2912 25.393 19.4506 27.8858 17.1596C30.379 14.8683 30.5389 10.9933 28.2428 8.50506ZM21.6543 10.4068C22.8986 9.26322 24.8366 9.34291 25.9824 10.5846C27.1278 11.8258 27.0482 13.7584 25.8043 14.9016C24.5599 16.0452 22.622 15.9655 21.4761 14.7238C20.3307 13.4826 20.4104 11.55 21.6543 10.4068ZM4.56146 27.1835C3.98652 26.5605 3.01475 26.5206 2.39055 27.0943C0.925478 28.4407 0.348193 30.498 0.899902 32.4084L1.39292 33.6786L1.39757 33.6906C1.50575 33.9694 1.6266 34.2809 1.8999 34.3998L3.19876 34.8998C5.06024 35.6052 7.16141 35.2005 8.62637 33.8542C9.25104 33.2801 9.29117 32.3089 8.71579 31.6854C8.14085 31.0624 7.16908 31.0225 6.54488 31.5962C5.93632 32.1554 5.06307 32.3237 4.28931 32.0305L3.95273 31.903L3.85312 31.5581C3.6242 30.7654 3.86359 29.9115 4.47204 29.3523C5.0967 28.7782 5.13684 27.807 4.56146 27.1835Z" fill="#40404B"/>
<path fill-rule="evenodd" clip-rule="evenodd" d="M30.813 36.6091L30.8039 36.6C32.683 36.6 34.1899 37.1991 35.3247 38.4065C36.4594 39.6138 37.0313 41.1843 37.0313 43.1179C37.0313 45.0242 36.4685 46.5856 35.3338 47.8021C34.199 49.0185 32.6921 49.6267 30.813 49.6267H25.1575V36.6091H30.813ZM30.7494 47.3119L30.7404 47.3209C31.8569 47.3209 32.7556 46.9306 33.4365 46.1408C34.1173 45.351 34.4623 44.3252 34.4623 43.0634C34.4623 41.8198 34.1264 40.8121 33.4456 40.0405C32.7647 39.2689 31.866 38.8876 30.7494 38.8876H27.6811V47.3119H30.7494ZM45.02 36.609L45.0019 36.6181C46.3545 36.6181 47.4438 37.0811 48.279 38.007C49.1141 38.9329 49.5317 39.9769 49.5317 41.1389C49.5317 42.3281 49.1141 43.3811 48.279 44.2889C47.4438 45.1967 46.3181 45.6506 44.9111 45.6506H41.4524V49.6267H38.9197V36.609H45.02ZM44.8112 43.3902L44.7931 43.372C45.4557 43.372 45.9913 43.1451 46.4089 42.7003C46.8265 42.2554 47.0353 41.738 47.0353 41.1479C47.0353 40.5579 46.8356 40.0404 46.4362 39.5956C46.0367 39.1508 45.5374 38.9239 44.9292 38.9239H41.4342V43.3902H44.8112ZM22.8427 36.609H20.2918V44.2526C20.2918 45.2421 20.0286 46.0409 19.502 46.6401C18.9755 47.2392 18.213 47.5388 17.2235 47.5388C16.2522 47.5388 15.4987 47.2392 14.9722 46.6401C14.4457 46.0409 14.1824 45.2421 14.1824 44.2526V36.609H11.5952V44.2889C11.5952 45.9864 12.0854 47.3481 13.0658 48.3648C14.0462 49.3816 15.4261 49.8899 17.2144 49.8899C18.9846 49.8899 20.3644 49.3816 21.3539 48.3558C22.3434 47.33 22.8427 45.9774 22.8427 44.2889V36.609Z" fill="#40404B"/>
</svg>
