<svg width="50" height="50" viewBox="0 0 50 50" fill="none" xmlns="http://www.w3.org/2000/svg">
<path d="M21 0.326599L17.3167 2.14797C13.0865 4.23977 8.67413 5.94083 4.13449 7.22995L0.5 8.26203V17.5935C0.5 24.0794 2.06762 29.3767 4.976 34.0102C7.86693 38.616 12.0345 42.4889 17.113 46.2127C17.7811 46.7025 18.7198 46.5581 19.2097 45.89C19.6995 45.2219 19.5551 44.2832 18.887 43.7934C13.9561 40.1778 10.1236 36.5683 7.51693 32.4153C4.92766 28.2902 3.5 23.5523 3.5 17.5935V10.5287L4.954 10.1158C9.66936 8.77683 14.2526 7.00992 18.6465 4.83714L21 3.67335L23.3535 4.83714C27.7474 7.00992 32.3306 8.77683 37.046 10.1158L38.5 10.5287V17.5935C38.5 20.9009 38.0604 23.1077 37.2559 25.1638C36.5396 26.9946 35.5314 28.7264 34.1656 31.0726C33.9471 31.4479 33.7194 31.8391 33.4824 32.2487C33.0675 32.9657 33.3124 33.8834 34.0294 34.2983C34.7464 34.7132 35.6641 34.4683 36.079 33.7512C36.3066 33.3578 36.5293 32.9758 36.7464 32.6032C38.1009 30.279 39.242 28.321 40.0496 26.257C41.0132 23.7946 41.5 21.2072 41.5 17.5935V8.26203L37.8655 7.22995C33.3259 5.94083 28.9135 4.23977 24.6833 2.14797L21 0.326599Z" fill="#40404B"/>
<path fill-rule="evenodd" clip-rule="evenodd" d="M21.5 10.5C18.7386 10.5 16.5 12.7385 16.5 15.5V17H15C13.8954 17 13 17.8954 13 19V26C13 28.2091 14.7909 30 17 30H26C28.2091 30 30 28.2091 30 26V19C30 17.8954 29.1046 17 28 17H26.5V15.5C26.5 12.7386 24.2614 10.5 21.5 10.5ZM23.5 15.5V17H19.5V15.5C19.5 14.3954 20.3954 13.5 21.5 13.5C22.6046 13.5 23.5 14.3954 23.5 15.5ZM16 20V26C16 26.5523 16.4477 27 17 27H26C26.5523 27 27 26.5523 27 26V20H16Z" fill="#40404B"/>
<path d="M35.2693 43.6419L35.2782 42.3497H28.7549V44.5063H32.6849C32.5691 45.3351 32.1859 46.0213 31.5264 46.5649C30.867 47.1085 30.0204 47.3848 28.9866 47.3848C27.6143 47.3848 26.5271 46.9659 25.725 46.1282C24.923 45.2905 24.522 44.2657 24.522 43.0448C24.522 41.8596 24.9141 40.8526 25.6983 40.0238C26.4825 39.1951 27.4806 38.7851 28.7015 38.7851C30.5105 38.7851 31.7759 39.5248 32.4978 40.9952L34.8148 40.3357C34.3959 39.204 33.6474 38.2683 32.5691 37.5286C31.4908 36.789 30.1986 36.4236 28.6926 36.4236C26.7944 36.4236 25.2081 37.0563 23.9249 38.3307C22.6416 39.605 22 41.1734 22 43.0448C22 44.943 22.6416 46.5292 23.9338 47.8036C25.226 49.0779 26.8479 49.7107 28.8084 49.7107C30.7244 49.7107 32.2839 49.1492 33.478 48.0264C34.6722 46.9035 35.2693 45.442 35.2693 43.6419Z" fill="#40404B"/>
<path fill-rule="evenodd" clip-rule="evenodd" d="M43.2897 49.7107H43.2986C45.2235 49.7107 46.8186 49.0779 48.093 47.8036C49.3673 46.5292 50 44.943 50 43.0448C50 41.1645 49.3673 39.5872 48.093 38.3217C46.8186 37.0563 45.2235 36.4236 43.2986 36.4236C41.3737 36.4236 39.7696 37.0563 38.4953 38.3217C37.2209 39.5872 36.5793 41.1645 36.5793 43.0448C36.5793 44.943 37.2209 46.5292 38.4953 47.8036C39.7696 49.0779 41.3648 49.7107 43.2897 49.7107ZM43.2807 47.4026V47.3937C42.042 47.3937 41.035 46.9837 40.2597 46.155C39.4844 45.3262 39.1012 44.2925 39.1012 43.0538C39.1012 41.8329 39.4844 40.8081 40.2597 39.9793C41.035 39.1505 42.042 38.7406 43.2807 38.7406C44.5194 38.7406 45.5265 39.1505 46.3018 39.9793C47.0771 40.8081 47.4603 41.8329 47.4603 43.0538C47.4603 44.2925 47.0771 45.3262 46.3018 46.155C45.5265 46.9837 44.5194 47.4026 43.2807 47.4026Z" fill="#40404B"/>
</svg>
