<svg width="50" height="50" viewBox="0 0 50 50" fill="none" xmlns="http://www.w3.org/2000/svg">
<path fill-rule="evenodd" clip-rule="evenodd" d="M14.2461 5.76438C22.4566 -1.78137 31.4565 -0.374866 35.1181 1.4293L35.2387 1.49496C35.365 1.57113 35.4772 1.66345 35.5736 1.76795C35.7042 1.90958 35.8055 2.07312 35.8742 2.24867C37.3754 6.03933 38.0402 15.1073 29.8292 22.6535C29.6442 22.8235 29.4604 22.9916 29.2778 23.1579C29.4859 25.8065 28.6902 28.2992 27.5762 30.3975C27.4678 30.6016 27.356 30.8028 27.2413 31.001C26.7785 31.8001 25.7034 31.928 25.0085 31.3199C24.4218 30.8065 24.3157 29.9415 24.6964 29.2612C24.7522 29.1616 24.8069 29.0612 24.8606 28.9602C25.3561 28.0269 25.7462 27.0574 25.9828 26.0723C23.3745 28.3109 21.0917 30.1052 19.2238 31.481L16.6935 33.2681C16.2434 33.5705 15.8391 33.8326 15.4834 34.0549C14.2237 34.8426 12.6577 34.541 11.7209 33.5258L1.89984 22.8832C0.962826 21.8678 0.790034 20.2843 1.68077 19.0953C1.93182 18.7601 2.22642 18.38 2.56506 17.9576L1.19181 16.4695C-0.40063 14.7438 -0.51449 11.8601 1.56759 10.2383C4.34306 8.07649 8.90987 5.49748 13.6966 6.27179C13.8778 6.10368 14.061 5.93453 14.2461 5.76438ZM16.3276 8.02241C23.0136 1.87779 30.1114 2.70088 33.2125 3.93985C34.1946 7.12537 34.4332 14.2513 27.7477 20.3955C21.3056 26.316 16.3543 29.8785 13.9384 31.3999L4.20393 20.851C5.92228 18.5729 9.8867 13.9419 16.3276 8.02241ZM3.45804 12.6581C5.39142 11.1521 7.91307 9.72126 10.5089 9.31568C8.06157 11.7235 6.08386 13.8446 4.55765 15.5879L3.45214 14.3899C2.88519 13.7755 3.00682 13.0095 3.45804 12.6581ZM28.2428 8.50506C25.9471 6.01728 22.0656 5.85787 19.5728 8.1488C17.0796 10.4402 16.9197 14.3151 19.2158 16.8034C21.5115 19.2912 25.393 19.4506 27.8858 17.1596C30.379 14.8683 30.5389 10.9933 28.2428 8.50506ZM21.6543 10.4068C22.8986 9.26322 24.8366 9.34291 25.9824 10.5846C27.1278 11.8258 27.0482 13.7584 25.8043 14.9016C24.5599 16.0452 22.622 15.9655 21.4761 14.7238C20.3307 13.4826 20.4104 11.55 21.6543 10.4068ZM4.56146 27.1835C3.98652 26.5605 3.01475 26.5206 2.39055 27.0943C0.925478 28.4407 0.348193 30.498 0.899902 32.4084L1.39292 33.6786L1.39757 33.6906C1.50575 33.9694 1.6266 34.2809 1.8999 34.3998L3.19876 34.8998C5.06024 35.6052 7.16141 35.2005 8.62637 33.8542C9.25104 33.2801 9.29117 32.3089 8.71579 31.6854C8.14085 31.0624 7.16908 31.0225 6.54488 31.5962C5.93632 32.1554 5.06307 32.3237 4.28931 32.0305L3.95273 31.903L3.85312 31.5581C3.6242 30.7654 3.86359 29.9115 4.47204 29.3523C5.0967 28.7782 5.13684 27.807 4.56146 27.1835Z" fill="#40404B"/>
<path fill-rule="evenodd" clip-rule="evenodd" d="M31.7089 49.8811L31.6822 49.89C29.7569 49.89 28.1614 49.2571 26.8867 47.9825C25.6121 46.7079 24.9792 45.1213 24.9792 43.2227C24.9792 41.3419 25.6121 39.7643 26.8867 38.4985C28.1614 37.2328 29.748 36.6 31.6465 36.6C33.2599 36.6 34.6147 37.01 35.7022 37.83C36.7896 38.6501 37.5027 39.6216 37.8325 40.7447L35.3813 41.3419C35.1584 40.6734 34.7128 40.103 34.0443 39.6395C33.3757 39.176 32.5824 38.9442 31.6554 38.9442C30.4254 38.9442 29.4271 39.3542 28.6694 40.1832C27.9118 41.0121 27.5285 42.0194 27.5285 43.2049C27.5285 44.3993 27.9118 45.4154 28.6783 46.2622C29.4449 47.109 30.4343 47.5279 31.6554 47.5279C32.5824 47.5279 33.3847 47.2962 34.0532 46.8416C34.7217 46.387 35.1674 45.8254 35.3902 45.1569L37.8147 45.7809C37.5027 46.895 36.7985 47.8577 35.7111 48.6688C34.6236 49.48 33.2866 49.8811 31.7089 49.8811ZM45.5785 36.8407L45.5607 36.8496C46.8888 36.8496 47.9584 37.3042 48.7784 38.2134C49.5985 39.1225 50.0085 40.1476 50.0085 41.2885C50.0085 42.4562 49.5985 43.4902 48.7784 44.3815C47.9584 45.2729 46.8531 45.7185 45.4715 45.7185H42.0755V49.6226H39.5886V36.8407H45.5785ZM45.3735 43.4991L45.3556 43.4812C46.0063 43.4812 46.5322 43.2584 46.9422 42.8216C47.3523 42.3849 47.5573 41.8768 47.5573 41.2974C47.5573 40.7181 47.3612 40.21 46.969 39.7732C46.5768 39.3365 46.0866 39.1136 45.4893 39.1136H42.0577V43.4991H45.3735ZM24.9794 39.1047V36.8407H13.8999V39.1047H18.1873V49.6226H20.692V39.1047H24.9794Z" fill="#40404B"/>
</svg>
