<svg width="51" height="50" viewBox="0 0 51 50" fill="none" xmlns="http://www.w3.org/2000/svg">
<path d="M23.1056 3.52674C22.554 1.49437 20.701 0 18.5 0C16.299 0 14.446 1.49436 13.8944 3.52674C13.3504 3.3104 12.7572 3.19149 12.1364 3.19149C9.50046 3.19149 7.36364 5.33481 7.36364 7.97872V17.2937C6.86603 17.1173 6.33056 17.0213 5.77273 17.0213C3.13682 17.0213 1 19.1646 1 21.8085V32.4468L1.00324 32.7882C1.13268 39.5945 5.12441 45.4525 10.8716 48.249C11.8894 48.7442 13 47.9481 13 46.8162C13 46.1467 12.5933 45.5507 11.9974 45.2454C7.35826 42.8693 4.18182 38.0302 4.18182 32.4468V21.8085L4.1891 21.6548C4.26619 20.8456 4.94578 20.2128 5.77273 20.2128C6.65136 20.2128 7.36364 20.9272 7.36364 21.8085V28.7682L7.3707 28.9981C7.44112 30.142 8.03416 31.195 8.98537 31.8452L12.3011 34.1115L12.4318 34.192C13.1419 34.5838 14.046 34.3769 14.5117 33.6914C15.0064 32.9631 14.8189 31.9704 14.0929 31.4741L10.7771 29.2078L10.6974 29.1409C10.601 29.0425 10.5455 28.909 10.5455 28.7682V7.97872L10.5527 7.82504C10.6298 7.01584 11.3094 6.38298 12.1364 6.38298C13.015 6.38298 13.7273 7.09742 13.7273 7.97872V23.9362L13.7346 24.0899C13.8116 24.8991 14.4912 25.5319 15.3182 25.5319C16.1968 25.5319 16.9091 24.8175 16.9091 23.9362L16.9091 4.78723L16.9164 4.63355C16.9935 3.82435 17.673 3.19149 18.5 3.19149C19.3786 3.19149 20.0909 3.90593 20.0909 4.78723V23.9362L20.0982 24.0899C20.1753 24.8991 20.8549 25.5319 21.6818 25.5319C22.5605 25.5319 23.2727 24.8175 23.2727 23.9362V7.97872L23.28 7.82504C23.3571 7.01584 24.0367 6.38298 24.8636 6.38298C25.7423 6.38298 26.4545 7.09742 26.4545 7.97872V23.9362L26.4618 24.0899C26.5389 24.8991 27.2185 25.5319 28.0455 25.5319C28.9241 25.5319 29.6364 24.8175 29.6364 23.9362V13.2979L29.6436 13.1442C29.7207 12.335 30.4003 11.7021 31.2273 11.7021C32.1059 11.7021 32.8182 12.4166 32.8182 13.2979V33.9091C32.8182 34.7877 33.5305 35.5 34.4091 35.5C35.2877 35.5 36 34.7877 36 33.9091V13.2979L35.9948 13.0725C35.8775 10.5332 33.7879 8.51064 31.2273 8.51064C30.6694 8.51064 30.134 8.60663 29.6364 8.78304V7.97872L29.6312 7.75337C29.5139 5.21408 27.4242 3.19149 24.8636 3.19149C24.2428 3.19149 23.6496 3.3104 23.1056 3.52674Z" fill="#40404B"/>
<path d="M29.4285 49.4266V38H26.6723V44.5837H26.5774L22.0804 38H19.7036V49.4266H22.4654V42.8318H22.538L27.0852 49.4266H29.4285Z" fill="#40404B"/>
<path d="M31.165 49.4266V38H39.1324V40.2429H33.9268V42.5863H38.7251V44.8348H33.9268V47.1837H39.1324V49.4266H31.165Z" fill="#40404B"/>
<path d="M40.4883 40.2429V38H50.1462V40.2429H46.6814V49.4266H43.9587V40.2429H40.4883Z" fill="#40404B"/>
<path d="M16.4507 49.5883C16.049 49.5883 15.7049 49.447 15.4185 49.1643C15.1358 48.8816 14.9964 48.5394 15.0001 48.1377C14.9964 47.7434 15.1358 47.4068 15.4185 47.1278C15.7049 46.8451 16.049 46.7038 16.4507 46.7038C16.8301 46.7038 17.1649 46.8451 17.455 47.1278C17.7489 47.4068 17.8976 47.7434 17.9014 48.1377C17.8976 48.4055 17.827 48.6492 17.6893 48.8686C17.5554 49.0881 17.3788 49.2629 17.1593 49.3931C16.9436 49.5233 16.7074 49.5883 16.4507 49.5883Z" fill="#40404B"/>
</svg>
