<svg width="50" height="50" viewBox="0 0 50 50" fill="none" xmlns="http://www.w3.org/2000/svg">
<path fill-rule="evenodd" clip-rule="evenodd" d="M27.3242 13.529L22.1072 8.34296L22.1064 8.34214L21 7.24234L27.3242 0.95572C27.9354 0.348093 28.9265 0.348093 29.5377 0.95572C30.1108 1.52537 30.1466 2.42683 29.6452 3.03796L29.5377 3.15613L26.9921 5.68642H39.9092C40.7736 5.68642 41.4744 6.38303 41.4744 7.24234C41.4744 8.05111 40.8537 8.71575 40.0599 8.79115L39.9092 8.79827H26.9921L29.5377 11.3286C30.1108 11.8982 30.1466 12.7997 29.6452 13.4108L29.5377 13.529C28.9647 14.0986 28.0578 14.1342 27.443 13.6358L27.3242 13.529ZM32.4862 22.9517L37.7032 28.1377L37.8221 28.2445C38.4368 28.7429 39.3437 28.7073 39.9167 28.1377L40.0242 28.0195C40.5256 27.4084 40.4898 26.5069 39.9167 25.9373L37.3711 23.407H48.2013L48.352 23.3998C49.1457 23.3244 49.7665 22.6598 49.7665 21.851C49.7665 20.9917 49.0657 20.2951 48.2013 20.2951H37.3711L39.9167 17.7648L40.0242 17.6467C40.5256 17.0355 40.4898 16.1341 39.9167 15.5644C39.3055 14.9568 38.3145 14.9568 37.7032 15.5644L31.379 21.851L32.4854 22.9508L32.4862 22.9517ZM37.3183 32.683C37.5253 31.8809 37.0428 31.0628 36.2407 30.8558C35.4385 30.6488 34.6205 31.1312 34.4135 31.9334C34.1885 32.8051 33.8912 33.6456 33.5129 34.4327C32.9289 35.6479 32.9502 37.2263 33.9271 38.4137L34.8391 39.522C35.0026 39.7208 34.9885 40.0113 34.8065 40.1933L33.7499 41.2499L32.6933 42.3065C32.5113 42.4885 32.2208 42.5026 32.0221 42.3391L30.9137 41.4271C29.7263 40.4501 28.1479 40.4289 26.9327 41.0129C26.5139 41.2142 26.0797 41.3926 25.6334 41.5495C24.3751 41.9919 23.3277 43.1053 23.1674 44.578L23.0066 46.0541C22.979 46.3078 22.7647 46.5 22.5095 46.5H21H19.5082C19.2512 46.5 19.036 46.305 19.0107 46.0492L18.8691 44.6197C18.7207 43.121 17.6547 41.9935 16.3862 41.5475C15.9477 41.3933 15.5253 41.2177 15.1164 41.0193C13.9003 40.429 12.3203 40.4496 11.1322 41.4271L10.0238 42.3391C9.82503 42.5026 9.53458 42.4885 9.35257 42.3065L8.29595 41.2499L7.22958 40.1835C7.0486 40.0025 7.03351 39.7141 7.19463 39.5152L8.12127 38.3714C9.05784 37.2153 9.10911 35.6773 8.52413 34.4672C8.31157 34.0276 8.1202 33.576 7.95393 33.1172C7.50315 31.8732 6.39441 30.8277 4.922 30.6673L3.44587 30.5066C3.19217 30.4789 3 30.2647 3 30.0095V28.5V27.0082C3 26.7511 3.19492 26.536 3.45074 26.5106L4.88028 26.3691C6.37878 26.2207 7.50167 25.1563 7.95608 23.9023C8.11957 23.4512 8.30782 23.0119 8.51776 22.5821C9.10938 21.3709 9.05823 19.831 8.12127 18.6744L7.19463 17.5306C7.03351 17.3317 7.0486 17.0433 7.22958 16.8623L8.29595 15.7959L9.36232 14.7296C9.54331 14.5486 9.83174 14.5335 10.0306 14.6946L11.1744 15.6212C12.331 16.5582 13.8709 16.6093 15.0821 16.0177C15.8827 15.6267 16.7174 15.3103 17.6014 15.0893C18.4051 14.8884 18.8938 14.074 18.6929 13.2703C18.4919 12.4666 17.6775 11.978 16.8738 12.1789C15.7648 12.4561 14.7331 12.8495 13.7654 13.3221C13.4734 13.4647 13.2062 13.4063 13.0629 13.2902L11.9191 12.3636C10.5269 11.2357 8.50789 11.3414 7.241 12.6082L6.17463 13.6746L5.10826 14.741C3.84138 16.0079 3.73578 18.0269 4.86358 19.419L5.79022 20.5629C5.90635 20.7062 5.96478 20.9734 5.82214 21.2654C5.56872 21.7842 5.33793 22.3218 5.13557 22.8802C5.01436 23.2147 4.7675 23.3656 4.5847 23.3837L3.15515 23.5252C1.36446 23.7025 0 25.2088 0 27.0082V28.5V30.0095C0 31.7958 1.34522 33.2955 3.12105 33.4889L4.59719 33.6497C4.77906 33.6695 5.01726 33.8188 5.13342 34.1393C5.33596 34.6982 5.56763 35.2443 5.82319 35.773C5.96636 36.0691 5.90675 36.3391 5.79022 36.483L4.86358 37.6268C3.73578 39.0189 3.84138 41.038 5.10826 42.3048L6.17463 43.3712L7.23125 44.4278C8.50532 45.7019 10.5385 45.8005 11.9299 44.6557L13.0383 43.7437C13.1813 43.626 13.4718 43.5557 13.8064 43.7182C14.3209 43.9679 14.8486 44.1869 15.3911 44.3776C15.7165 44.492 15.8656 44.7327 15.8837 44.9153L16.0253 46.3448C16.2026 48.1355 17.7088 49.5 19.5082 49.5H21H22.5095C24.2959 49.5 25.7955 48.1547 25.9889 46.3789L26.1497 44.9028C26.1695 44.7211 26.3169 44.4892 26.6285 44.3797C27.1717 44.1887 27.708 43.9688 28.2322 43.7169C28.5706 43.5542 28.8639 43.6255 29.0076 43.7437L30.116 44.6557C31.5074 45.8005 33.5406 45.7019 34.8146 44.4278L35.8712 43.3712L36.9279 42.3146C38.2019 41.0405 38.3005 39.0073 37.1557 37.616L36.2438 36.5076C36.1255 36.3639 36.0542 36.0705 36.2169 35.7321C36.6898 34.7481 37.0505 33.7205 37.3183 32.683ZM29.5976 28.5C29.5976 23.7369 25.6987 19.9482 21 19.9482C16.269 19.9482 12.4482 23.769 12.4482 28.5C12.4482 33.1987 16.237 37.0976 21 37.0976C25.731 37.0976 29.5976 33.2309 29.5976 28.5ZM21 22.9482C24.0741 22.9482 26.5976 25.4259 26.5976 28.5C26.5976 31.5741 24.0741 34.0976 21 34.0976C17.9259 34.0976 15.4482 31.5741 15.4482 28.5C15.4482 25.4259 17.9259 22.9482 21 22.9482Z" fill="#40404B"/>
</svg>
