<svg width="50" height="50" viewBox="0 0 50 50" fill="none" xmlns="http://www.w3.org/2000/svg">
<path fill-rule="evenodd" clip-rule="evenodd" d="M9.19748 10.8326C8.63002 11.2839 8.45297 11.8298 8.41082 12.2411C8.38426 12.5039 8.4083 12.7749 8.47148 13.0485C8.84736 14.676 10.6083 16.3963 11.3381 17.0527L11.3827 17.0926C11.4292 17.1341 11.4708 17.1705 11.5066 17.2017C12.299 18.814 13.3317 20.1712 14.4991 21.1345L14.5011 21.1361C15.7742 22.1829 17.1453 22.7413 18.5732 22.7967L18.5792 22.797C18.6341 22.7993 18.6885 22.8 18.7435 22.8C20.025 22.8 21.3553 22.2405 22.7003 21.1351L22.702 21.1337C23.8319 20.2017 24.8358 18.8996 25.6176 17.3545L25.6203 17.3492C25.6451 17.3001 25.6697 17.2508 25.694 17.2013C25.7298 17.1703 25.7712 17.1339 25.8176 17.0926L25.8196 17.0908C26.6356 16.3633 28.9741 14.1026 28.7898 12.2456L28.7893 12.2407L28.7892 12.239C28.7467 11.8279 28.5701 11.2829 28.0034 10.8322C28.0059 10.8016 28.0084 10.7696 28.0108 10.7363C28.1132 9.32895 28.1349 5.54487 25.7959 2.84077C24.1658 0.956504 21.7453 0.000751378 18.6005 0H18.5975C15.4553 0 13.0348 0.955001 11.4057 2.83824C9.06543 5.54255 9.08767 9.32916 9.19012 10.7369C9.19254 10.7702 9.195 10.8021 9.19748 10.8326ZM12.0056 13.4031C11.9125 13.2833 11.8301 13.1696 11.7579 13.0631C13.2977 12.501 14.2704 11.3101 14.9226 10.5116L14.9779 10.444C15.3818 9.95037 15.6361 9.64883 15.8821 9.44769C16.0842 9.28239 16.1781 9.27177 16.2469 9.27177C16.3888 9.27177 16.6496 9.32561 17.1053 9.54716C17.5567 9.76661 18.0574 10.0772 18.689 10.4717L18.7052 10.4819C20.295 11.4743 22.424 12.8034 25.32 13.2373C25.2807 13.291 25.2392 13.3463 25.1952 13.4029C24.6534 14.101 23.9967 14.7021 23.7274 14.9358L23.2693 15.3335L23.0017 15.878C22.3622 17.1791 21.5756 18.1739 20.7932 18.8192C19.7948 19.6395 19.1172 19.8 18.7435 19.8L18.7193 19.7999L18.7061 19.7997L18.6981 19.7993L18.689 19.799C18.0125 19.7727 17.2543 19.5156 16.408 18.8201C15.6247 18.1736 14.8382 17.1789 14.1989 15.8783L13.9315 15.3343L13.4738 14.9367C13.2041 14.7025 12.5474 14.1014 12.0056 13.4031ZM25.0388 10.1349C25.0843 8.77059 24.8981 6.38869 23.5272 4.80358C22.6101 3.74364 21.1192 3.00074 18.5997 3H18.5975C16.08 3 14.59 3.74272 13.6742 4.80136C12.602 6.0404 12.2542 7.76744 12.1752 9.11461C12.3281 8.94128 12.4871 8.75083 12.6559 8.54437L12.6991 8.49153C13.0447 8.06889 13.4796 7.53694 13.9831 7.12525C14.5516 6.66033 15.2947 6.27177 16.2469 6.27177C17.0546 6.27177 17.7987 6.54849 18.417 6.84911C19.0276 7.14593 19.6577 7.5396 20.2432 7.90539L20.2776 7.92687C21.6789 8.80163 23.1666 9.7104 25.0388 10.1349Z" fill="#40404B"/>
<path d="M14.7281 23.9239L14.7307 23.9303C14.3214 23.0003 13.1799 22.0866 11.8203 22.6762C4.88105 25.6776 0.5 33.9436 0.5 42.9568C0.5 43.5433 0.679186 44.1305 1.03925 44.6033C1.40032 45.0774 2.00704 45.5 2.79441 45.5H7.04877C7.8772 45.5 8.54877 44.8284 8.54877 44C8.54877 43.1716 7.8772 42.5 7.04877 42.5H3.50413C3.64271 34.8384 7.25797 28.3591 12.3136 25.7596C12.3728 25.8636 12.4406 25.9802 12.5165 26.1071C12.8154 26.6065 13.2476 27.278 13.7874 27.9784C14.8066 29.3009 16.4467 31.0445 18.516 31.5615L18.8808 31.6526L19.2455 31.5609C20.9602 31.1295 22.4187 29.891 23.4709 28.7018C24.3337 27.7267 25.0429 26.6484 25.4991 25.7407C25.5723 25.7699 25.6408 25.7969 25.7047 25.8221L25.8192 25.8673C26.4772 26.2833 27.5259 26.3044 27.9402 25.9043C28.5361 25.3289 28.5526 24.3793 27.9772 23.7833C27.6742 23.4696 27.2439 23.2382 27.2439 23.2382C27.2439 23.2382 27.0694 23.1359 26.8014 23.0297C26.5562 22.933 26.2862 22.8264 25.9416 22.6774C24.5639 22.0758 23.3934 23.032 23.0044 23.9879L23.0036 23.9899C22.7405 24.6387 22.101 25.7228 21.2241 26.7138C20.4553 27.5828 19.6366 28.2298 18.8817 28.5311C17.9713 28.158 17.0115 27.2473 16.1636 26.1471C15.7132 25.5627 15.3465 24.9938 15.0908 24.5666C14.9636 24.354 14.8657 24.1796 14.8006 24.0598C14.7481 23.9632 14.7281 23.9239 14.7281 23.9239Z" fill="#40404B"/>
<path d="M38 34.5C38.8284 34.5 39.5 35.1716 39.5 36V43.5C39.5 44.3284 38.8284 45 38 45C37.1716 45 36.5 44.3284 36.5 43.5V36C36.5 35.1716 37.1716 34.5 38 34.5Z" fill="#40404B"/>
<path d="M39.5 32C39.5 31.1716 38.8284 30.5 38 30.5C37.1716 30.5 36.5 31.1716 36.5 32C36.5 32.8284 37.1716 33.501 38 33.501C38.8284 33.501 39.5 32.8284 39.5 32Z" fill="#40404B"/>
<path fill-rule="evenodd" clip-rule="evenodd" d="M50 38C50 44.6274 44.6274 50 38 50C31.3726 50 26 44.6274 26 38C26 31.3726 31.3726 26 38 26C44.6274 26 50 31.3726 50 38ZM47 38C47 42.9706 42.9706 47 38 47C33.0294 47 29 42.9706 29 38C29 33.0294 33.0294 29 38 29C42.9706 29 47 33.0294 47 38Z" fill="#40404B"/>
</svg>
