<svg width="52" height="50" viewBox="0 0 52 50" fill="none" xmlns="http://www.w3.org/2000/svg">
<path fill-rule="evenodd" clip-rule="evenodd" d="M25 0.267949C25.6188 -0.0893164 26.3812 -0.0893164 27 0.267949L30.6292 2.36325C31.248 2.72051 31.6292 3.38077 31.6292 4.0953V8.2859C31.6292 9.00043 31.248 9.66068 30.6292 10.0179L27.5 11.8246L27.5 15.8661L32.9526 19.0142L39.6587 15.3696C39.728 15.3319 39.7989 15.3003 39.8708 15.2745V11.9047C39.8708 11.1902 40.252 10.53 40.8708 10.1727L44.5 8.0774C45.1188 7.72013 45.8812 7.72013 46.5 8.0774L50.1292 10.1727C50.748 10.53 51.1292 11.1902 51.1292 11.9047V16.0953C51.1292 16.8099 50.748 17.4701 50.1292 17.8274L46.5 19.9227C45.8812 20.28 45.1188 20.28 44.5 19.9227L41.1357 17.9803C41.1303 17.9835 41.1248 17.9866 41.1193 17.9898C41.11 17.9951 41.1007 18.0003 41.0912 18.0054L34.6602 21.5005V28.4995L41.0912 31.9946C41.2472 32.0793 41.3821 32.1877 41.4939 32.313L44.5 30.5774C45.1188 30.2201 45.8812 30.2201 46.5 30.5774L50.1292 32.6727C50.748 33.03 51.1292 33.6902 51.1292 34.4047V38.5953C51.1292 39.3099 50.748 39.9701 50.1292 40.3274L46.5 42.4227C45.8812 42.78 45.1188 42.78 44.5 42.4227L40.8708 40.3274C40.252 39.9701 39.8708 39.3099 39.8708 38.5953V34.7255C39.7989 34.6997 39.728 34.6681 39.6587 34.6304L32.9527 30.9859L27.5 34.134L27.5 38.1566L30.6292 39.9632C31.248 40.3205 31.6292 40.9807 31.6292 41.6953V45.8859C31.6292 46.6004 31.248 47.2607 30.6292 47.6179L27 49.7132C26.3812 50.0705 25.6188 50.0705 25 49.7132L21.3708 47.6179C20.752 47.2607 20.3708 46.6004 20.3708 45.8859V41.6953C20.3708 40.9807 20.752 40.3205 21.3708 39.9632L24.5 38.1566L24.5 34.134L19.0472 30.9859L12.1292 34.7457V38.5953C12.1292 39.3099 11.748 39.9701 11.1292 40.3274L7.50002 42.4227C6.88121 42.78 6.11882 42.78 5.50001 42.4227L1.87085 40.3274C1.25205 39.9701 0.87085 39.3099 0.87085 38.5953V34.4047C0.87085 33.6902 1.25205 33.03 1.87085 32.6727L5.50001 30.5774C6.11882 30.2201 6.88121 30.2201 7.50001 30.5774L10.4172 32.2617L17.3397 28.4994V21.5006L10.9087 18.0054C10.8937 17.9973 10.8789 17.9889 10.8643 17.9803L7.50002 19.9227C6.88121 20.28 6.11882 20.28 5.50001 19.9227L1.87085 17.8274C1.25205 17.4701 0.87085 16.8099 0.87085 16.0953V11.9047C0.87085 11.1902 1.25205 10.53 1.87085 10.1727L5.50001 8.0774C6.11882 7.72013 6.88121 7.72013 7.50001 8.0774L11.1292 10.1727C11.748 10.53 12.1292 11.1902 12.1292 11.9047V15.2745C12.2011 15.3003 12.272 15.3319 12.3412 15.3696L19.0473 19.0142L24.5 15.8661L24.5 11.8245L21.3708 10.0179C20.752 9.66068 20.3708 9.00043 20.3708 8.2859V4.0953C20.3708 3.38077 20.752 2.72051 21.3708 2.36325L25 0.267949ZM23.3708 4.67265L26 3.1547L28.6292 4.67265V7.70855L26 9.2265L23.3708 7.70855V4.67265ZM25.9399 18.4988L20.3397 21.7321V28.268L25.9398 31.5012C25.9597 31.5004 25.9798 31.5 26 31.5C26.0097 31.5 26.0195 31.5001 26.0292 31.5003C26.0396 31.5005 26.0499 31.5008 26.0602 31.5012L31.6602 28.268V21.7321L26.06 18.4988C26.0401 18.4996 26.0201 18.5 26 18.5C25.9799 18.5 25.9598 18.4996 25.9399 18.4988ZM6.50001 10.9641L3.87085 12.4821V15.518L6.50001 17.0359L9.12918 15.518V12.4821L6.50001 10.9641ZM3.87085 34.9821L6.50001 33.4641L9.12918 34.9821V38.018L6.50001 39.5359L3.87085 38.018V34.9821ZM45.5 10.9641L42.8708 12.4821V15.518L45.5 17.0359L48.1292 15.518V12.4821L45.5 10.9641ZM42.8708 34.9821L45.5 33.4641L48.1292 34.9821V38.018L45.5 39.5359L42.8708 38.018V34.9821ZM26 40.7547L23.3708 42.2726V45.3085L26 46.8265L28.6292 45.3085V42.2726L26 40.7547Z" fill="#40404B"/>
</svg>
