<svg width="50" height="50" viewBox="0 0 50 50" fill="none" xmlns="http://www.w3.org/2000/svg">
<path fill-rule="evenodd" clip-rule="evenodd" d="M26.5 37.9417C36.2922 37.1769 44 28.9886 44 19C44 8.50659 35.4934 0 25 0C14.5066 0 6 8.50659 6 19C6 28.9886 13.7078 37.1769 23.5 37.9417V41H17C15.3213 41 13.8841 42.0341 13.2908 43.5H4C3.17157 43.5 2.5 44.1716 2.5 45C2.5 45.8284 3.17157 46.5 4 46.5H13.2908C13.8841 47.9659 15.3213 49 17 49H33C34.6787 49 36.1159 47.9659 36.7092 46.5H46C46.8284 46.5 47.5 45.8284 47.5 45C47.5 44.1716 46.8284 43.5 46 43.5H36.7092C36.1159 42.0341 34.6787 41 33 41H26.5V37.9417ZM28.2962 34.6601C27.2325 34.8829 26.1299 35 25 35C23.8949 35 22.8161 34.888 21.7741 34.6747C21.8404 34.4567 21.858 34.2202 21.816 33.9804C21.1567 30.2102 22.4323 28.542 22.6503 28.3606L24.6945 26.6605L22.1823 25.79C21.4023 25.5197 20.1134 24.9266 18.9125 24.0661C17.6901 23.1902 16.7307 22.1604 16.3385 21.0732C15.4802 18.6936 16.4788 16.6075 16.9997 15.9576L17.5257 15.3015L17.2403 14.5105C16.7284 13.0914 16.779 12.0339 16.9499 11.3497C17.1753 11.491 17.4156 11.6573 17.6651 11.8456C18.3356 12.3516 18.9306 12.907 19.2574 13.2468L19.8297 13.8417L20.7663 13.6505C22.1094 13.3763 23.4768 13.2381 24.8477 13.2381C24.9119 13.2381 24.9752 13.2341 25.0373 13.2262C25.0994 13.2341 25.1627 13.2381 25.2269 13.2381C26.5978 13.2381 27.9652 13.3763 29.3083 13.6505L30.2449 13.8417L30.8172 13.2468C31.144 12.907 31.739 12.3516 32.4095 11.8456C32.659 11.6573 32.8993 11.491 33.1247 11.3497C33.2956 12.0339 33.3462 13.0914 32.8343 14.5105L32.5489 15.3015L33.0749 15.9576C33.5958 16.6075 34.5945 18.6936 33.7361 21.0732C33.3439 22.1604 32.3845 23.1902 31.1621 24.0661C29.9612 24.9266 28.6723 25.5197 27.8923 25.79L25.3801 26.6605L27.4243 28.3606C27.6423 28.542 28.918 30.2102 28.2586 33.9804C28.2176 34.2149 28.2334 34.4462 28.2962 34.6601ZM31.3333 33.6976C31.6432 31.1912 31.2633 29.232 30.6412 27.8679C31.3639 27.5057 32.1492 27.0494 32.9095 26.5047C34.3475 25.4743 35.8681 24.004 36.5581 22.0911C37.6618 19.0314 36.7855 16.2976 35.8948 14.7847C36.7633 11.6872 35.8448 9.3622 34.8754 8.35441L34.2668 7.72168L33.4171 7.94252C32.3989 8.20715 31.3781 8.86557 30.6024 9.45089C30.0985 9.83121 29.6322 10.2317 29.2495 10.5864C27.9216 10.3547 26.5757 10.2381 25.2269 10.2381C25.1627 10.2381 25.0994 10.2421 25.0373 10.25C24.9752 10.2421 24.9119 10.2381 24.8477 10.2381C23.4989 10.2381 22.153 10.3547 20.8251 10.5864C20.4424 10.2317 19.9761 9.83121 19.4722 9.45089C18.6965 8.86557 17.6757 8.20715 16.6575 7.94252L15.8078 7.72168L15.1992 8.35441C14.2298 9.3622 13.3113 11.6872 14.1798 14.7847C13.2891 16.2976 12.4128 19.0314 13.5165 22.0911C14.2065 24.004 15.7271 25.4743 17.1651 26.5047C17.9254 27.0494 18.7107 27.5057 19.4334 27.8679C18.8085 29.2381 18.428 31.2088 18.7456 33.7314C13.017 31.2962 9 25.6172 9 19C9 10.1634 16.1634 3 25 3C33.8366 3 41 10.1634 41 19C41 25.5868 37.0198 31.244 31.3333 33.6976ZM17 44H33C33.5523 44 34 44.4477 34 45C34 45.5523 33.5523 46 33 46H17C16.4477 46 16 45.5523 16 45C16 44.4477 16.4477 44 17 44Z" fill="black"/>
</svg>
