<?xml version="1.0" encoding="utf-8"?>
<svg version="1.1" id="GitHub" xmlns="http://www.w3.org/2000/svg" xmlns:xlink="http://www.w3.org/1999/xlink" x="0px" y="0px"
	 viewBox="0 0 20.3125973 20.3154659" style="enable-background:new 0 0 20.3125973 20.3154659;" xml:space="preserve">

<path fill="#fff" d="M15.2735634,5.117733c-2.8183298,0.0359464-5.0741625,2.349308-5.0391397,5.1676493
	c-0.0151491,2.2026701,1.3695536,4.1721058,3.4474144,4.9031878c0.2520561,0.0496178,0.3438482-0.1121349,0.3438482-0.2480869
	c0-0.1230507-0.0044651-0.4465561-0.0069466-0.8787231c-1.4016905,0.3120928-1.6979055-0.694643-1.6979055-0.694643
	c-0.0903435-0.3106327-0.2886477-0.5787926-0.5591879-0.7561684c-0.4579687-0.320529,0.034236-0.3140783,0.034236-0.3140783
	c0.3256922,0.048624,0.610363,0.245676,0.7705574,0.5333862c0.2695112,0.5186605,0.9084511,0.7206364,1.4271116,0.4511251
	c0.0135145-0.0070229,0.0268755-0.0143356,0.0400743-0.0219345c0.0217123-0.2607517,0.1346836-0.5054941,0.3190393-0.6911697
	c-1.1188717-0.1304941-2.2957954-0.5740728-2.2957954-2.5533104c-0.0087204-0.5120306,0.1767035-1.0083838,0.5189981-1.389286
	c-0.1538515-0.4459953-0.1361637-0.9332919,0.0496168-1.3669586c0,0,0.4232359-0.1389284,1.3858137,0.5294175
	c0.825181-0.2320175,1.6983576-0.2320175,2.5235395,0c0.96208-0.6683459,1.3848209-0.5294175,1.3848209-0.5294175
	c0.1855431,0.4337201,0.203228,0.920928,0.0496178,1.3669586c0.3422775,0.3808441,0.5273933,0.8773203,0.5180054,1.389286
	c0,1.9846954-1.1779175,2.4218245-2.3007584,2.5498371c0.244194,0.2561283,0.3684177,0.6037378,0.3418636,0.9566221
	c0,0.6911697-0.0064487,1.2478771-0.0064487,1.4175692c0,0.1384315,0.0907993,0.2977037,0.3473206,0.248086
	c2.0757504-0.7324791,3.4583359-2.7010517,3.4429493-4.9021959C20.3466797,7.4670382,18.0913849,5.1542234,15.2735634,5.117733z"/>
</svg>