<svg width="50" height="50" viewBox="0 0 50 50" fill="none" xmlns="http://www.w3.org/2000/svg">
<path d="M2.7384 19.7256L15.7893 32.175V19.7256L10.2239 2.73902C9.93866 1.86479 8.58766 1.86479 8.30382 2.73902L2.7384 19.7256Z" fill="#E24329"/>
<path d="M47.2618 19.7256L34.2107 32.175V19.7256L39.7762 2.73902C40.0615 1.86479 41.4124 1.86479 41.6963 2.73902L47.2618 19.7256Z" fill="#E24329"/>
<path d="M25 47.9167L4.12973 19.7256H45.8703L25 47.9167Z" fill="#E24329"/>
<path d="M25 47.9167L15.7893 19.7256H2.7384L8.30382 34.9417L25 47.9167Z" fill="#FC6D26"/>
<path d="M25 47.9167L34.2107 19.7256H47.2618L41.6963 34.9417L25 47.9167Z" fill="#FC6D26"/>
<path d="M2.73837 19.7256L0.0948046 28.2466C-0.155639 29.0282 0.0948048 29.9065 0.790481 30.4045L25.0278 47.9167L2.73837 19.7256Z" fill="#FCA326"/>
<path d="M47.2618 19.7256L49.9052 28.2466C50.1556 29.0282 49.9052 29.9065 49.2096 30.4045L25 47.9167L47.2618 19.7256Z" fill="#FCA326"/>
</svg>
