<svg width="50" height="50" viewBox="0 0 50 50" fill="none" xmlns="http://www.w3.org/2000/svg">
<path fill-rule="evenodd" clip-rule="evenodd" d="M24.5894 7.28884C23.2154 5.94761 21.0227 5.94761 19.6486 7.28885L4.09876 22.4675C2.6763 23.856 2.6763 26.144 4.09876 27.5325L19.6486 42.7112C21.0227 44.0524 23.2154 44.0524 24.5894 42.7112L26.7566 40.5957L29.6048 37.8155C30.204 37.2306 31.1638 37.2424 31.7485 37.8418C32.3332 38.4412 32.3215 39.4013 31.7223 39.9862L28.8741 42.7664L26.7069 44.8819C24.1551 47.3727 20.083 47.3727 17.5312 44.8819L1.98128 29.7032C-0.660426 27.1245 -0.66043 22.8755 1.98128 20.2968L17.5312 5.11815C20.0829 2.62729 24.1551 2.62728 26.7069 5.11815L28.8741 7.23361L31.7223 10.0138C32.3215 10.5987 32.3332 11.5588 31.7485 12.1582C31.1638 12.7576 30.204 12.7694 29.6048 12.1845L26.7566 9.40431L24.5894 7.28884ZM37.0641 33.0491C37.6485 33.6017 38.5625 33.6017 39.1469 33.0491L46.4935 26.102C47.1263 25.5037 47.1263 24.4963 46.4935 23.898L39.1469 16.9509C38.5625 16.3983 37.6485 16.3983 37.0641 16.9509L36.2069 17.7615L34.7369 19.1516C34.1284 19.7269 33.169 19.6999 32.5938 19.0913C32.0187 18.4827 32.0456 17.5229 32.6541 16.9476L34.1241 15.5575L34.9813 14.7468C36.7345 13.089 39.4766 13.089 41.2297 14.7468L48.5763 21.694C50.4746 23.489 50.4746 26.511 48.5763 28.306L41.2297 35.2532C39.4766 36.911 36.7345 36.911 34.9813 35.2532L34.1241 34.4425L32.6541 33.0524C32.0456 32.4771 32.0187 31.5173 32.5938 30.9087C33.169 30.3001 34.1284 30.2731 34.7369 30.8484L36.2069 32.2385L37.0641 33.0491ZM24.7248 19.9894C25.3074 19.388 25.2923 18.4279 24.691 17.8451C24.0897 17.2623 23.13 17.2774 22.5474 17.8789L16.4365 24.1874L15.3726 25.2857L16.4796 26.3406L22.5904 32.1638C23.1966 32.7415 24.1562 32.7182 24.7337 32.1118C25.3112 31.5054 25.2879 30.5455 24.6817 29.9678L21.3144 26.7591H37.738C38.5753 26.7591 39.254 26.0802 39.254 25.2426C39.254 24.4051 38.5753 23.7262 37.738 23.7262H21.1051L24.7248 19.9894Z" fill="#40404B"/>
</svg>
