<svg width="50" height="51" viewBox="0 0 50 51" fill="none" xmlns="http://www.w3.org/2000/svg">
<path fill-rule="evenodd" clip-rule="evenodd" d="M5.62605 29.6476C2.51887 29.6476 -2.12868e-07 27.1302 -3.48609e-07 24.0248L-1.15298e-06 5.62281C-1.28872e-06 2.51742 2.51887 -1.10103e-07 5.62605 -2.45922e-07L24.0386 -1.05076e-06C27.1458 -1.18658e-06 29.6646 2.51742 29.6646 5.62281L29.6646 14.8238C29.6646 15.6707 28.9777 16.3573 28.1302 16.3573C27.2828 16.3573 26.5959 15.6707 26.5959 14.8238L26.5959 5.62281C26.5959 4.21127 25.4509 3.06699 24.0386 3.06699L5.62605 3.06699C4.21369 3.06699 3.06875 4.21127 3.06875 5.62281L3.06875 24.0248C3.06875 25.4363 4.21369 26.5806 5.62605 26.5806L14.8323 26.5806C15.6797 26.5806 16.3667 27.2672 16.3667 28.1141C16.3667 28.961 15.6797 29.6476 14.8323 29.6476L5.62605 29.6476ZM20.2515 30.4665C20.2515 29.6196 20.9385 28.933 21.7859 28.933L26.7613 28.933L14.5528 16.7315C13.9535 16.1326 13.9535 15.1616 14.5528 14.5628C15.152 13.9639 16.1235 13.9639 16.7227 14.5628L28.9312 26.7643L28.9312 21.7917C28.9312 20.9448 29.6182 20.2582 30.4656 20.2582C31.313 20.2583 32 20.9448 32 21.7917L32 30.4665L32 32L30.4656 32L21.7859 32C20.9385 32 20.2515 31.3134 20.2515 30.4665Z" fill="#40404B"/>
<path d="M35.2693 44.2183L35.2782 42.9262H28.7549V45.0827H32.6849C32.5691 45.9115 32.1859 46.5977 31.5264 47.1413C30.867 47.6849 30.0204 47.9612 28.9866 47.9612C27.6143 47.9612 26.5271 47.5423 25.725 46.7046C24.923 45.867 24.522 44.8421 24.522 43.6213C24.522 42.436 24.9141 41.429 25.6983 40.6003C26.4825 39.7715 27.4806 39.3616 28.7015 39.3616C30.5105 39.3616 31.7759 40.1012 32.4978 41.5716L34.8148 40.9122C34.3959 39.7804 33.6474 38.8447 32.5691 38.105C31.4908 37.3654 30.1986 37 28.6926 37C26.7944 37 25.2081 37.6327 23.9249 38.9071C22.6416 40.1814 22 41.7498 22 43.6213C22 45.5194 22.6416 47.1057 23.9338 48.38C25.226 49.6544 26.8479 50.2871 28.8084 50.2871C30.7244 50.2871 32.2839 49.7257 33.478 48.6028C34.6722 47.4799 35.2693 46.0185 35.2693 44.2183Z" fill="#40404B"/>
<path fill-rule="evenodd" clip-rule="evenodd" d="M43.2897 50.2871H43.2986C45.2235 50.2871 46.8186 49.6544 48.093 48.38C49.3673 47.1057 50 45.5194 50 43.6213C50 41.7409 49.3673 40.1636 48.093 38.8982C46.8186 37.6327 45.2235 37 43.2986 37C41.3737 37 39.7696 37.6327 38.4953 38.8982C37.2209 40.1636 36.5793 41.7409 36.5793 43.6213C36.5793 45.5194 37.2209 47.1057 38.4953 48.38C39.7696 49.6544 41.3648 50.2871 43.2897 50.2871ZM43.2807 47.979V47.9701C42.042 47.9701 41.035 47.5602 40.2597 46.7314C39.4844 45.9026 39.1012 44.8689 39.1012 43.6302C39.1012 42.4093 39.4844 41.3845 40.2597 40.5557C41.035 39.7269 42.042 39.317 43.2807 39.317C44.5194 39.317 45.5265 39.7269 46.3018 40.5557C47.0771 41.3845 47.4603 42.4093 47.4603 43.6302C47.4603 44.8689 47.0771 45.9026 46.3018 46.7314C45.5265 47.5602 44.5194 47.979 43.2807 47.979Z" fill="#40404B"/>
</svg>
