<svg width="50" height="50" viewBox="0 0 50 50" fill="none" xmlns="http://www.w3.org/2000/svg">
<path d="M3.78007 41.5673L5.98511 45.4039C6.4433 46.2116 7.10195 46.8462 7.87514 47.3077L15.7503 33.5769H0C0 34.4712 0.229095 35.3654 0.687285 36.1731L3.78007 41.5673Z" fill="#0066DA"/>
<path d="M25 17.4231L17.1249 3.69232C16.3517 4.15386 15.693 4.78848 15.2348 5.59617L0.687285 30.9808C0.237522 31.7711 0.000598833 32.666 0 33.5769H15.7503L25 17.4231Z" fill="#00AC47"/>
<path d="M42.1249 47.3077C42.898 46.8462 43.5567 46.2116 44.0149 45.4039L44.9313 43.8173L49.3127 36.1731C49.7709 35.3654 50 34.4712 50 33.5769H34.2486L37.6002 40.2116L42.1249 47.3077Z" fill="#EA4335"/>
<path d="M25 17.4231L32.8752 3.69231C32.102 3.23077 31.2142 3 30.2978 3H19.7022C18.7858 3 17.8981 3.25962 17.1249 3.69231L25 17.4231Z" fill="#00832D"/>
<path d="M34.2497 33.5769H15.7503L7.87514 47.3077C8.64833 47.7692 9.53608 48 10.4525 48H39.5475C40.4639 48 41.3517 47.7404 42.1248 47.3077L34.2497 33.5769Z" fill="#2684FC"/>
<path d="M42.0389 18.2885L34.7652 5.59617C34.307 4.78848 33.6483 4.15386 32.8751 3.69232L25 17.4231L34.2497 33.5769H49.9714C49.9714 32.6827 49.7423 31.7885 49.2841 30.9808L42.0389 18.2885Z" fill="#FFBA00"/>
</svg>
