<svg width="50" height="50" viewBox="0 0 50 50" fill="none" xmlns="http://www.w3.org/2000/svg">
<path d="M23.1056 3.52674C22.554 1.49437 20.701 0 18.5 0C16.299 0 14.446 1.49436 13.8944 3.52674C13.3504 3.3104 12.7572 3.19149 12.1364 3.19149C9.50046 3.19149 7.36364 5.33481 7.36364 7.97872V17.2937C6.86603 17.1173 6.33056 17.0213 5.77273 17.0213C3.13682 17.0213 1 19.1646 1 21.8085V32.4468L1.00324 32.7882C1.18461 42.325 8.94872 50 18.5 50L18.953 49.9994C19.8141 49.9979 20.5 49.3075 20.5 48.4464C20.5 47.5464 19.7534 46.8062 18.8534 46.808L18.5 46.8085C10.5923 46.8085 4.18182 40.3786 4.18182 32.4468V21.8085L4.1891 21.6548C4.26619 20.8456 4.94578 20.2128 5.77273 20.2128C6.65136 20.2128 7.36364 20.9272 7.36364 21.8085V28.7682L7.3707 28.9981C7.44112 30.142 8.03416 31.195 8.98537 31.8452L12.3011 34.1115L12.4318 34.192C13.1419 34.5838 14.046 34.3769 14.5117 33.6914C15.0064 32.9631 14.8189 31.9704 14.0929 31.4741L10.7771 29.2078L10.6974 29.1409C10.601 29.0425 10.5455 28.909 10.5455 28.7682V7.97872L10.5527 7.82504C10.6298 7.01584 11.3094 6.38298 12.1364 6.38298C13.015 6.38298 13.7273 7.09742 13.7273 7.97872V23.9362L13.7346 24.0899C13.8116 24.8991 14.4912 25.5319 15.3182 25.5319C16.1968 25.5319 16.9091 24.8175 16.9091 23.9362L16.9091 4.78723L16.9164 4.63355C16.9935 3.82435 17.673 3.19149 18.5 3.19149C19.3786 3.19149 20.0909 3.90593 20.0909 4.78723V23.9362L20.0982 24.0899C20.1753 24.8991 20.8549 25.5319 21.6818 25.5319C22.5605 25.5319 23.2727 24.8175 23.2727 23.9362V7.97872L23.28 7.82504C23.3571 7.01584 24.0367 6.38298 24.8636 6.38298C25.7423 6.38298 26.4545 7.09742 26.4545 7.97872V23.9362L26.4618 24.0899C26.5389 24.8991 27.2185 25.5319 28.0455 25.5319C28.9241 25.5319 29.6364 24.8175 29.6364 23.9362V13.2979L29.6436 13.1442C29.7207 12.335 30.4003 11.7021 31.2273 11.7021C32.1059 11.7021 32.8182 12.4166 32.8182 13.2979V31.4091C32.8182 32.2877 33.5305 33 34.4091 33C35.2877 33 36 32.2877 36 31.4091V13.2979L35.9948 13.0725C35.8775 10.5332 33.7879 8.51064 31.2273 8.51064C30.6694 8.51064 30.134 8.60663 29.6364 8.78304V7.97872L29.6312 7.75337C29.5139 5.21408 27.4242 3.19149 24.8636 3.19149C24.2428 3.19149 23.6496 3.3104 23.1056 3.52674Z" fill="#40404B"/>
<path d="M35.2782 42.3497L35.2693 43.6419C35.2693 45.442 34.6722 46.9035 33.478 48.0264C32.2839 49.1492 30.7244 49.7107 28.8084 49.7107C26.8479 49.7107 25.226 49.0779 23.9338 47.8036C22.6416 46.5292 22 44.943 22 43.0448C22 41.1734 22.6416 39.605 23.9249 38.3307C25.2081 37.0563 26.7944 36.4236 28.6926 36.4236C30.1986 36.4236 31.4908 36.789 32.5691 37.5286C33.6474 38.2683 34.3959 39.204 34.8148 40.3357L32.4978 40.9952C31.7759 39.5248 30.5105 38.7851 28.7015 38.7851C27.4806 38.7851 26.4825 39.1951 25.6983 40.0238C24.9141 40.8526 24.522 41.8596 24.522 43.0448C24.522 44.2657 24.923 45.2905 25.725 46.1282C26.5271 46.9659 27.6143 47.3848 28.9866 47.3848C30.0204 47.3848 30.867 47.1085 31.5264 46.5649C32.1859 46.0213 32.5691 45.3351 32.6849 44.5063H28.7549V42.3497H35.2782Z" fill="#40404B"/>
<path fill-rule="evenodd" clip-rule="evenodd" d="M43.2986 49.7107H43.2897C41.3648 49.7107 39.7696 49.0779 38.4953 47.8036C37.2209 46.5292 36.5793 44.943 36.5793 43.0448C36.5793 41.1645 37.2209 39.5872 38.4953 38.3217C39.7696 37.0563 41.3737 36.4236 43.2986 36.4236C45.2235 36.4236 46.8186 37.0563 48.093 38.3217C49.3673 39.5872 50 41.1645 50 43.0448C50 44.943 49.3673 46.5292 48.093 47.8036C46.8186 49.0779 45.2235 49.7107 43.2986 49.7107ZM43.2807 47.3937V47.4026C44.5194 47.4026 45.5265 46.9837 46.3018 46.155C47.0771 45.3262 47.4603 44.2925 47.4603 43.0538C47.4603 41.8329 47.0771 40.8081 46.3018 39.9793C45.5265 39.1505 44.5194 38.7406 43.2807 38.7406C42.042 38.7406 41.035 39.1505 40.2597 39.9793C39.4844 40.8081 39.1012 41.8329 39.1012 43.0538C39.1012 44.2925 39.4844 45.3262 40.2597 46.155C41.035 46.9837 42.042 47.3937 43.2807 47.3937Z" fill="#40404B"/>
</svg>
