<svg width="50" height="50" viewBox="0 0 50 50" fill="none" xmlns="http://www.w3.org/2000/svg">
<path fill-rule="evenodd" clip-rule="evenodd" d="M5.62605 29.6476C2.51887 29.6476 -2.12868e-07 27.1302 -3.48609e-07 24.0248L-1.15298e-06 5.62281C-1.28872e-06 2.51742 2.51887 -1.10103e-07 5.62605 -2.45922e-07L24.0386 -1.05076e-06C27.1458 -1.18658e-06 29.6646 2.51742 29.6646 5.62281L29.6646 14.8238C29.6646 15.6707 28.9777 16.3573 28.1302 16.3573C27.2828 16.3573 26.5959 15.6707 26.5959 14.8238L26.5959 5.62281C26.5959 4.21127 25.4509 3.06699 24.0386 3.06699L5.62605 3.06699C4.21369 3.06699 3.06875 4.21127 3.06875 5.62281L3.06875 24.0248C3.06875 25.4363 4.21369 26.5806 5.62605 26.5806L14.8323 26.5806C15.6797 26.5806 16.3667 27.2672 16.3667 28.1141C16.3667 28.961 15.6797 29.6476 14.8323 29.6476L5.62605 29.6476ZM20.2515 30.4665C20.2515 29.6196 20.9385 28.933 21.7859 28.933L26.7613 28.933L14.5528 16.7315C13.9535 16.1326 13.9535 15.1616 14.5528 14.5628C15.152 13.9639 16.1235 13.9639 16.7227 14.5628L28.9312 26.7643L28.9312 21.7917C28.9312 20.9448 29.6182 20.2582 30.4656 20.2582C31.313 20.2583 32 20.9448 32 21.7917L32 30.4665L32 32L30.4656 32L21.7859 32C20.9385 32 20.2515 31.3134 20.2515 30.4665Z" fill="#40404B"/>
<path fill-rule="evenodd" clip-rule="evenodd" d="M12.0465 45.2106V36.5H3.31758V38.7509H9.49372V45.1192C9.49372 45.842 9.27412 46.4459 8.83493 46.9217C8.39574 47.3975 7.801 47.6354 7.05071 47.6354C6.38277 47.6354 5.82463 47.4524 5.37629 47.0864C4.92795 46.7204 4.59856 46.2354 4.39726 45.6224L2 46.3178C2.37514 47.4158 2.99733 48.285 3.86657 48.9255C4.7358 49.566 5.81548 49.8862 7.10561 49.8862C8.60619 49.8862 9.80481 49.4653 10.7015 48.6144C11.5982 47.7635 12.0465 46.6289 12.0465 45.2106ZM23.3833 49.6209L22.3128 46.7753H16.4111L15.3223 49.6209H12.6597L17.6829 36.5H21.0226L26.0642 49.6209H23.3833ZM17.2529 44.5061H21.4527L19.3482 38.9613L17.2529 44.5061ZM37.8945 36.5H35.0672L31.3158 46.3635L27.5644 36.5H24.7371L29.9067 49.6209H32.7249L37.8945 36.5ZM46.2485 46.7753L47.3191 49.6209H50L44.9584 36.5H41.6187L36.5955 49.6209H39.2581L40.3469 46.7753H46.2485ZM45.3885 44.5061H41.1887L43.284 38.9613L45.3885 44.5061Z" fill="#40404B"/>
</svg>
