<svg width="50" height="50" viewBox="0 0 50 50" fill="none" xmlns="http://www.w3.org/2000/svg">
<path d="M28.9229 31.7431C28.0768 31.7431 27.3909 31.058 27.3909 30.213C27.3909 29.3679 28.0768 28.6829 28.9229 28.6829C30.8314 28.6829 32.3906 27.1892 32.4924 25.3085L32.4977 25.1126V22.0931C32.4977 19.5936 33.6739 17.3255 35.548 15.8715C33.6739 14.4175 32.4977 12.1494 32.4977 9.64986V6.63039L32.4924 6.4345C32.3906 4.55379 30.8314 3.06012 28.9229 3.06012C28.0768 3.06012 27.3909 2.37506 27.3909 1.52999C27.3909 0.684937 28.0768 -0.000122144 28.9229 -0.00012207C32.5895 -0.00012175 35.5618 2.96846 35.5618 6.63039V9.64986L35.5668 9.87092C35.6669 12.0654 37.2487 13.9262 39.421 14.3677C39.4591 14.3749 39.4968 14.3835 39.534 14.3935C39.8391 14.4751 40.1001 14.6448 40.2946 14.8693C40.4029 14.994 40.4921 15.1373 40.5562 15.2955C40.6295 15.4754 40.6692 15.6704 40.6689 15.8715C40.6692 16.0725 40.6295 16.2676 40.5562 16.4475C40.4921 16.6056 40.4029 16.749 40.2946 16.8736C40.1001 17.0982 39.8391 17.2679 39.534 17.3494C39.4968 17.3595 39.4591 17.3681 39.421 17.3753C37.2487 17.8168 35.6669 19.6776 35.5668 21.8721L35.5618 22.0931V25.1126C35.5618 28.7745 32.5895 31.7431 28.9229 31.7431Z" fill="#40404B"/>
<path d="M11.746 -6.00083e-05C12.5922 -6.00083e-05 13.2781 0.684998 13.2781 1.53006C13.2781 2.37512 12.5922 3.06018 11.746 3.06018C9.83754 3.06018 8.27836 4.55386 8.17653 6.43456L8.17124 6.63046V9.64992C8.17124 12.1494 6.99502 14.4175 5.12092 15.8716C6.99502 17.3256 8.17124 19.5937 8.17124 22.0932V25.1127L8.17653 25.3085C8.27836 27.1893 9.83754 28.6829 11.746 28.6829C12.5922 28.6829 13.2781 29.368 13.2781 30.213C13.2781 31.0581 12.5922 31.7432 11.746 31.7432C8.07947 31.7432 5.10714 28.7746 5.10714 25.1127V22.0932L5.10211 21.8721C5.00208 19.6777 3.42028 17.8168 1.24793 17.3753C1.20984 17.3681 1.17217 17.3595 1.13496 17.3495C0.829868 17.268 0.56889 17.0982 0.374394 16.8737C0.266003 16.749 0.176893 16.6057 0.112742 16.4475C0.0394183 16.2677 -0.000232403 16.0726 1.02479e-06 15.8716C-0.00023239 15.6705 0.0394183 15.4754 0.112742 15.2956C0.176893 15.1374 0.266003 14.9941 0.374394 14.8694C0.56889 14.6449 0.829868 14.4751 1.13496 14.3936C1.17217 14.3836 1.20985 14.375 1.24793 14.3678C3.42028 13.9263 5.00208 12.0654 5.10211 9.87098L5.10714 9.64992V6.63046C5.10714 2.96852 8.07947 -6.00083e-05 11.746 -6.00083e-05Z" fill="#40404B"/>
<path d="M14.3208 23.012C15.1669 23.012 15.8529 22.3269 15.8529 21.4818C15.8529 20.6368 15.1669 19.9517 14.3208 19.9517C13.4747 19.9517 12.7888 20.6368 12.7888 21.4818C12.7888 22.3269 13.4747 23.012 14.3208 23.012Z" fill="#40404B"/>
<path d="M20.449 23.012C21.2952 23.012 21.9811 22.3269 21.9811 21.4818C21.9811 20.6368 21.2952 19.9517 20.449 19.9517C19.6029 19.9517 18.917 20.6368 18.917 21.4818C18.917 22.3269 19.6029 23.012 20.449 23.012Z" fill="#40404B"/>
<path d="M28.1093 21.4818C28.1093 22.3269 27.4234 23.012 26.5772 23.012C25.7311 23.012 25.0452 22.3269 25.0452 21.4818C25.0452 20.6368 25.7311 19.9517 26.5772 19.9517C27.4234 19.9517 28.1093 20.6368 28.1093 21.4818Z" fill="#40404B"/>
<path fill-rule="evenodd" clip-rule="evenodd" d="M12.0465 45.2106V36.5H3.31758V38.7509H9.49372V45.1192C9.49372 45.842 9.27412 46.4459 8.83493 46.9217C8.39574 47.3975 7.801 47.6354 7.05071 47.6354C6.38277 47.6354 5.82463 47.4524 5.37629 47.0864C4.92795 46.7204 4.59856 46.2354 4.39726 45.6224L2 46.3178C2.37514 47.4158 2.99733 48.285 3.86657 48.9255C4.7358 49.566 5.81548 49.8862 7.10561 49.8862C8.60619 49.8862 9.80481 49.4653 10.7015 48.6144C11.5982 47.7635 12.0465 46.6289 12.0465 45.2106ZM23.3833 49.6209L22.3128 46.7753H16.4111L15.3223 49.6209H12.6597L17.6829 36.5H21.0226L26.0642 49.6209H23.3833ZM17.2529 44.5061H21.4527L19.3482 38.9613L17.2529 44.5061ZM37.8945 36.5H35.0672L31.3158 46.3635L27.5644 36.5H24.7371L29.9067 49.6209H32.7249L37.8945 36.5ZM46.2485 46.7753L47.3191 49.6209H50L44.9584 36.5H41.6187L36.5955 49.6209H39.2581L40.3469 46.7753H46.2485ZM45.3885 44.5061H41.1887L43.284 38.9613L45.3885 44.5061Z" fill="#40404B"/>
</svg>
