<svg width="50" height="50" viewBox="0 0 50 50" fill="none" xmlns="http://www.w3.org/2000/svg">
<path fill-rule="evenodd" clip-rule="evenodd" d="M34.5 6C34.5 8.79576 32.5878 11.1449 30 11.811V14.6233C30.858 14.7686 31.7094 15.0419 32.5283 15.4518C33.2567 15.8164 33.9141 16.2664 34.4943 16.7837L38.0254 13.9589C37.6878 13.2085 37.5 12.3762 37.5 11.5C37.5 8.18629 40.1863 5.5 43.5 5.5C46.8137 5.5 49.5 8.18629 49.5 11.5C49.5 14.8137 46.8137 17.5 43.5 17.5C42.1494 17.5 40.9031 17.0538 39.9004 16.3007L36.3673 19.1272C37.7001 21.5303 37.9129 24.5031 36.7158 27.1745L39.1911 28.8247C40.2817 27.6994 41.8092 27 43.5 27C46.8137 27 49.5 29.6863 49.5 33C49.5 36.3137 46.8137 39 43.5 39C40.1863 39 37.5 36.3137 37.5 33C37.5 32.4602 37.5713 31.937 37.705 31.4394L35.0536 29.6719C32.6455 32.2311 28.8937 33.1905 25.4983 31.9854C24.7175 31.7083 24.3093 30.8508 24.5864 30.0701C24.8635 29.2894 25.721 28.8811 26.5017 29.1582C29.3136 30.1562 32.4954 28.9225 33.8654 26.1855C35.3486 23.2222 34.1487 19.6177 31.1855 18.1345C30.3405 17.7115 29.443 17.5068 28.5573 17.4989C28.5383 17.4996 28.5192 17.5 28.5 17.5C28.4814 17.5 28.4629 17.4997 28.4445 17.499C26.6082 17.5174 24.8348 18.3806 23.6995 19.8984C23.2033 20.5617 22.2633 20.6973 21.5999 20.2011C20.9365 19.7048 20.801 18.7648 21.2972 18.1014C22.7066 16.2171 24.7698 15.0041 27 14.6251V11.811C24.4122 11.1449 22.5 8.79576 22.5 6C22.5 2.68629 25.1863 0 28.5 0C31.8137 0 34.5 2.68629 34.5 6ZM28.5 3C26.8431 3 25.5 4.34315 25.5 6C25.5 7.65685 26.8431 9 28.5 9C30.1569 9 31.5 7.65685 31.5 6C31.5 4.34315 30.1569 3 28.5 3ZM43.5 8.5C41.8431 8.5 40.5 9.84315 40.5 11.5C40.5 13.1569 41.8431 14.5 43.5 14.5C45.1569 14.5 46.5 13.1569 46.5 11.5C46.5 9.84315 45.1569 8.5 43.5 8.5ZM40.5 33C40.5 31.3431 41.8431 30 43.5 30C45.1569 30 46.5 31.3431 46.5 33C46.5 34.6569 45.1569 36 43.5 36C41.8431 36 40.5 34.6569 40.5 33Z" fill="#40404B"/>
<path fill-rule="evenodd" clip-rule="evenodd" d="M7.22581 27.6596C7.22581 23.4293 10.692 20 14.9677 20C19.2435 20 22.7097 23.4293 22.7097 27.6596C22.7097 29.7411 21.8705 31.6287 20.5085 33.0092C26.354 34.7424 29.9355 39.3798 29.9355 46.0426C29.9355 48.1701 28.8392 49.617 26.8395 49.617H3.10421C1.10129 49.617 0 48.1712 0 46.0426C0 39.3798 3.58148 34.7424 9.42697 33.0092C8.06503 31.6287 7.22581 29.7411 7.22581 27.6596ZM19.6129 27.6596C19.6129 25.1214 17.5332 23.0638 14.9677 23.0638C12.4023 23.0638 10.3226 25.1214 10.3226 27.6596C10.3226 30.1977 12.4023 32.2553 14.9677 32.2553C17.5332 32.2553 19.6129 30.1977 19.6129 27.6596ZM26.8387 46.0426C26.8387 39.2504 22.3767 35.3191 14.9677 35.3191C7.55876 35.3191 3.09677 39.2504 3.09677 46.0426C3.09677 46.2783 3.11633 46.4437 3.13761 46.5434L3.1391 46.5532H26.7954C26.8148 46.4654 26.8308 46.343 26.8365 46.1761L26.8387 46.0426Z" fill="#40404B"/>
</svg>
