<svg width="50" height="50" viewBox="0 0 50 50" fill="none" xmlns="http://www.w3.org/2000/svg">
<path fill-rule="evenodd" clip-rule="evenodd" d="M23.8362 15.6941L38.7641 1.65566C41.1642 -0.601421 44.925 -0.543797 47.2547 1.78576C49.5824 4.11329 49.5817 7.88535 47.2532 10.212L32.2708 25.1823H23.8362V15.6941ZM45.0512 8.01184C46.1176 6.9463 46.1623 5.2464 45.1852 4.12764L45.052 3.98511C43.9123 2.84549 42.0725 2.8173 40.8983 3.92146L26.9492 17.0394V22.0708H30.9797L45.0512 8.01184Z" fill="#40404B"/>
<path fill-rule="evenodd" clip-rule="evenodd" d="M13.9751 20.1451C16.3272 20.1451 18.5866 20.3919 20.5419 20.8532C21.3788 21.0506 21.8971 21.8885 21.6995 22.7247C21.5019 23.561 20.6633 24.0788 19.8264 23.8814C18.1131 23.4773 16.0931 23.2566 13.9751 23.2566C13.175 23.2566 12.3986 23.2904 11.6559 23.3513L11.0278 23.4099C10.9246 23.4207 10.8221 23.4321 10.7204 23.4439L10.1198 23.5207C10.0214 23.5344 9.92372 23.5486 9.82695 23.5632L9.25698 23.6559L8.7092 23.7581C8.61983 23.7759 8.53145 23.794 8.44408 23.8125L7.93225 23.9271L7.44617 24.0489C7.36738 24.0697 7.28972 24.0908 7.21323 24.1121L6.76841 24.2428C6.62494 24.2872 6.48635 24.3324 6.35288 24.3782L5.96804 24.5174C4.7995 24.9634 4.11402 25.4524 4.11402 25.8495C4.11402 26.2467 4.7995 26.7357 5.96804 27.1816L6.35288 27.3208C6.48635 27.3667 6.62494 27.4119 6.76841 27.4563L7.21323 27.5869C7.28972 27.6083 7.36738 27.6293 7.44617 27.6502L7.93225 27.7719L8.44408 27.8866C8.53145 27.9051 8.61983 27.9232 8.7092 27.9409L9.25698 28.0432L9.82695 28.1359C9.92372 28.1505 10.0214 28.1647 10.1198 28.1784L10.7204 28.2552C10.8221 28.267 10.9246 28.2783 11.0278 28.2891L11.6559 28.3478C12.3986 28.4086 13.175 28.4425 13.9751 28.4425C16.3468 28.4425 18.5922 28.1655 20.4141 27.6684C21.2437 27.4421 22.0998 27.9306 22.3263 28.7595C22.5528 29.5884 22.0639 30.4438 21.2343 30.6701C19.1338 31.2431 16.6138 31.554 13.9751 31.554C12.3779 31.554 10.8449 31.4472 9.42744 31.2412L8.78165 31.1391C6.97608 30.8301 5.38182 30.3533 4.11402 29.7258V33.9982C4.11402 34.3954 4.7995 34.8844 5.96804 35.3303L6.35288 35.4695C6.48635 35.5153 6.62494 35.5605 6.76841 35.6049L7.21323 35.7356C7.28972 35.7569 7.36738 35.778 7.44617 35.7989L7.93225 35.9206L8.44408 36.0353C8.53145 36.0537 8.61983 36.0719 8.7092 36.0896L9.25698 36.1918L9.82695 36.2846C9.92372 36.2992 10.0214 36.3134 10.1198 36.3271L10.7204 36.4038C10.8221 36.4157 10.9246 36.427 11.0278 36.4378L11.6559 36.4965C12.3986 36.5573 13.175 36.5911 13.9751 36.5911C14.7752 36.5911 15.5516 36.5573 16.2943 36.4965L16.9223 36.4378C17.0256 36.427 17.128 36.4157 17.2297 36.4038L17.8304 36.3271C17.9288 36.3134 18.0265 36.2992 18.1232 36.2846L18.6932 36.1918L19.241 36.0896C19.3304 36.0719 19.4187 36.0537 19.5061 36.0353L20.0179 35.9206L20.504 35.7989C20.5828 35.778 20.6605 35.7569 20.737 35.7356L21.1818 35.6049C21.3252 35.5605 21.4638 35.5153 21.5973 35.4695L21.9821 35.3303C23.1385 34.889 23.8218 34.4055 23.8359 34.0107V32.9654C23.8359 32.1062 24.533 31.4097 25.3929 31.4097C26.2023 31.4097 26.8674 32.0267 26.9428 32.8156L26.95 32.9654V33.9716C26.9501 33.9804 26.9502 33.9893 26.9502 33.9982C26.9502 34.011 26.9501 34.0237 26.95 34.0365V42.2956H26.9502C26.9502 44.9491 23.7352 46.8035 19.1685 47.5852L18.5227 47.6873C17.1053 47.8932 15.5723 48 13.9751 48C12.3779 48 10.8449 47.8932 9.42744 47.6873L8.78165 47.5852C4.32117 46.8217 1.15026 45.0348 1.00519 42.4794L1 42.2956V33.9982V25.8495V25.7009H1.00339C1.12125 23.1267 4.30075 21.3269 8.78165 20.5599L9.42744 20.4578C10.8449 20.2519 12.3779 20.1451 13.9751 20.1451ZM23.836 42.2972L23.8359 42.2956V37.8746C22.5682 38.5021 20.974 38.9788 19.1685 39.2878L18.5227 39.3899C17.1053 39.5959 15.5723 39.7026 13.9751 39.7026C12.3779 39.7026 10.8449 39.5959 9.42744 39.3899L8.78165 39.2878C6.97608 38.9787 5.38182 38.502 4.11402 37.8745V42.2956C4.11402 42.6927 4.7995 43.1817 5.96804 43.6276L6.35288 43.7669C6.48635 43.8127 6.62494 43.8579 6.76841 43.9023L7.21323 44.033C7.28972 44.0543 7.36738 44.0754 7.44617 44.0962L7.93225 44.218L8.44408 44.3326C8.53145 44.3511 8.61983 44.3692 8.7092 44.387L9.25698 44.4892L9.82695 44.5819C9.92372 44.5965 10.0214 44.6107 10.1198 44.6244L10.7204 44.7012C10.8221 44.713 10.9246 44.7244 11.0278 44.7352L11.6559 44.7938C12.3986 44.8547 13.175 44.8885 13.9751 44.8885C14.7752 44.8885 15.5516 44.8547 16.2943 44.7938L16.9223 44.7352C17.0256 44.7244 17.128 44.713 17.2297 44.7012L17.8304 44.6244C17.9288 44.6107 18.0265 44.5965 18.1232 44.5819L18.6932 44.4892L19.241 44.387C19.3304 44.3692 19.4187 44.3511 19.5061 44.3326L20.0179 44.218L20.504 44.0962C20.5828 44.0754 20.6605 44.0543 20.737 44.033L21.1818 43.9023C21.3252 43.8579 21.4638 43.8127 21.5973 43.7669L21.9821 43.6276C23.0892 43.2052 23.7627 42.7441 23.8305 42.359L23.836 42.2972Z" fill="#40404B"/>
</svg>
