<svg width="50" height="50" viewBox="0 0 50 50" fill="none" xmlns="http://www.w3.org/2000/svg">
<path fill-rule="evenodd" clip-rule="evenodd" d="M38.5 0.5C35.7052 0.5 33.1014 1.03349 31.1404 1.96241C29.2937 2.83714 27.5 4.34028 27.5 6.5C27.5 6.60394 27.5042 6.70635 27.5123 6.80725C27.5042 6.87036 27.5 6.93469 27.5 7V20C27.5 22.2147 29.1783 23.86 31.0839 24.8629C33.0588 25.9023 35.6833 26.5 38.5 26.5C41.3168 26.5 43.9413 25.9023 45.9162 24.8629C47.8218 23.86 49.5 22.2147 49.5 20L49.5 13.0142C49.5 13.0094 49.5 13.0047 49.5 13L49.5 7C49.5 6.93473 49.4958 6.87043 49.4877 6.80736C49.4959 6.70643 49.5 6.60397 49.5 6.5C49.5 4.34028 47.7063 2.83714 45.8597 1.96241C43.8986 1.03349 41.2949 0.5 38.5 0.5ZM46.5 10.7063C46.2891 10.8253 46.0747 10.9357 45.8597 11.0376C43.8986 11.9665 41.2949 12.5 38.5 12.5C35.7052 12.5 33.1014 11.9665 31.1404 11.0376C30.9253 10.9357 30.7109 10.8253 30.5 10.7063V13C30.5 13.5467 30.9484 14.4015 32.4811 15.2082C33.9446 15.9784 36.0701 16.5 38.5 16.5C40.93 16.5 43.0555 15.9784 44.5189 15.2082C46.0453 14.4048 46.4963 13.5538 46.5 13.0068V10.7063ZM46.5 17.5303C46.3089 17.648 46.1138 17.7589 45.9162 17.8629C43.9413 18.9023 41.3168 19.5 38.5 19.5C35.6833 19.5 33.0588 18.9023 31.0839 17.8629C30.8863 17.7589 30.6911 17.648 30.5 17.5303V20C30.5 20.5467 30.9484 21.4015 32.4811 22.2082C33.9446 22.9784 36.0701 23.5 38.5 23.5C40.93 23.5 43.0555 22.9784 44.5189 22.2082C46.0467 21.4041 46.4971 20.5522 46.5 20.0053L46.5 20L46.5 17.5303ZM30.5 6.5C30.5 6.17444 30.833 5.42758 32.4246 4.67363C33.9019 3.97387 36.0482 3.5 38.5 3.5C40.9519 3.5 43.0981 3.97387 44.5754 4.67363C46.1671 5.42758 46.5 6.17444 46.5 6.5C46.5 6.82556 46.1671 7.57242 44.5754 8.32637C43.0981 9.02613 40.9519 9.5 38.5 9.5C36.0482 9.5 33.9019 9.02613 32.4246 8.32637C30.833 7.57242 30.5 6.82556 30.5 6.5Z" fill="#40404B"/>
<path fill-rule="evenodd" clip-rule="evenodd" d="M1.61576 29.2718C-0.0685607 28.3037 -0.0801709 25.7408 1.59531 24.7556L17.4177 15.4518C19.0244 14.507 20.9757 14.507 22.5824 15.4518L23.1106 15.7624C23.8132 16.1755 24.0674 17.1154 23.6785 17.8617C23.2895 18.608 22.4046 18.8781 21.702 18.4649L21.1738 18.1543C20.4435 17.7249 19.5566 17.7249 18.8263 18.1543L3.77864 27.0026L18.8467 35.6628C19.5663 36.0764 20.4338 36.0764 21.1534 35.6628L28.9425 31.1861L32.4794 29.2245C33.1913 28.8297 34.0697 29.1226 34.4414 29.8787C34.8132 30.6349 34.5374 31.5679 33.8255 31.9627L33.0315 32.4031L38.4048 35.5627C40.0803 36.5479 40.0687 39.1108 38.3843 40.0788L22.5374 49.1867C20.9543 50.0966 19.0458 50.0966 17.4627 49.1867L1.61576 40.0788C-0.068561 39.1108 -0.080171 36.5479 1.59531 35.5627L7.01573 32.3754L1.61576 29.2718ZM22.5374 38.3797L29.9478 34.1206L36.2215 37.8096L21.1534 46.4699C20.4338 46.8834 19.5663 46.8834 18.8467 46.4699L3.77864 37.8096L10.0523 34.1206L17.4627 38.3797C19.0458 39.2895 20.9543 39.2895 22.5374 38.3797Z" fill="#40404B"/>
</svg>
