<svg width="50" height="50" viewBox="0 0 50 50" fill="none" xmlns="http://www.w3.org/2000/svg">
<path d="M3.12253 11.0806L9.62971 11.1251L11.1329 11.1329L11.1251 9.6302L11.0806 3.12253C11.0762 2.29258 10.3999 1.61626 9.56995 1.61191C8.79188 1.60784 8.15501 2.19582 8.08203 2.95319L8.07507 3.1068L8.10074 5.98666L2.55981 0.445729C1.96988 -0.144203 1.01839 -0.149186 0.434603 0.434603C-0.114845 0.98405 -0.142752 1.85921 0.347696 2.4521L0.445729 2.55981L5.98666 8.10074L3.1068 8.07507C2.32872 8.071 1.69185 8.65898 1.61887 9.41635L1.61191 9.56995C1.61599 10.348 2.21067 10.9911 2.96884 11.072L3.12253 11.0806Z" fill="#40404B"/>
<path d="M20.9284 26.9079C22.0292 26.9079 22.9215 26.0155 22.9215 24.9147C22.9215 23.8139 22.0292 22.9215 20.9284 22.9215C19.8276 22.9215 18.9352 23.8139 18.9352 24.9147C18.9352 26.0155 19.8276 26.9079 20.9284 26.9079Z" fill="#40404B"/>
<path d="M31.8908 24.9147C31.8908 26.0155 30.9985 26.9079 29.8977 26.9079C28.7969 26.9079 27.9045 26.0155 27.9045 24.9147C27.9045 23.8139 28.7969 22.9215 29.8977 22.9215C30.9985 22.9215 31.8908 23.8139 31.8908 24.9147Z" fill="#40404B"/>
<path fill-rule="evenodd" clip-rule="evenodd" d="M35.0091 34.2603C37.8264 33.7206 39.8636 31.2562 39.8636 28.3876V19.9318C39.8636 16.6294 37.1864 13.9522 33.884 13.9522H16.942C13.6396 13.9522 10.9625 16.6294 10.9625 19.9318V38.867L35.0091 34.2603ZM33.884 16.942H16.942C15.2908 16.942 13.9522 18.2806 13.9522 19.9318V35.2501L34.4465 31.324C35.8552 31.0541 36.8738 29.8219 36.8738 28.3876V19.9318C36.8738 18.2806 35.5352 16.942 33.884 16.942Z" fill="#40404B"/>
<path d="M40.3703 38.8749L46.8775 38.9194L47.0312 38.928C47.7893 39.0089 48.384 39.652 48.3881 40.43L48.3811 40.5837C48.3081 41.341 47.6713 41.929 46.8932 41.9249L44.0133 41.8993L49.5543 47.4402L49.6523 47.5479C50.1428 48.1408 50.1148 49.0159 49.5654 49.5654C48.9816 50.1492 48.0301 50.1442 47.4402 49.5543L41.8993 44.0133L41.9249 46.8932L41.918 47.0468C41.845 47.8042 41.2081 48.3922 40.43 48.3881C39.6001 48.3837 38.9238 47.7074 38.9194 46.8775L38.8749 40.3698L38.8671 38.867L40.3703 38.8749Z" fill="#40404B"/>
<path d="M3.12253 38.9194L9.62971 38.8749L11.1329 38.8671L11.1251 40.3698L11.0806 46.8775C11.0762 47.7074 10.3999 48.3837 9.56995 48.3881C8.79188 48.3922 8.15501 47.8042 8.08203 47.0468L8.07507 46.8932L8.10074 44.0133L2.55981 49.5543C1.96988 50.1442 1.01839 50.1492 0.434603 49.5654C-0.114845 49.0159 -0.142752 48.1408 0.347696 47.5479L0.445729 47.4402L5.98666 41.8993L3.1068 41.9249C2.32872 41.929 1.69185 41.341 1.61887 40.5837L1.61191 40.43C1.61599 39.652 2.21067 39.0089 2.96884 38.928L3.12253 38.9194Z" fill="#40404B"/>
<path d="M40.3703 11.1251L46.8775 11.0806L47.0312 11.072C47.7893 10.9911 48.384 10.348 48.3881 9.56995L48.3811 9.41635C48.3081 8.65898 47.6713 8.071 46.8932 8.07507L44.0133 8.10074L49.5543 2.55981L49.6523 2.4521C50.1428 1.85921 50.1148 0.98405 49.5654 0.434603C48.9816 -0.149186 48.0301 -0.144203 47.4402 0.44573L41.8993 5.98666L41.9249 3.1068L41.918 2.95319C41.845 2.19582 41.2081 1.60784 40.43 1.61191C39.6001 1.61626 38.9238 2.29258 38.9194 3.12253L38.8749 9.6302L38.8671 11.133L40.3703 11.1251Z" fill="#40404B"/>
</svg>
