<svg width="50" height="50" viewBox="0 0 50 50" fill="none" xmlns="http://www.w3.org/2000/svg">
<path fill-rule="evenodd" clip-rule="evenodd" d="M38.5495 1.11627C38.7191 0.473745 39.3042 0 40 0C40.6958 0 41.2809 0.473745 41.4505 1.11627C45.7314 1.80988 49 5.52322 49 10V20H31V10C31 5.52322 34.2686 1.80988 38.5495 1.11627ZM46 10V17H34V10C34 6.68629 36.6863 4 40 4C43.3137 4 46 6.68629 46 10Z" fill="#40404B"/>
<path fill-rule="evenodd" clip-rule="evenodd" d="M9.5 14.5C6.18629 14.5 3.5 17.1863 3.5 20.5C3.5 23.2958 5.41216 25.6449 8 26.311V29.6244C3.74343 30.3386 0.5 34.0405 0.5 38.5C0.5 43.4706 4.52944 47.5 9.5 47.5C12.0822 47.5 14.4104 46.4125 16.0517 44.6706L19.6686 47.0818C19.5584 47.5365 19.5 48.0114 19.5 48.5C19.5 49.3284 20.1716 50 21 50C21.8284 50 22.5 49.3284 22.5 48.5C22.5 46.8431 23.8431 45.5 25.5 45.5C27.1569 45.5 28.5 46.8431 28.5 48.5C28.5 49.3284 29.1716 50 30 50C30.8284 50 31.5 49.3284 31.5 48.5C31.5 45.1863 28.8137 42.5 25.5 42.5C23.7586 42.5 22.1904 43.2419 21.0944 44.4268L17.7176 42.1757C18.2204 41.0534 18.5 39.8093 18.5 38.5C18.5 36.9127 18.0891 35.4214 17.3679 34.1266L20.9003 31.3007C21.9031 32.0538 23.1494 32.5 24.5 32.5C27.8137 32.5 30.5 29.8137 30.5 26.5C30.5 23.1863 27.8137 20.5 24.5 20.5C21.1863 20.5 18.5 23.1863 18.5 26.5C18.5 27.3761 18.6878 28.2084 19.0253 28.9588L15.4926 31.785C14.2546 30.6794 12.7089 29.9111 11 29.6244V26.311C13.5878 25.6449 15.5 23.2958 15.5 20.5C15.5 17.1863 12.8137 14.5 9.5 14.5ZM6.5 20.5C6.5 18.8431 7.84315 17.5 9.5 17.5C11.1569 17.5 12.5 18.8431 12.5 20.5C12.5 22.1569 11.1569 23.5 9.5 23.5C7.84315 23.5 6.5 22.1569 6.5 20.5ZM3.5 38.5C3.5 35.1863 6.18629 32.5 9.5 32.5C12.8137 32.5 15.5 35.1863 15.5 38.5C15.5 41.8137 12.8137 44.5 9.5 44.5C6.18629 44.5 3.5 41.8137 3.5 38.5ZM21.5 26.5C21.5 24.8431 22.8431 23.5 24.5 23.5C26.1569 23.5 27.5 24.8431 27.5 26.5C27.5 28.1569 26.1569 29.5 24.5 29.5C22.8431 29.5 21.5 28.1569 21.5 26.5Z" fill="#40404B"/>
<path d="M40 24C40.8284 24 41.5 23.3284 41.5 22.5C41.5 21.6716 40.8284 21 40 21C39.1716 21 38.5 21.6716 38.5 22.5C38.5 23.3284 39.1716 24 40 24Z" fill="#40404B"/>
</svg>
