<svg width="50" height="50" viewBox="0 0 50 50" fill="none" xmlns="http://www.w3.org/2000/svg">
<path d="M9.1084 10.5185C13.0425 6.20397 18.7044 3.5 25 3.5C25.8284 3.5 26.5 2.82843 26.5 2C26.5 1.17157 25.8284 0.5 25 0.5C17.8259 0.5 11.3702 3.58546 6.8916 8.49717C2.92233 12.8503 0.5 18.644 0.5 25C0.5 25.8284 1.17157 26.5 2 26.5C2.82843 26.5 3.5 25.8284 3.5 25C3.5 19.4206 5.62326 14.3407 9.1084 10.5185Z" fill="#40404B"/>
<path d="M49.5 25C49.5 24.1716 48.8284 23.5 48 23.5C47.1716 23.5 46.5 24.1716 46.5 25C46.5 30.8134 44.1947 36.0852 40.4453 39.9564C36.5351 43.9935 31.0616 46.5 25 46.5C24.1716 46.5 23.5 47.1716 23.5 48C23.5 48.8284 24.1716 49.5 25 49.5C31.9069 49.5 38.1483 46.64 42.6002 42.0436C46.8698 37.6354 49.5 31.6233 49.5 25Z" fill="#40404B"/>
<path d="M13.4949 12.3956C14.1048 12.9561 14.1449 13.905 13.5843 14.515C11.0471 17.2759 9.5 20.9556 9.5 25C9.5 25.8284 8.82843 26.5 8 26.5C7.17157 26.5 6.5 25.8284 6.5 25C6.5 20.1746 8.34942 15.7777 11.3754 12.485C11.936 11.8751 12.8849 11.835 13.4949 12.3956Z" fill="#40404B"/>
<path d="M42 23.5C42.8284 23.5 43.5 24.1716 43.5 25C43.5 29.837 41.6417 34.2434 38.6027 37.5388C38.0411 38.1478 37.0921 38.1862 36.4831 37.6245C35.8741 37.0629 35.8357 36.1139 36.3973 35.505C38.9455 32.7418 40.5 29.0542 40.5 25C40.5 24.1716 41.1716 23.5 42 23.5Z" fill="#40404B"/>
<path d="M23 24.5C23 25.3284 22.3284 26 21.5 26C20.6716 26 20 25.3284 20 24.5C20 23.6716 20.6716 23 21.5 23C22.3284 23 23 23.6716 23 24.5Z" fill="#40404B"/>
<path d="M28.5 26C29.3284 26 30 25.3284 30 24.5C30 23.6716 29.3284 23 28.5 23C27.6716 23 27 23.6716 27 24.5C27 25.3284 27.6716 26 28.5 26Z" fill="#40404B"/>
<path fill-rule="evenodd" clip-rule="evenodd" d="M32.7155 31.5972C34.6175 31.2514 36 29.5948 36 27.6617V21C36 18.7909 34.2091 17 32 17H18C15.7909 17 14 18.7909 14 21V35L32.7155 31.5972ZM33 21C33 20.4477 32.5523 20 32 20H18C17.4477 20 17 20.4477 17 21V31.4054L32.1789 28.6456C32.6544 28.5591 33 28.145 33 27.6617V21Z" fill="#40404B"/>
</svg>
