<svg width="50" height="50" viewBox="0 0 50 50" fill="none" xmlns="http://www.w3.org/2000/svg">
<path d="M19.2708 0C29.6181 0 38.3071 3.25402 38.537 8.13459L38.5417 8.33333V42.2619L38.4994 42.2617C37.8311 46.9213 29.3354 50 19.2708 50C9.20633 50 0.710676 46.9214 0.0423263 42.2619L0 42.2619V8.33333L0.00466787 8.13459C0.234536 3.25402 8.92356 0 19.2708 0ZM19.2708 3.77778C17.3815 3.77778 15.5893 3.90609 13.9494 4.12957L13.3417 4.21777L12.6322 4.33484C7.86 5.17527 4.67172 6.82936 4.67172 8.33333C4.67172 9.80062 7.70637 11.4108 12.2858 12.2689L12.6322 12.3318L13.3417 12.4489C15.1427 12.7265 17.1453 12.8889 19.2708 12.8889C21.1602 12.8889 22.9524 12.7606 24.5923 12.5371L25.2 12.4489L25.9095 12.3318C30.6817 11.4914 33.87 9.8373 33.87 8.33333C33.87 6.86604 30.8353 5.25587 26.2558 4.39777L25.9095 4.33484L25.2 4.21777C23.399 3.94017 21.3964 3.77778 19.2708 3.77778Z" fill="#5D87A1"/>
<path d="M50 21.875H0V40.625H50V21.875Z" fill="white"/>
<path d="M5.34074 35.7008V30.1512L8.07784 33.9567L10.828 30.1512V35.7008H13.0437V26.2267H10.9322L8.09087 30.4352L5.22996 26.2267H3.125V35.7008H5.34074ZM17.8532 38.5417L21.9002 28.8034H19.6193L17.9509 33.0053L16.1718 28.8034H13.8388L16.8952 35.5357L15.6831 38.5417H17.8532ZM26.6249 35.9321L26.6184 35.8924C27.7589 35.8924 28.6843 35.6083 29.3946 35.0336C30.105 34.4588 30.4569 33.7452 30.4569 32.8864C30.4569 32.153 30.2353 31.5914 29.7921 31.2016C29.349 30.8118 28.7169 30.4881 27.9022 30.2304L25.5496 29.4707C25.1326 29.3451 24.924 29.1205 24.924 28.7968C24.924 28.5721 25.0348 28.3872 25.2629 28.2418C25.491 28.0965 25.7908 28.0238 26.1622 28.0238C26.6119 28.0238 27.0225 28.1295 27.3939 28.3409C27.7654 28.5523 28.0456 28.8232 28.2346 29.1601L30.2744 28.5523C30.0202 27.8586 29.5119 27.2706 28.756 26.7883C28 26.306 27.1267 26.0682 26.1427 26.0682C25.1456 26.0682 24.3179 26.3457 23.6597 26.894C23.0015 27.4424 22.6757 28.1097 22.6822 28.8959C22.6757 29.4905 22.8647 30.0058 23.2557 30.4419C23.6467 30.8779 24.1681 31.2016 24.8197 31.4064L27.2245 32.1596C27.8957 32.3776 28.2281 32.6815 28.2281 33.0713C28.2281 33.3158 28.0912 33.5272 27.824 33.7056C27.5568 33.884 27.2049 33.9699 26.7683 33.9699C26.1818 33.9699 25.68 33.8245 25.2629 33.5338C24.8458 33.2431 24.546 32.8665 24.357 32.3975L22.2456 33.0581C22.5388 33.8642 23.0667 34.5447 23.8292 35.0996C24.5917 35.6546 25.5236 35.9321 26.6249 35.9321ZM36.1787 35.8858C37.0194 35.8792 37.8144 35.6678 38.5704 35.245L38.9549 35.6942L41.112 35.7008L39.8803 34.1747C40.6688 33.2431 41.0599 32.1728 41.0599 30.9638C41.0599 29.5764 40.5841 28.407 39.6327 27.4622C38.6812 26.5174 37.5277 26.0417 36.1787 26.0417C34.8297 26.0417 33.6762 26.5174 32.7247 27.4622C31.7733 28.407 31.2975 29.5764 31.2975 30.9638C31.2975 32.3512 31.7733 33.5206 32.7247 34.4654C33.6762 35.4101 34.8297 35.8858 36.1787 35.8858ZM36.1722 33.8311L36.1787 33.8245C35.3706 33.8245 34.7124 33.5602 34.2106 33.0317C33.7088 32.5032 33.4546 31.8161 33.4546 30.9704C33.4546 30.1247 33.7088 29.4376 34.2106 28.9025C34.7124 28.3673 35.3706 28.1031 36.1787 28.1031C36.9868 28.1031 37.645 28.3673 38.1468 28.8959C38.6486 29.4244 38.8962 30.1181 38.8962 30.9704C38.8962 31.532 38.7789 32.0407 38.5378 32.4966L37.5863 31.3007H35.1164L37.1758 33.6726C36.8695 33.7783 36.5371 33.8311 36.1722 33.8311ZM48.9583 35.7008V33.6461H44.5659V26.2267H42.3502V35.7008H48.9583Z" fill="#40404B"/>
</svg>
