<svg width="50" height="50" viewBox="0 0 50 50" fill="none" xmlns="http://www.w3.org/2000/svg">
<path fill-rule="evenodd" clip-rule="evenodd" d="M38.6552 31.343H36.0656V29H38.6552V31.343ZM32.5512 34.1792H30.0232V31.8362H32.5512V34.1792ZM35.634 34.1792H33.0444V31.8362H35.634V34.1792ZM38.6552 34.1792H36.0656V31.8362H38.6552V34.1792ZM29.53 37.0154H26.9404V34.6724H29.53V37.0154ZM32.5512 37.0154H30.0232V34.6724H32.5512V37.0154ZM35.634 37.0154H33.0444V34.6724H35.634V37.0154ZM38.6552 37.0154H36.0656V34.6724H38.6552V37.0154ZM41.738 37.0154H39.1484V34.6724H41.738V37.0154Z" fill="#066DA5"/>
<path d="M50 35.9672C50 35.9672 48.8902 34.919 46.6089 35.289C46.3623 33.5009 44.4509 32.4528 44.4509 32.4528C44.4509 32.4528 42.6629 34.6108 43.9576 37.0154C43.5877 37.2003 42.9711 37.447 42.0463 37.447H25.0907C24.7824 38.6184 24.7824 46.3872 33.291 46.3872C39.3951 46.3872 43.9576 43.551 46.1156 38.3718C49.3218 38.6184 50 35.9672 50 35.9672Z" fill="#066DA5"/>
<path fill-rule="evenodd" clip-rule="evenodd" d="M12.9318 24.7432C13.2253 24.9122 13.5578 25 13.8926 25L13.8917 24.9952C14.2311 24.9952 14.5636 24.9081 14.8571 24.7384L24.0157 19.4482C24.6073 19.1043 24.9765 18.4645 24.9765 17.7789V7.20774C24.9765 6.51981 24.6073 5.88004 24.0157 5.53837L14.8571 0.245933C14.2815 -0.0819777 13.511 -0.0819777 12.9309 0.245933L3.76085 5.53608C3.16694 5.87545 2.80005 6.51752 2.80005 7.20544V17.7766C2.80005 18.4622 3.16694 19.1043 3.76085 19.4482L6.164 20.8332C7.32889 21.4065 7.74623 21.4065 8.27593 21.4065C9.99804 21.4065 10.9887 20.3632 10.9887 18.547V8.10892C10.9887 7.95987 10.8694 7.84521 10.7249 7.84521H9.56465C9.4156 7.84521 9.29865 7.95987 9.29865 8.10892V18.5424C9.29865 19.3496 8.46626 20.1522 7.10417 19.4711L4.59553 18.0219C4.5084 17.9738 4.45336 17.8775 4.45336 17.7766V7.20544C4.45336 7.10455 4.50977 7.00594 4.59852 6.9555L13.7539 1.67223C13.8387 1.62178 13.9511 1.62178 14.0359 1.67223L23.1931 6.9555C23.2798 7.00824 23.3348 7.10225 23.3348 7.20774V17.7789C23.3348 17.8797 23.2798 17.9783 23.195 18.0265L14.0341 23.3144C13.9554 23.3602 13.8351 23.3602 13.7502 23.3144L11.4007 21.9202C11.3308 21.8789 11.2414 21.8651 11.173 21.9041C10.5229 22.2733 10.3993 22.3214 9.79029 22.5347C9.63963 22.5868 9.41674 22.6771 9.87353 22.9326L12.9318 24.7432ZM11.8736 14.3326C11.8736 15.8758 12.714 17.7158 16.7223 17.7158L16.709 17.7266C19.612 17.7266 21.2768 16.5823 21.2768 14.5873C21.2768 12.6084 19.9399 12.081 17.124 11.7072C14.2806 11.3311 13.9917 11.1362 13.9917 10.4689C13.9917 9.91861 14.237 9.18482 16.3444 9.18482C18.227 9.18482 18.9195 9.5907 19.2062 10.8588C19.2314 10.978 19.3392 11.0651 19.463 11.0651H20.6531C20.7265 11.0651 20.7976 11.033 20.848 10.9803C20.8985 10.9253 20.926 10.8519 20.9191 10.7762C20.7356 8.58862 19.2818 7.57049 16.349 7.57049C13.7372 7.57049 12.1779 8.67117 12.1779 10.5194C12.1779 12.5258 13.728 13.0785 16.2366 13.3261C19.236 13.6196 19.4699 14.0576 19.4699 14.6469C19.4699 15.6708 18.6489 16.107 16.7182 16.107C14.2944 16.107 13.7624 15.4988 13.5835 14.2931C13.5629 14.164 13.4528 14.0689 13.3221 14.0689H12.1389C11.9919 14.0689 11.8736 14.1858 11.8736 14.3326Z" fill="#689F63"/>
</svg>
