<svg width="72" height="72" viewBox="0 0 72 72" fill="none" xmlns="http://www.w3.org/2000/svg">
<rect width="72" height="72" fill="white"/>
<path d="M57.2199 54.2071C57.2199 55.9856 55.7781 57.4274 53.9996 57.4274C52.2211 57.4274 50.7793 55.9856 50.7793 54.2071C50.7793 52.4286 52.2211 50.9868 53.9996 50.9868C55.7781 50.9868 57.2199 52.4286 57.2199 54.2071Z" fill="#61DAFB"/>
<path fill-rule="evenodd" clip-rule="evenodd" d="M53.9996 42.1802C53.4577 41.6509 52.9178 41.1675 52.3847 40.7342C51.046 39.6462 49.7194 38.849 48.4844 38.4494C47.2495 38.0499 46.0266 38.0262 44.9998 38.619C43.973 39.2118 43.3821 40.2828 43.1106 41.552C42.8391 42.8213 42.8663 44.3688 43.1392 46.0721C43.2479 46.7504 43.3965 47.4597 43.584 48.1936C42.8546 48.3983 42.1661 48.6241 41.5243 48.8692C39.9127 49.4845 38.5589 50.2348 37.5955 51.1045C36.6321 51.9742 36 53.0214 36 54.2071C36 55.3927 36.6321 56.44 37.5955 57.3096C38.5589 58.1794 39.9127 58.9297 41.5243 59.545C42.1661 59.79 42.8546 60.0159 43.584 60.2205C43.3965 60.9545 43.2479 61.6638 43.1392 62.3421C42.8663 64.0454 42.8391 65.5929 43.1106 66.8622C43.3821 68.1314 43.973 69.2024 44.9998 69.7952C46.0266 70.388 47.2495 70.3643 48.4844 69.9648C49.7194 69.5653 51.046 68.768 52.3847 67.68C52.9178 67.2467 53.4577 66.7633 53.9996 66.234C54.5415 66.7634 55.0814 67.2468 55.6145 67.6801C56.9532 68.768 58.2798 69.5653 59.5148 69.9648C60.7496 70.3643 61.9726 70.3881 62.9994 69.7953C64.0262 69.2024 64.6171 68.1314 64.8886 66.8623C65.16 65.593 65.1329 64.0455 64.86 62.3422C64.7513 61.6638 64.6026 60.9545 64.4152 60.2205C65.1445 60.0159 65.8331 59.79 66.4749 59.545C68.0865 58.9297 69.4403 58.1794 70.4037 57.3096C71.3671 56.44 71.9992 55.3927 71.9992 54.2071C71.9992 53.0214 71.3671 51.9742 70.4037 51.1045C69.4403 50.2348 68.0865 49.4845 66.4749 48.8692C65.8331 48.6241 65.1446 48.3983 64.4152 48.1936C64.6027 47.4597 64.7513 46.7504 64.86 46.0721C65.1329 44.3687 65.16 42.8212 64.8886 41.5519C64.6171 40.2828 64.0262 39.2118 62.9994 38.619C61.9726 38.0261 60.7496 38.0499 59.5148 38.4494C58.2798 38.8489 56.9532 39.6462 55.6145 40.7342C55.0814 41.1675 54.5415 41.6509 53.9996 42.1802ZM62.2794 39.866C62.8304 40.1842 63.2591 40.8185 63.4804 41.8531C63.7017 42.8877 63.6948 44.2425 63.4381 45.8443C63.3365 46.4787 63.1967 47.1458 63.0194 47.8395C61.5107 47.4948 59.8622 47.2349 58.1174 47.0748C57.1063 45.6438 56.057 44.3461 55.0041 43.2119C55.5162 42.7116 56.0241 42.2569 56.5227 41.8516C57.7815 40.8285 58.9514 40.1451 59.958 39.8195C60.9647 39.4938 61.7284 39.5479 62.2794 39.866ZM52.995 43.2119C52.4829 42.7116 51.9751 42.257 51.4765 41.8517C50.2176 40.8286 49.0478 40.1452 48.0412 39.8195C47.0345 39.4939 46.2708 39.548 45.7198 39.8661C45.1688 40.1842 44.7401 40.8185 44.5188 41.8532C44.2975 42.8877 44.3044 44.2426 44.561 45.8443C44.6627 46.4788 44.8025 47.1459 44.9798 47.8395C46.4884 47.4948 48.137 47.2349 49.8818 47.0748C50.8928 45.6438 51.9422 44.3461 52.995 43.2119ZM62.6258 49.2268C61.5483 48.9834 60.3905 48.7837 59.1698 48.635C59.5679 49.2532 59.9577 49.8916 60.3369 50.5483C60.716 51.2049 61.074 51.8617 61.4102 52.5156C61.8918 51.3841 62.2978 50.2816 62.6258 49.2268ZM62.2352 54.2071C62.969 52.616 63.5681 51.0584 64.024 49.5795C64.7133 49.7728 65.361 49.9853 65.9613 50.2145C67.4767 50.7931 68.6535 51.4645 69.4388 52.1734C70.2242 52.8824 70.5592 53.5708 70.5592 54.2071C70.5592 54.8433 70.2242 55.5318 69.4388 56.2407C68.6535 56.9497 67.4767 57.6211 65.9613 58.1997C65.361 58.4289 64.7133 58.6414 64.024 58.8347C63.5681 57.3558 62.969 55.7982 62.2352 54.2071ZM60.6435 54.2071C60.1775 53.2377 59.6592 52.2545 59.0898 51.2683C58.5204 50.2821 57.928 49.3415 57.3215 48.4532C56.249 48.3721 55.1383 48.3294 53.9996 48.3294C52.8609 48.3294 51.7501 48.3721 50.6776 48.4532C50.0711 49.3415 49.4787 50.2821 48.9094 51.2682C48.34 52.2544 47.8216 53.2377 47.3556 54.2071C47.8216 55.1765 48.34 56.1598 48.9094 57.146C49.4787 58.1321 50.0711 59.0727 50.6776 59.9609C51.7501 60.042 52.8609 60.0847 53.9996 60.0847C55.1383 60.0847 56.2491 60.042 57.3216 59.9609C57.9281 59.0727 58.5204 58.1321 59.0898 57.1459C59.6592 56.1598 60.1775 55.1765 60.6435 54.2071ZM59.1698 59.7791C59.568 59.161 59.9578 58.5226 60.3369 57.8659C60.716 57.2093 61.074 56.5525 61.4102 55.8986C61.8918 57.0301 62.2978 58.1326 62.6257 59.1874C61.5483 59.4308 60.3905 59.6304 59.1698 59.7791ZM56.24 61.4707C55.5056 61.5064 54.7578 61.5247 53.9996 61.5247C53.2413 61.5247 52.4936 61.5064 51.7591 61.4707C52.4983 62.4535 53.2501 63.3563 53.9996 64.1678C54.7491 63.3563 55.5009 62.4535 56.24 61.4707ZM55.0041 65.2023C56.057 64.0681 57.1063 62.7704 58.1174 61.3393C59.8622 61.1792 61.5107 60.9193 63.0194 60.5747C63.1966 61.2683 63.3365 61.9355 63.4381 62.57C63.6948 64.1717 63.7017 65.5265 63.4804 66.5611C63.2591 67.5957 62.8304 68.2301 62.2794 68.5482C61.7284 68.8663 60.9647 68.9204 59.958 68.5947C58.9514 68.2691 57.7815 67.5857 56.5227 66.5626C56.0241 66.1573 55.5162 65.7026 55.0041 65.2023ZM52.995 65.2023C51.9421 64.0681 50.8928 62.7704 49.8817 61.3393C48.1369 61.1792 46.4884 60.9193 44.9798 60.5747C44.8025 61.2683 44.6627 61.9354 44.561 62.5699C44.3044 64.1716 44.2975 65.5265 44.5188 66.561C44.7401 67.5957 45.1688 68.23 45.7198 68.5481C46.2708 68.8662 47.0345 68.9204 48.0412 68.5947C49.0478 68.269 50.2176 67.5856 51.4764 66.5625C51.9751 66.1573 52.4829 65.7026 52.995 65.2023ZM45.3734 59.1874C46.4509 59.4308 47.6086 59.6304 48.8293 59.7791C48.4312 59.161 48.0414 58.5226 47.6623 57.866C47.2832 57.2093 46.9252 56.5525 46.5889 55.8986C46.1074 57.0301 45.7014 58.1326 45.3734 59.1874ZM46.5889 52.5156C46.9252 51.8617 47.2832 51.2049 47.6623 50.5482C48.0414 49.8916 48.4312 49.2532 48.8294 48.635C47.6087 48.7837 46.4509 48.9834 45.3734 49.2268C45.7014 50.2816 46.1074 51.3841 46.5889 52.5156ZM45.764 54.2071C45.0302 55.7982 44.431 57.3558 43.9752 58.8347C43.2859 58.6414 42.6382 58.4289 42.0379 58.1997C40.5225 57.6211 39.3457 56.9497 38.5604 56.2407C37.775 55.5318 37.44 54.8433 37.44 54.2071C37.44 53.5708 37.775 52.8824 38.5604 52.1734C39.3457 51.4645 40.5225 50.7931 42.0379 50.2145C42.6382 49.9853 43.2858 49.7728 43.9752 49.5795C44.431 51.0584 45.0302 52.616 45.764 54.2071ZM51.7592 46.9435C52.4936 46.9078 53.2414 46.8894 53.9996 46.8894C54.7578 46.8894 55.5056 46.9078 56.24 46.9435C55.5008 45.9607 54.749 45.0579 53.9996 44.2465C53.2501 45.0579 52.4983 45.9607 51.7592 46.9435Z" fill="#61DAFB"/>
<path fill-rule="evenodd" clip-rule="evenodd" d="M8.06396 0V10.1005L16.5363 13.3568V0H8.06396ZM13.8529 15.4975L8.06396 13.2663V17.6985L13.8529 15.4975ZM16.5363 17.6382V22.5226L12.4057 36H8.06396V20.8643L16.5363 17.6382ZM27.9333 0V10.1005L19.4609 13.3568V0H27.9333ZM27.9333 13.2663L22.1142 15.4975L27.9333 17.6985V13.2663ZM19.4609 22.5226V17.6382L27.9333 20.8643V36H23.5615L19.4609 22.5226Z" fill="#69C1BE"/>
</svg>
