<svg width="72" height="72" viewBox="0 0 72 72" fill="none" xmlns="http://www.w3.org/2000/svg">
<rect width="72" height="72" fill="white"/>
<path fill-rule="evenodd" clip-rule="evenodd" d="M55.6635 45.1339H51.9345V41.76H55.6635V45.1339ZM46.8737 49.218H43.2335V45.8441H46.8737V49.218ZM51.313 49.218H47.584V45.8441H51.313V49.218ZM55.6635 49.218H51.9345V45.8441H55.6635V49.218ZM42.5232 53.3021H38.7942V49.9283H42.5232V53.3021ZM46.8737 53.3021H43.2335V49.9283H46.8737V53.3021ZM51.313 53.3021H47.584V49.9283H51.313V53.3021ZM55.6635 53.3021H51.9345V49.9283H55.6635V53.3021ZM60.1027 53.3021H56.3737V49.9283H60.1027V53.3021Z" fill="#066DA5"/>
<path d="M72 51.7928C72 51.7928 70.4019 50.2834 67.1168 50.8161C66.7617 48.2414 64.0093 46.732 64.0093 46.732C64.0093 46.732 61.4345 49.8395 63.299 53.3021C62.7663 53.5685 61.8784 53.9236 60.5467 53.9236H36.1306C35.6867 55.6106 35.6867 66.7975 47.9391 66.7975C56.7289 66.7975 63.299 62.7134 66.4065 55.2554C71.0234 55.6106 72 51.7928 72 51.7928Z" fill="#066DA5"/>
<path fill-rule="evenodd" clip-rule="evenodd" d="M8.06396 0V10.1005L16.5363 13.3568V0H8.06396ZM13.8529 15.4975L8.06396 13.2663V17.6985L13.8529 15.4975ZM16.5363 17.6382V22.5226L12.4057 36H8.06396V20.8643L16.5363 17.6382ZM27.9333 0V10.1005L19.4609 13.3568V0H27.9333ZM27.9333 13.2663L22.1142 15.4975L27.9333 17.6985V13.2663ZM19.4609 22.5226V17.6382L27.9333 20.8643V36H23.5615L19.4609 22.5226Z" fill="#69C1BE"/>
</svg>
