<svg width="50" height="50" viewBox="0 0 50 50" fill="none" xmlns="http://www.w3.org/2000/svg">
<path d="M25 49C38.2548 49 49 38.2548 49 25C49 11.7452 38.2548 1 25 1C11.7452 1 1 11.7452 1 25C1 38.2548 11.7452 49 25 49Z" fill="#149CF4"/>
<path d="M38.1788 20.1055C37.9866 20.0671 37.8327 19.99 37.7175 19.8748C37.5637 19.7594 37.4485 19.6058 37.3715 19.4136C37.256 19.2213 37.2176 18.9907 37.2176 18.6833V14.6085C37.2176 14.1473 37.1408 13.7244 36.987 13.3783C36.8332 13.0323 36.6409 12.7632 36.4103 12.5326C36.1413 12.302 35.872 12.1482 35.5646 12.033C35.2572 11.9175 34.9111 11.8791 34.565 11.8791H25.8004V11.0334C26.9922 10.6105 27.8379 9.45741 27.8379 8.15017C27.8379 6.45873 26.4539 5.07471 24.7624 5.07471C23.071 5.07471 21.687 6.45873 21.687 8.15017C21.687 9.49555 22.5327 10.6105 23.7245 11.0718V11.9175H15.075C14.729 11.9175 14.3831 11.9559 14.0755 12.0714C13.7678 12.1868 13.4604 12.3404 13.2297 12.571C12.9607 12.8016 12.7685 13.0707 12.653 13.4167C12.4992 13.7628 12.4224 14.147 12.4224 14.6469V18.7601C12.4224 19.0675 12.384 19.2984 12.2686 19.4904C12.1531 19.6823 12.038 19.8364 11.9225 19.9516C11.7687 20.0671 11.6151 20.1439 11.4613 20.1823C11.1922 20.259 11 20.4897 11 20.759V21.5663C11 21.8353 11.1922 22.0659 11.4613 22.143C11.6535 22.1814 11.8073 22.2584 11.9225 22.3736C12.0763 22.489 12.1915 22.6426 12.2686 22.8733C12.384 23.0655 12.4224 23.3345 12.4224 23.6806V27.9092C12.4224 28.3704 12.4992 28.7933 12.653 29.1394C12.8069 29.4854 12.9991 29.7545 13.2297 29.9851C13.4988 30.2157 13.768 30.3696 14.0755 30.4848C14.3829 30.5999 14.729 30.6386 15.075 30.6386H31.7204C32.1049 30.6386 32.4507 30.7154 32.5662 30.9847C32.6816 31.2537 32.6429 31.5614 32.6429 31.8688V37.9811C32.6429 38.2885 32.6429 38.5194 32.5275 38.7884C32.4121 39.0574 32.143 39.2112 31.7202 39.2112H18.227C17.8426 39.2112 17.4967 39.0574 17.4197 38.7884C17.3043 38.5194 17.3429 38.2501 17.3429 37.9427V36.1358C17.3429 36.1358 17.3813 34.9826 16.2666 34.9826C15.1902 34.9826 15.2286 36.059 15.2286 36.1358V38.1733C15.2286 38.6345 15.3054 39.0574 15.4592 39.4035C15.6131 39.7495 15.8053 40.0186 16.0359 40.2492C16.305 40.4798 16.5742 40.6337 16.8817 40.7489C17.1891 40.8643 17.5351 40.9027 17.8812 40.9027H32.143C32.4891 40.9027 32.8349 40.8643 33.1426 40.7489C33.45 40.6334 33.7577 40.4798 33.9883 40.2492C34.2573 40.0186 34.4496 39.7495 34.565 39.4035C34.7189 39.0574 34.7956 38.6732 34.7956 38.1733V31.5614C34.7956 31.1001 34.7189 30.6772 34.565 30.3312C34.4112 29.9851 34.219 29.7161 33.9883 29.4854C33.7193 29.2548 33.45 29.101 33.1426 28.9858C32.8352 28.8704 32.4891 28.832 32.143 28.832H15.4981C15.1137 28.832 14.7292 28.5629 14.614 28.3323C14.4986 28.0633 14.5756 26.0642 14.5756 25.7567V23.527C14.5756 23.0273 14.4988 22.6429 14.345 22.3352C14.1912 22.0275 13.9989 21.7969 13.8067 21.6049C13.6145 21.4129 13.3838 21.2975 13.1532 21.2205C12.9226 21.1434 12.7303 21.105 12.5381 21.0666V21.0282C12.692 21.0282 12.9226 20.9514 13.1532 20.8744C13.3838 20.759 13.6145 20.6438 13.8067 20.4515C13.9989 20.2593 14.1912 20.0287 14.345 19.7596C14.4988 19.4906 14.5756 19.1446 14.5756 18.7217V14.8392C14.5756 14.5317 14.5756 14.2241 14.6524 13.955C14.7679 13.686 15.0369 13.5706 15.4981 13.609H34.2192C34.6037 13.609 34.9111 13.7244 35.0265 13.9934C35.142 14.2625 35.142 14.5701 35.142 14.8776V18.7987C35.142 19.1832 35.2188 19.529 35.3726 19.8367C35.5264 20.1057 35.7187 20.3363 35.9109 20.5286C36.1031 20.7208 36.3338 20.836 36.5644 20.9514C36.795 21.0669 36.9872 21.1053 37.1795 21.1053V21.1437C37.0256 21.1437 36.795 21.2205 36.5644 21.2975C36.3338 21.3746 36.1031 21.4897 35.9109 21.682C35.7187 21.8742 35.5264 22.1048 35.3726 22.4123C35.2188 22.7197 35.142 23.1041 35.142 23.604V26.3334C35.142 26.3334 35.142 27.333 36.2183 27.333C37.3331 27.333 37.2947 26.3334 37.2947 26.3334V23.6808C37.2947 23.3348 37.3331 23.0657 37.4485 22.8735C37.5639 22.6813 37.6791 22.489 37.7946 22.3739C37.9484 22.2584 38.102 22.1816 38.2558 22.1432C38.5249 22.0664 38.7171 21.8358 38.7171 21.5665V20.7592C38.6403 20.4131 38.4481 20.1823 38.1788 20.1055ZM24.7627 7.07357C25.301 7.07357 25.7622 7.53483 25.7622 8.07313C25.7622 8.61143 25.301 9.07269 24.7627 9.07269C24.2244 9.07269 23.7631 8.61143 23.7631 8.07313C23.7631 7.53483 24.2244 7.07357 24.7627 7.07357Z" fill="white"/>
<path d="M27.2999 19.4519C27.2999 20.4515 28.1072 21.2972 29.1451 21.2972C30.1447 21.2972 30.9904 20.4899 30.9904 19.4519C30.9904 18.4524 30.1831 17.6067 29.1451 17.6067C28.1072 17.6067 27.2999 18.414 27.2999 19.4519Z" fill="white"/>
<path d="M18.612 19.4519C18.612 20.4515 19.4193 21.2972 20.4573 21.2972C21.4568 21.2972 22.3026 20.4899 22.3026 19.4519C22.3026 18.4524 21.4952 17.6067 20.4573 17.6067C19.4577 17.6451 18.612 18.4524 18.612 19.4519Z" fill="white"/>
</svg>
