<svg width="51" height="50" viewBox="0 0 51 50" fill="none" xmlns="http://www.w3.org/2000/svg">
<path d="M47.9501 45.3941C18.8671 53.0461 5.99589 31.6415 2.53477 17.2666C2.18208 15.8018 3.076 14.3594 4.51446 13.9111L16.3818 10.213C18.3131 9.61116 20.2724 11.0657 20.4663 13.0793C22.276 31.8697 36.5126 40.7609 47.6923 42.9379C48.811 43.1557 49.0523 45.1042 47.9501 45.3941Z" stroke="black" stroke-width="3" stroke-linecap="round"/>
<path d="M14.9999 10.5L14.1972 7.76765C14.0381 7.22644 13.4632 6.92377 12.927 7.09901L4.37322 9.89468C3.85941 10.0626 3.57206 10.6084 3.72443 11.1271L4.54416 13.9173" stroke="black" stroke-width="3" stroke-linecap="round"/>
<path d="M8.5 8.5L7.5 5.5" stroke="black" stroke-width="3" stroke-linecap="round"/>
</svg>
