<svg width="50" height="50" viewBox="0 0 50 50" fill="none" xmlns="http://www.w3.org/2000/svg">
<path fill-rule="evenodd" clip-rule="evenodd" d="M38.6552 31.343H36.0656V29H38.6552V31.343ZM32.5512 34.1792H30.0232V31.8362H32.5512V34.1792ZM35.634 34.1792H33.0444V31.8362H35.634V34.1792ZM38.6552 34.1792H36.0656V31.8362H38.6552V34.1792ZM29.53 37.0154H26.9404V34.6724H29.53V37.0154ZM32.5512 37.0154H30.0232V34.6724H32.5512V37.0154ZM35.634 37.0154H33.0444V34.6724H35.634V37.0154ZM38.6552 37.0154H36.0656V34.6724H38.6552V37.0154ZM41.738 37.0154H39.1484V34.6724H41.738V37.0154Z" fill="#066DA5"/>
<path d="M50 35.9672C50 35.9672 48.8902 34.919 46.6089 35.289C46.3623 33.5009 44.4509 32.4528 44.4509 32.4528C44.4509 32.4528 42.6629 34.6108 43.9576 37.0154C43.5877 37.2003 42.9711 37.447 42.0463 37.447H25.0907C24.7824 38.6184 24.7824 46.3872 33.291 46.3872C39.3951 46.3872 43.9576 43.551 46.1156 38.3718C49.3218 38.6184 50 35.9672 50 35.9672Z" fill="#066DA5"/>
<path d="M12.3556 0.501045C11.366 0.505594 10.4211 0.589074 9.59021 0.734678C7.13997 1.16286 6.69525 2.05874 6.69525 3.71168V5.89425H12.483V6.62163H6.69525H4.52349C2.84135 6.62163 1.36732 7.62194 0.907495 9.52389C0.375997 11.7043 0.352466 13.0668 0.907495 15.3434C1.31896 17.0386 2.30165 18.2456 3.98379 18.2456H5.97399V15.6295C5.97399 13.7395 7.62699 12.0716 9.58999 12.0716H15.3713C16.9807 12.0716 18.2662 10.7608 18.2662 9.16298V3.71083C18.2662 2.15911 16.9429 0.994366 15.3713 0.733824C14.3769 0.570089 13.3452 0.495706 12.3554 0.500191L12.3556 0.501045ZM9.22537 2.25628C9.82336 2.25628 10.3115 2.74725 10.3115 3.35077C10.3115 3.95215 9.82314 4.43864 9.22537 4.43864C8.62544 4.43864 8.13928 3.95237 8.13928 3.35077C8.13928 2.74725 8.62544 2.25628 9.22537 2.25628Z" fill="url(#paint0_linear_2584_1515)"/>
<path d="M18.9875 6.61987V9.16336C18.9875 11.1347 17.2981 12.7939 15.3715 12.7939H9.59027C8.00657 12.7939 6.69531 14.1346 6.69531 15.7025V21.1547C6.69531 22.7064 8.05946 23.6191 9.59027 24.0633C11.4224 24.5964 13.1804 24.6927 15.3715 24.0633C16.8287 23.646 18.2665 22.8059 18.2665 21.1547V18.9721H12.4852V18.2447H18.2665H21.1615C22.8436 18.2447 23.4714 17.084 24.0564 15.3425C24.6607 13.5488 24.635 11.823 24.0564 9.52299C23.6406 7.86641 22.8466 6.62073 21.1615 6.62073H18.9897L18.9875 6.61987ZM15.7364 20.4286C16.3363 20.4286 16.8225 20.9148 16.8225 21.5164C16.8225 22.12 16.3363 22.6109 15.7364 22.6109C15.1384 22.6109 14.6503 22.12 14.6503 21.5164C14.6503 20.9151 15.1386 20.4286 15.7364 20.4286Z" fill="url(#paint1_linear_2584_1515)"/>
<defs>
<linearGradient id="paint0_linear_2584_1515" x1="0.499616" y1="0.500575" x2="13.7297" y2="11.8928" gradientUnits="userSpaceOnUse">
<stop stop-color="#5A9FD4"/>
<stop offset="1" stop-color="#306998"/>
</linearGradient>
<linearGradient id="paint1_linear_2584_1515" x1="15.5998" y1="21.3401" x2="10.8708" y2="14.6515" gradientUnits="userSpaceOnUse">
<stop stop-color="#FFD43B"/>
<stop offset="1" stop-color="#FFE873"/>
</linearGradient>
</defs>
</svg>
