<svg width="50" height="51" viewBox="0 0 50 51" fill="none" xmlns="http://www.w3.org/2000/svg">
<path fill-rule="evenodd" clip-rule="evenodd" d="M5.62605 29.6476C2.51887 29.6476 -2.12868e-07 27.1302 -3.48609e-07 24.0248L-1.15298e-06 5.62281C-1.28872e-06 2.51742 2.51887 -1.10103e-07 5.62605 -2.45922e-07L24.0386 -1.05076e-06C27.1458 -1.18658e-06 29.6646 2.51742 29.6646 5.62281L29.6646 14.8238C29.6646 15.6707 28.9777 16.3573 28.1302 16.3573C27.2828 16.3573 26.5959 15.6707 26.5959 14.8238L26.5959 5.62281C26.5959 4.21127 25.4509 3.06699 24.0386 3.06699L5.62605 3.06699C4.21369 3.06699 3.06875 4.21127 3.06875 5.62281L3.06875 24.0248C3.06875 25.4363 4.21369 26.5806 5.62605 26.5806L14.8323 26.5806C15.6797 26.5806 16.3667 27.2672 16.3667 28.1141C16.3667 28.961 15.6797 29.6476 14.8323 29.6476L5.62605 29.6476ZM20.2515 30.4665C20.2515 29.6196 20.9385 28.933 21.7859 28.933L26.7613 28.933L14.5528 16.7315C13.9535 16.1326 13.9535 15.1616 14.5528 14.5628C15.152 13.9639 16.1235 13.9639 16.7227 14.5628L28.9312 26.7643L28.9312 21.7917C28.9312 20.9448 29.6182 20.2582 30.4656 20.2582C31.313 20.2583 32 20.9448 32 21.7917L32 30.4665L32 32L30.4656 32L21.7859 32C20.9385 32 20.2515 31.3134 20.2515 30.4665Z" fill="#40404B"/>
<path fill-rule="evenodd" clip-rule="evenodd" d="M28.6156 39.9687V39.9756C29.5338 39.9756 30.2311 40.2586 30.7144 40.8248C31.1976 41.3909 31.4393 42.1641 31.4393 43.1445V47.3282H29.5683V43.4966C29.5683 42.9374 29.4371 42.5024 29.1817 42.1848C28.9263 41.8672 28.5465 41.7085 28.0426 41.7085C27.5248 41.7085 27.1105 41.8949 26.793 42.2746C26.4754 42.6543 26.3166 43.1583 26.3166 43.7865V47.3213H24.4525V37H26.3166V41.0733C26.8896 40.3346 27.6559 39.9687 28.6156 39.9687ZM33.8418 46.4376C34.5667 47.1625 35.4781 47.5215 36.5827 47.5215H36.5965C37.6942 47.5215 38.6055 47.1625 39.3304 46.4376C40.0553 45.7127 40.4143 44.8152 40.4143 43.7382C40.4143 42.6612 40.0553 41.7637 39.3304 41.0457C38.6055 40.3277 37.6942 39.9687 36.5896 39.9687C35.485 39.9687 34.5736 40.3277 33.8487 41.0457C33.1238 41.7637 32.7579 42.6612 32.7579 43.7382C32.7579 44.8152 33.1169 45.7127 33.8418 46.4376ZM38.0325 45.2363C37.6597 45.6299 37.1764 45.8232 36.5827 45.8232C35.9889 45.8232 35.5057 45.6299 35.1329 45.2363C34.7601 44.8428 34.5736 44.3457 34.5736 43.7451C34.5736 43.1445 34.7601 42.6474 35.1329 42.2539C35.5057 41.8603 35.9889 41.667 36.5827 41.667C37.1764 41.667 37.6597 41.8603 38.0325 42.2539C38.4053 42.6474 38.5917 43.1445 38.5917 43.7451C38.5917 44.3457 38.4053 44.8428 38.0325 45.2363ZM45.9996 39.9756V39.9687C45.04 39.9687 44.2736 40.3346 43.7006 41.0733V40.1689H41.8365V47.3213H43.7006V43.7865C43.7006 43.1583 43.8594 42.6543 44.177 42.2746C44.4945 41.8949 44.9088 41.7085 45.4266 41.7085C45.9306 41.7085 46.3103 41.8672 46.5657 42.1848C46.8212 42.5024 46.9523 42.9374 46.9523 43.4966V47.3282H48.8233V43.1445C48.8233 42.1641 48.5816 41.3909 48.0984 40.8248C47.6151 40.2586 46.9178 39.9756 45.9996 39.9756ZM23.2305 47.0935L22.7749 45.5815C22.5125 45.7127 22.2295 45.7818 21.9257 45.7818C21.3389 45.7818 21.0489 45.478 21.0489 44.8773V41.8051H23.1408V40.1689H21.0489V37.8492H19.1711V40.1689H17.9698V41.8051H19.1711V44.8773C19.1711 45.6782 19.3713 46.3065 19.7717 46.7552C20.1721 47.204 20.7659 47.4318 21.5598 47.4318C22.1052 47.4318 22.6644 47.3213 23.2305 47.0935ZM15.581 40.1689H17.5763L13.2751 50.29H11.3558L12.6538 47.1625L9.41585 40.1689H11.4663L13.5858 45.0016L15.581 40.1689ZM5.62561 37.428L5.63942 37.4211H1V47.3213H2.92619V44.2974H5.55657C6.62668 44.2974 7.48276 43.9522 8.11792 43.2618C8.75308 42.5714 9.07065 41.7706 9.07065 40.8662C9.07065 39.9825 8.75308 39.1885 8.11792 38.4843C7.48276 37.7801 6.65429 37.428 5.62561 37.428ZM5.46682 42.5645L5.48063 42.5783H2.91238V39.1816H5.57038C6.03294 39.1816 6.41265 39.3542 6.71643 39.6925C7.0202 40.0308 7.17208 40.4243 7.17208 40.8731C7.17208 41.3218 7.01329 41.7154 6.69571 42.0537C6.37814 42.3919 5.97081 42.5645 5.46682 42.5645Z" fill="#40404B"/>
</svg>
