<svg width="50" height="50" viewBox="0 0 50 50" fill="none" xmlns="http://www.w3.org/2000/svg">
<path fill-rule="evenodd" clip-rule="evenodd" d="M41.8511 46.486L42.9436 49.39H45.6795L40.5345 36H37.1263L32 49.39H34.7172L35.8284 46.486H41.8511ZM40.9734 44.1703H36.6874L38.8257 38.5118L40.9734 44.1703ZM46.968 36V49.39H49.6292V36H46.968Z" fill="black"/>
<path d="M28 37H14.8966C14.6418 37 14.3967 37.0972 14.2112 37.2718L6 45V10C6 6.13401 9.13401 3 13 3H37C40.866 3 44 6.13401 44 10V29.5" stroke="black" stroke-width="3" stroke-linecap="round"/>
<path d="M17 13V15" stroke="black" stroke-width="3" stroke-linecap="round"/>
<path d="M32 24V24C27.9385 28.3323 21.0615 28.3323 17 24V24" stroke="black" stroke-width="3" stroke-linecap="round"/>
<path d="M33 13V15" stroke="black" stroke-width="3" stroke-linecap="round"/>
</svg>
