<svg width="50" height="50" viewBox="0 0 50 50" fill="none" xmlns="http://www.w3.org/2000/svg">
<path fill-rule="evenodd" clip-rule="evenodd" d="M3.5 16C3.5 13.5147 5.51472 11.5 8 11.5H24C24.8284 11.5 25.5 10.8284 25.5 10C25.5 9.17157 24.8284 8.5 24 8.5H8C3.85786 8.5 0.5 11.8579 0.5 16V42C0.5 46.1421 3.85787 49.5 8 49.5H42C46.1421 49.5 49.5 46.1421 49.5 42V28.5C49.5 27.6716 48.8284 27 48 27C47.1716 27 46.5 27.6716 46.5 28.5V42C46.5 44.4853 44.4853 46.5 42 46.5H8C5.51472 46.5 3.5 44.4853 3.5 42V22.5H24C24.8284 22.5 25.5 21.8284 25.5 21C25.5 20.1716 24.8284 19.5 24 19.5H3.5V16ZM10.5 30C10.5 29.1716 11.1716 28.5 12 28.5H31C31.8284 28.5 32.5 29.1716 32.5 30C32.5 30.8284 31.8284 31.5 31 31.5H12C11.1716 31.5 10.5 30.8284 10.5 30ZM10.5 38C10.5 37.1716 11.1716 36.5 12 36.5H20.5C21.3284 36.5 22 37.1716 22 38C22 38.8284 21.3284 39.5 20.5 39.5H12C11.1716 39.5 10.5 38.8284 10.5 38ZM6 15.5C6 14.6716 6.67157 14 7.5 14H7.51C8.33843 14 9.01 14.6716 9.01 15.5C9.01 16.3284 8.33843 17 7.51 17H7.5C6.67157 17 6 16.3284 6 15.5ZM11 15.5C11 14.6716 11.6716 14 12.5 14H12.51C13.3384 14 14.01 14.6716 14.01 15.5C14.01 16.3284 13.3384 17 12.51 17H12.5C11.6716 17 11 16.3284 11 15.5ZM16 15.5C16 14.6716 16.6716 14 17.5 14H17.51C18.3384 14 19.01 14.6716 19.01 15.5C19.01 16.3284 18.3384 17 17.51 17H17.5C16.6716 17 16 16.3284 16 15.5Z" fill="#40404B"/>
<path fill-rule="evenodd" clip-rule="evenodd" d="M33.3686 18.0758C34.2709 17.6891 35.275 17.1357 36.3317 16.4262C35.8564 15.9996 35.3835 15.5519 34.9159 15.0842C34.4482 14.6165 34.0004 14.1436 33.5738 13.6683C32.8643 14.725 32.3109 15.729 31.9241 16.6314C31.5367 17.5355 31.3662 18.2223 31.3157 18.6843C31.7777 18.6338 32.4644 18.4633 33.3686 18.0758ZM28.7895 21.2105C30.509 22.93 34.6368 21.7448 39 18.5862C43.3632 21.7448 47.491 22.93 49.2105 21.2105C50.93 19.491 49.7448 15.3632 46.5862 10.9999C49.7447 6.63674 50.9299 2.50896 49.2104 0.789471C47.4909 -0.930019 43.3632 0.255161 39 3.41376C34.6368 0.255186 30.5091 -0.92998 28.7896 0.789504C27.0701 2.50899 28.2553 6.63675 31.4138 10.9999C28.2552 15.3631 27.07 19.491 28.7895 21.2105ZM46.0759 16.6314C45.6891 15.729 45.1357 14.725 44.4262 13.6683C43.9996 14.1436 43.5518 14.6165 43.0841 15.0842C42.6165 15.5518 42.1436 15.9996 41.6683 16.4262C42.725 17.1357 43.7291 17.6891 44.6314 18.0758C45.5356 18.4633 46.2223 18.6338 46.6843 18.6843C46.6338 18.2223 46.4633 17.5355 46.0759 16.6314ZM40.7515 12.7516C41.3342 12.169 41.8776 11.5827 42.3804 10.9999C41.8777 10.4172 41.3342 9.83099 40.7517 9.24841C40.169 8.66577 39.5828 8.12229 39 7.61949C38.4172 8.12228 37.831 8.66575 37.2483 9.24837C36.6658 9.83096 36.1223 10.4172 35.6195 10.9999C36.1223 11.5827 36.6658 12.169 37.2485 12.7516C37.831 13.3342 38.4172 13.8776 39 14.3804C39.5827 13.8776 40.169 13.3342 40.7515 12.7516ZM46.0757 5.36857C45.689 6.27093 45.1357 7.27494 44.4262 8.33158C43.9996 7.85629 43.5519 7.38344 43.0843 6.91581C42.6166 6.44813 42.1437 6.00038 41.6683 5.57374C42.725 4.86424 43.729 4.31088 44.6313 3.92416C45.5355 3.53667 46.2222 3.36617 46.6842 3.31571C46.6337 3.77767 46.4632 4.46445 46.0757 5.36857ZM34.9158 6.91578C35.3834 6.44812 35.8563 6.00037 36.3316 5.57375C35.275 4.86426 34.271 4.31091 33.3687 3.92419C32.4645 3.5367 31.7778 3.3662 31.3158 3.31575C31.3663 3.77771 31.5368 4.46448 31.9243 5.36861C32.311 6.27095 32.8643 7.27494 33.5738 8.33158C34.0004 7.85628 34.4481 7.38341 34.9158 6.91578Z" fill="#40404B"/>
</svg>
