<svg width="50" height="50" viewBox="0 0 50 50" fill="none" xmlns="http://www.w3.org/2000/svg">
<path fill-rule="evenodd" clip-rule="evenodd" d="M23.0015 0.52785C24.2382 -0.17595 25.7618 -0.17595 26.9985 0.52785L45.5015 11.0579C46.7382 11.7617 47.5 13.0624 47.5 14.47V35.53C47.5 36.9376 46.7382 38.2383 45.5015 38.9421L26.9985 49.4722C25.7618 50.176 24.2382 50.176 23.0015 49.4722L4.49852 38.9421C3.26183 38.2383 2.5 36.9376 2.5 35.53V14.47C2.5 13.0624 3.26183 11.7617 4.49852 11.0579L23.0015 0.52785ZM28.3324 4.69901L44.0026 13.6169C44.3118 13.7929 44.5022 14.1181 44.5022 14.47V32.7628L28.3324 4.69901ZM21.6676 4.69901L5.99741 13.6169C5.68824 13.7929 5.49778 14.1181 5.49778 14.47V32.7628L21.6676 4.69901ZM8.83863 38L24.5004 46.9131C24.8095 47.089 25.1905 47.089 25.4996 46.9131L41.1614 38H8.83863ZM7.88497 34.8732L25 5.16901L42.115 34.8732H7.88497Z" fill="#40404B"/>
</svg>
