<svg width="50" height="50" viewBox="0 0 50 50" fill="none" xmlns="http://www.w3.org/2000/svg">
<path fill-rule="evenodd" clip-rule="evenodd" d="M5.62605 29.6476C2.51887 29.6476 -2.12868e-07 27.1302 -3.48609e-07 24.0248L-1.15298e-06 5.62281C-1.28872e-06 2.51742 2.51887 -1.10103e-07 5.62605 -2.45922e-07L24.0386 -1.05076e-06C27.1458 -1.18658e-06 29.6646 2.51742 29.6646 5.62281L29.6646 14.8238C29.6646 15.6707 28.9777 16.3573 28.1302 16.3573C27.2828 16.3573 26.5959 15.6707 26.5959 14.8238L26.5959 5.62281C26.5959 4.21127 25.4509 3.06699 24.0386 3.06699L5.62605 3.06699C4.21369 3.06699 3.06875 4.21127 3.06875 5.62281L3.06875 24.0248C3.06875 25.4363 4.21369 26.5806 5.62605 26.5806L14.8323 26.5806C15.6797 26.5806 16.3667 27.2672 16.3667 28.1141C16.3667 28.961 15.6797 29.6476 14.8323 29.6476L5.62605 29.6476ZM20.2515 30.4665C20.2515 29.6196 20.9385 28.933 21.7859 28.933L26.7613 28.933L14.5528 16.7315C13.9535 16.1326 13.9535 15.1616 14.5528 14.5628C15.152 13.9639 16.1235 13.9639 16.7227 14.5628L28.9312 26.7643L28.9312 21.7917C28.9312 20.9448 29.6182 20.2582 30.4656 20.2582C31.313 20.2583 32 20.9448 32 21.7917L32 30.4665L32 32L30.4656 32L21.7859 32C20.9385 32 20.2515 31.3134 20.2515 30.4665Z" fill="#40404B"/>
<path fill-rule="evenodd" clip-rule="evenodd" d="M40.2722 48.6684C41.3048 49.4161 42.5599 49.79 44.0286 49.79C45.533 49.79 46.8059 49.3805 47.7495 48.615C48.6931 47.8495 49.1648 46.9148 49.1648 45.8021C49.1648 44.8407 48.8711 44.1019 48.2836 43.5856C47.6961 43.0693 46.8415 42.6421 45.7288 42.3038L42.5599 41.2801C41.7499 41.0398 41.3404 40.6392 41.3404 40.0784C41.3404 39.6957 41.5273 39.3663 41.9101 39.0992C42.2928 38.8322 42.7824 38.6987 43.3877 38.6987C44.091 38.6987 44.723 38.8589 45.2838 39.1794C45.8446 39.4998 46.2629 39.9182 46.53 40.4434L48.8533 39.7669C48.4883 38.8322 47.8118 38.0578 46.8237 37.4347C45.8357 36.8116 44.6785 36.5 43.3521 36.5C42.0436 36.5 40.9487 36.8561 40.0764 37.5682C39.204 38.2803 38.7678 39.1438 38.7767 40.1496C38.7678 40.9419 39.026 41.6095 39.5512 42.1614C40.0764 42.7133 40.7796 43.1316 41.6697 43.4076L44.9277 44.4313C45.5419 44.6182 45.9781 44.8407 46.2362 45.09C46.4944 45.3392 46.619 45.633 46.619 45.9712C46.619 46.4074 46.3965 46.7813 45.9425 47.1017C45.4885 47.4222 44.901 47.5824 44.18 47.5824C43.2987 47.5824 42.5332 47.3599 41.8923 46.9148C41.2514 46.4697 40.7974 45.9 40.5303 45.1968L38.1358 45.9178C38.5275 47.0038 39.2396 47.9207 40.2722 48.6684ZM36.7739 45.2146V36.7403H28.2818V38.9301H34.2904V45.1256C34.2904 45.8288 34.0767 46.4163 33.6495 46.8792C33.2222 47.3421 32.6436 47.5735 31.9137 47.5735C31.2638 47.5735 30.7208 47.3955 30.2847 47.0394C29.8485 46.6834 29.528 46.2116 29.3322 45.6152L27 46.2917C27.365 47.3599 27.9703 48.2055 28.8159 48.8286C29.6616 49.4517 30.7119 49.7633 31.9671 49.7633C33.4269 49.7633 34.593 49.3538 35.4654 48.526C36.3377 47.6981 36.7739 46.5943 36.7739 45.2146Z" fill="#40404B"/>
</svg>
