<svg width="50" height="50" viewBox="0 0 50 50" fill="none" xmlns="http://www.w3.org/2000/svg">
<path d="M48.041 36.5123C45.3727 37.9031 31.55 43.5865 28.6072 45.1207C25.6645 46.6551 24.0297 46.6402 21.7049 45.5289C19.3803 44.4176 4.67051 38.4758 2.0207 37.2092C0.696484 36.5764 0 36.042 0 35.5373V30.4834C0 30.4834 19.1504 26.3145 22.242 25.2053C25.3334 24.0961 26.4061 24.0561 29.0369 25.0197C31.6682 25.9838 47.3998 28.8221 50 29.7744L49.9988 34.7568C49.9992 35.2565 49.3992 35.8045 48.041 36.5123Z" fill="#912626"/>
<path d="M48.0401 31.4883C45.3719 32.8785 31.5496 38.5621 28.6069 40.0961C25.6643 41.6306 24.0295 41.6156 21.7049 40.5043C19.3801 39.3937 4.67092 33.4509 2.02131 32.1851C-0.628303 30.9185 -0.683772 30.0468 1.91896 29.0277C4.5217 28.0082 19.1502 22.2689 22.2422 21.1597C25.3336 20.0509 26.4061 20.0105 29.0369 20.9746C31.668 21.9383 45.4078 27.4072 48.0076 28.3593C50.6084 29.3127 50.7082 30.0976 48.0401 31.4883Z" fill="#C6302B"/>
<path d="M48.041 28.3348C45.3727 29.7258 31.55 35.409 28.6072 36.9437C25.6645 38.4775 24.0297 38.4627 21.7049 37.3514C19.3801 36.2406 4.67051 30.2982 2.0207 29.0316C0.696484 28.3988 0 27.8652 0 27.3604V22.3059C0 22.3059 19.1504 18.1371 22.242 17.0279C25.3334 15.9187 26.4061 15.8785 29.0369 16.8424C31.6684 17.8062 47.4 20.6439 50 21.5965L49.9988 26.5795C49.9992 27.0789 49.3992 27.627 48.041 28.3348Z" fill="#912626"/>
<path d="M48.0401 23.3107C45.3719 24.7014 31.5496 30.3846 28.6069 31.9191C25.6643 33.4531 24.0295 33.4381 21.7049 32.3267C19.3801 31.2162 4.67092 25.2736 2.02131 24.0076C-0.628303 22.7414 -0.683772 21.8695 1.91896 20.85C4.5217 19.831 19.1504 14.0914 22.2422 12.9824C25.3336 11.8734 26.4061 11.8332 29.0369 12.7971C31.668 13.7607 45.4078 19.2293 48.0076 20.1818C50.6084 21.1349 50.7082 21.9201 48.0401 23.3107Z" fill="#C6302B"/>
<path d="M48.041 19.8541C45.3727 21.2447 31.55 26.9283 28.6072 28.4631C25.6645 29.997 24.0297 29.982 21.7049 28.8707C19.3801 27.7599 4.67051 21.8174 2.0207 20.5513C0.696484 19.9179 0 19.3842 0 18.8799V13.8252C0 13.8252 19.1504 9.65662 22.242 8.54764C25.3334 7.43826 26.4061 7.39842 29.0369 8.36209C31.6684 9.32596 47.4 12.1637 50 13.1162L49.9988 18.099C49.9992 18.598 49.3992 19.1461 48.041 19.8541Z" fill="#912626"/>
<path d="M48.04 14.8301C45.3719 16.2207 31.5496 21.9043 28.6068 23.4383C25.6642 24.9723 24.0295 24.9572 21.7049 23.8465C19.3803 22.7352 4.67088 16.793 2.02147 15.5268C-0.62834 14.2607 -0.683613 13.3887 1.91893 12.3693C4.52166 11.3502 19.1504 5.61134 22.2422 4.50196C25.3336 3.39278 26.406 3.35294 29.0369 4.3168C31.668 5.28067 45.4078 10.7492 48.0076 11.7018C50.6084 12.6541 50.7082 13.4395 48.04 14.8301Z" fill="#C6302B"/>
<path d="M31.1099 9.91345L26.8111 10.3597L25.8488 12.6754L24.2945 10.0914L19.3306 9.64529L23.0345 8.30955L21.9232 6.25916L25.391 7.61541L28.6601 6.54509L27.7765 8.66521L31.1099 9.91345ZM25.5922 21.1474L17.5693 17.8199L29.0654 16.0552L25.5922 21.1474ZM14.4691 11.2006C17.8627 11.2006 20.6136 12.267 20.6136 13.5822C20.6136 14.8978 17.8627 15.964 14.4691 15.964C11.0756 15.964 8.32458 14.8976 8.32458 13.5822C8.32458 12.267 11.0756 11.2006 14.4691 11.2006Z" fill="white"/>
<path d="M36.1904 10.5465L42.9943 13.2351L36.1963 15.9213L36.1904 10.5465Z" fill="#621B1C"/>
<path d="M28.6631 13.524L36.1904 10.5465L36.1963 15.9213L35.4582 16.21L28.6631 13.524Z" fill="#9A2928"/>
</svg>
