<svg width="50" height="50" viewBox="0 0 50 50" fill="none" xmlns="http://www.w3.org/2000/svg">
<g clip-path="url(#clip0_5141_2044)">
<path d="M28.9781 5.25438C28.1322 3.85053 26.6129 2.99219 24.9739 2.99219C23.3349 2.99219 21.8156 3.85053 20.9697 5.25438L14.3829 16.5361C24.6223 21.6482 31.3846 31.805 32.1514 43.2239H27.5266C26.7612 33.4364 20.874 24.7845 12.0504 20.4802L5.9541 31.0212C10.9082 33.243 14.3902 37.8342 15.1937 43.2039H4.57266C4.31677 43.1858 4.08723 43.0399 3.96213 42.816C3.83704 42.592 3.83323 42.3201 3.95201 42.0927L6.89507 37.0875C5.89797 36.2556 4.7584 35.6112 3.53157 35.1855L0.61854 40.1908C0.00596945 41.2415 -0.159895 42.4939 0.158049 43.6678C0.475993 44.8418 1.25121 45.8393 2.3103 46.4373C3.00112 46.8265 3.77975 47.0332 4.57266 47.0379H19.1178C19.6672 40.258 16.6294 33.6848 11.1095 29.7098L13.4219 25.7057C20.3904 30.4918 24.3113 38.6039 23.7326 47.0379H36.0554C36.6394 34.2586 30.3823 22.1332 19.6283 15.2047L24.3032 7.1964C24.52 6.83312 24.9891 6.71249 25.3543 6.92612C25.8848 7.21642 45.6654 41.7324 46.0358 42.1328C46.1686 42.3709 46.1638 42.662 46.0232 42.8956C45.8826 43.1293 45.6277 43.2698 45.3551 43.2639H40.5902C40.6502 44.5386 40.6502 45.8099 40.5902 47.078H45.3751C46.6024 47.086 47.7819 46.6027 48.6507 45.7358C49.5195 44.8689 50.0053 43.6904 50 42.4631C50.0006 41.6606 49.7862 40.8725 49.3793 40.1807L28.9781 5.25438Z" fill="#362D59"/>
</g>
<defs>
<clipPath id="clip0_5141_2044">
<rect width="50" height="50" fill="white"/>
</clipPath>
</defs>
</svg>
