<svg width="72" height="72" viewBox="0 0 72 72" fill="none" xmlns="http://www.w3.org/2000/svg">
<rect width="72" height="72" fill="white"/>
<path d="M29.8385 6.93204C29.8137 6.75024 29.6563 6.64938 29.5256 6.6384C29.3959 6.62742 26.8549 6.58848 26.8549 6.58848C26.8549 6.58848 24.7297 4.50705 24.5198 4.29531C24.3099 4.08358 23.8999 4.14749 23.7405 4.19543C23.7385 4.19644 23.3415 4.32028 22.673 4.52902C22.5611 4.16348 22.3967 3.71403 22.162 3.26259C21.4055 1.8064 20.2974 1.03635 18.9585 1.03436C18.9566 1.03436 18.9556 1.03436 18.9536 1.03436C18.8605 1.03436 18.7684 1.04335 18.6754 1.05133C18.6358 1.00339 18.5961 0.956454 18.5546 0.910506C17.9713 0.281289 17.2237 -0.0253309 16.3275 0.00163567C14.5985 0.0515738 12.8765 1.31101 11.4802 3.54824C10.4978 5.12228 9.75019 7.09986 9.53829 8.63094C7.55282 9.25116 6.16447 9.6846 6.13378 9.69462C5.13164 10.0122 5.09996 10.0432 4.96924 10.996C4.8722 11.7161 2.25 32.1668 2.25 32.1668L24.2247 36L33.749 33.6119C33.749 33.6119 29.8632 7.11384 29.8385 6.93204ZM21.5728 4.87259C21.0668 5.0304 20.4915 5.21018 19.8676 5.40494C19.8547 4.52203 19.7508 3.29356 19.3428 2.23187C20.6549 2.48256 21.3005 3.9797 21.5728 4.87259ZM18.7179 5.76449C17.5663 6.12402 16.3096 6.51654 15.049 6.91008C15.4035 5.54077 16.0759 4.17746 16.9018 3.28357C17.2088 2.95098 17.6385 2.58044 18.1475 2.3687C18.6258 3.37545 18.7298 4.80068 18.7179 5.76449ZM16.3621 1.16219C16.7681 1.15321 17.1097 1.2431 17.4019 1.43686C16.9345 1.68155 16.4829 2.03312 16.0591 2.49155C14.9609 3.68008 14.1192 5.52479 13.7835 7.30458C12.7368 7.63116 11.7128 7.9518 10.7701 8.24544C11.3653 5.44389 13.6934 1.2401 16.3621 1.16219Z" fill="#95BF47"/>
<path d="M29.5265 6.6394C29.3968 6.62842 26.8558 6.58948 26.8558 6.58948C26.8558 6.58948 24.7308 4.50805 24.5208 4.29631C24.4426 4.21741 24.3367 4.17646 24.2257 4.15948L24.2267 35.999L33.75 33.612C33.75 33.612 29.8643 7.11484 29.8395 6.93304C29.8147 6.75124 29.6563 6.65038 29.5265 6.6394Z" fill="#5E8E3E"/>
<path d="M18.9467 11.5783L17.8406 15.7521C17.8406 15.7521 16.6067 15.1858 15.1441 15.2787C12.9992 15.4156 12.9764 16.7799 12.9982 17.1225C13.1151 18.9891 17.9841 19.3966 18.2575 23.7692C18.4724 27.2089 16.4482 29.562 13.532 29.7478C10.0314 29.9705 8.10437 27.8881 8.10437 27.8881L8.84608 24.706C8.84608 24.706 10.786 26.1822 12.3387 26.0833C13.3527 26.0184 13.7151 25.1865 13.6785 24.5982C13.526 22.1632 9.56102 22.307 9.31051 18.306C9.09957 14.9392 11.292 11.5274 16.1294 11.2198C17.993 11.0989 18.9467 11.5783 18.9467 11.5783Z" fill="white"/>
<path d="M52.6288 51.7701V71.64H36L52.6288 51.7701Z" fill="#03363D"/>
<path d="M52.6288 44.64C52.6288 49.1831 48.905 52.8685 44.3144 52.8685C39.7238 52.8685 36 49.1831 36 44.64H52.6288Z" fill="#03363D"/>
<path d="M55.3712 71.64C55.3712 67.0923 59.0905 63.4116 63.6856 63.4116C68.2808 63.4116 72 67.0969 72 71.64H55.3712Z" fill="#03363D"/>
<path d="M55.3712 64.5054V44.64H72L55.3712 64.5054Z" fill="#03363D"/>
</svg>
