<svg width="50" height="50" viewBox="0 0 50 50" fill="none" xmlns="http://www.w3.org/2000/svg">
<path d="M20.7212 4.81392C20.704 4.68767 20.5946 4.61763 20.5039 4.61C20.4138 4.60238 18.6492 4.57533 18.6492 4.57533C18.6492 4.57533 17.1734 3.1299 17.0276 2.98285C16.8819 2.83582 16.5972 2.8802 16.4865 2.9135C16.4851 2.91419 16.2093 3.0002 15.7452 3.14515C15.6675 2.8913 15.5533 2.57919 15.3903 2.26569C14.8649 1.25444 14.0954 0.719687 13.1657 0.718304C13.1643 0.718304 13.1636 0.718304 13.1622 0.718304C13.0976 0.718304 13.0336 0.724546 12.969 0.730092C12.9415 0.6968 12.914 0.664204 12.8851 0.632296C12.48 0.19534 11.9609 -0.0175909 11.3385 0.00113588C10.1378 0.0358151 8.94198 0.910425 7.97235 2.46405C7.29017 3.55714 6.77097 4.93046 6.62381 5.99371C5.24501 6.42442 4.28089 6.72542 4.25957 6.73238C3.56364 6.95292 3.54164 6.97442 3.45086 7.63613C3.38347 8.13617 1.5625 22.338 1.5625 22.338L16.8227 25L23.4368 23.3416C23.4368 23.3416 20.7384 4.94017 20.7212 4.81392ZM14.9811 3.38375C14.6297 3.49333 14.2302 3.61818 13.7969 3.75343C13.788 3.1403 13.7158 2.28719 13.4325 1.54991C14.3437 1.724 14.792 2.76368 14.9811 3.38375ZM12.9986 4.00312C12.1988 4.25279 11.3261 4.52537 10.4507 4.79867C10.6969 3.84775 11.1639 2.90101 11.7374 2.28025C11.9506 2.04929 12.249 1.79197 12.6025 1.64493C12.9346 2.34406 13.0068 3.33381 12.9986 4.00312ZM11.3626 0.807079C11.6445 0.800837 11.8818 0.863263 12.0847 0.997817C11.7601 1.16775 11.4465 1.41189 11.1522 1.73024C10.3895 2.55561 9.80499 3.83666 9.57186 5.07263C8.84498 5.29942 8.13392 5.52208 7.47926 5.726C7.89258 3.78048 9.50928 0.861179 11.3626 0.807079Z" fill="#95BF47"/>
<path d="M20.5046 4.61072C20.4145 4.60309 18.6499 4.57605 18.6499 4.57605C18.6499 4.57605 17.1742 3.13061 17.0284 2.98357C16.974 2.92877 16.9005 2.90034 16.8234 2.88855L16.8241 24.9993L23.4375 23.3417C23.4375 23.3417 20.7391 4.94088 20.7219 4.81463C20.7047 4.68838 20.5947 4.61834 20.5046 4.61072Z" fill="#5E8E3E"/>
<path d="M13.1574 8.04052L12.3893 10.939C12.3893 10.939 11.5325 10.5457 10.5168 10.6102C9.02723 10.7053 9.01141 11.6527 9.02657 11.8906C9.10771 13.1869 12.489 13.4699 12.6788 16.5064C12.828 18.8951 11.4224 20.5292 9.39722 20.6582C6.96627 20.8129 5.62805 19.3667 5.62805 19.3667L6.14313 17.157C6.14313 17.157 7.49027 18.1821 8.56855 18.1134C9.27275 18.0684 9.52442 17.4906 9.49897 17.0821C9.39309 15.3911 6.63962 15.491 6.46565 12.7125C6.31916 10.3744 7.84171 8.00514 11.201 7.79152C12.4952 7.7076 13.1574 8.04052 13.1574 8.04052Z" fill="white"/>
<path d="M34.1661 21C32.7842 21.001 31.6657 22.1203 31.6667 23.4995C31.6657 24.8787 32.7852 25.998 34.1671 25.999H36.6676V23.5005C36.6686 22.1213 35.5491 21.002 34.1661 21C34.1671 21 34.1671 21 34.1661 21ZM34.1661 27.6667H27.5004C26.1184 27.6677 24.999 28.787 25 30.1662C24.998 31.5454 26.1174 32.6646 27.4994 32.6667H34.1661C35.5481 32.6656 36.6676 31.5464 36.6665 30.1672C36.6676 28.787 35.5481 27.6677 34.1661 27.6667Z" fill="#36C5F0"/>
<path d="M50 30.1662C50.001 28.787 48.8816 27.6677 47.4996 27.6667C46.1177 27.6677 44.9982 28.787 44.9992 30.1662V32.6667H47.4996C48.8816 32.6656 50.001 31.5464 50 30.1662ZM43.3333 30.1662V23.4995C43.3343 22.1213 42.2159 21.002 40.8339 21C39.4519 21.001 38.3325 22.1203 38.3335 23.4995V30.1662C38.3315 31.5454 39.4509 32.6646 40.8329 32.6667C42.2149 32.6656 43.3343 31.5464 43.3333 30.1662Z" fill="#2EB67D"/>
<path d="M40.8328 46C42.2148 45.9989 43.3342 44.8797 43.3332 43.5005C43.3342 42.1213 42.2148 41.002 40.8328 41.001H38.3324V43.5005C38.3314 44.8787 39.4508 45.9979 40.8328 46ZM40.8328 39.3323H47.4995C48.8815 39.3313 50.001 38.212 49.9999 36.8328C50.002 35.4536 48.8825 34.3343 47.5006 34.3323H40.8338C39.4519 34.3333 38.3324 35.4526 38.3334 36.8318C38.3324 38.212 39.4508 39.3313 40.8328 39.3323Z" fill="#ECB22E"/>
<path d="M25 36.8329C24.999 38.2121 26.1184 39.3313 27.5004 39.3324C28.8824 39.3313 30.0018 38.2121 30.0008 36.8329V34.3334H27.5004C26.1184 34.3344 24.999 35.4537 25 36.8329ZM31.6667 36.8329V43.4995C31.6647 44.8787 32.7842 45.998 34.1661 46C35.5481 45.999 36.6675 44.8798 36.6665 43.5006V36.8349C36.6686 35.4557 35.5491 34.3364 34.1671 34.3344C32.7842 34.3344 31.6657 35.4537 31.6667 36.8329C31.6667 36.8339 31.6667 36.8329 31.6667 36.8329Z" fill="#E01E5A"/>
</svg>
