<svg width="50" height="50" viewBox="0 0 50 50" fill="none" xmlns="http://www.w3.org/2000/svg">
<path d="M18.3322 0C15.5683 0.00203874 13.3314 2.24057 13.3335 4.99898C13.3314 7.75739 15.5704 9.99592 18.3343 9.99796H23.3351V5.00102C23.3371 2.24261 21.0982 0.00407747 18.3322 0C18.3343 0 18.3343 0 18.3322 0ZM18.3322 13.3333H5.00083C2.2369 13.3354 -0.00203167 15.5739 5.56753e-06 18.3323C-0.00407448 21.0907 2.23485 23.3293 4.99878 23.3333H18.3322C21.0962 23.3313 23.3351 21.0928 23.3331 18.3344C23.3351 15.5739 21.0962 13.3354 18.3322 13.3333Z" fill="#36C5F0"/>
<path d="M50 18.3323C50.002 15.5739 47.7631 13.3354 44.9992 13.3333C42.2352 13.3354 39.9963 15.5739 39.9984 18.3323V23.3333H44.9992C47.7631 23.3313 50.002 21.0928 50 18.3323ZM36.6665 18.3323V4.99898C36.6686 2.24261 34.4317 0.00407747 31.6678 0C28.9038 0.00203874 26.6649 2.24057 26.6669 4.99898V18.3323C26.6629 21.0907 28.9018 23.3293 31.6657 23.3333C34.4296 23.3313 36.6686 21.0928 36.6665 18.3323Z" fill="#2EB67D"/>
<path d="M31.6657 50C34.4296 49.9979 36.6686 47.7594 36.6665 45.001C36.6686 42.2426 34.4296 40.0041 31.6657 40.002H26.6649V45.001C26.6629 47.7574 28.9018 49.9959 31.6657 50ZM31.6657 36.6646H44.9992C47.7631 36.6626 50.002 34.424 50 31.6656C50.0041 28.9072 47.7651 26.6687 45.0012 26.6646H31.6678C28.9038 26.6667 26.6649 28.9052 26.6669 31.6636C26.6649 34.424 28.9018 36.6626 31.6657 36.6646Z" fill="#ECB22E"/>
<path d="M9.97796e-06 31.6657C-0.00203144 34.4241 2.2369 36.6626 5.00083 36.6646C7.76476 36.6626 10.0037 34.4241 10.0016 31.6657V26.6667H5.00083C2.2369 26.6687 -0.00203144 28.9073 9.97796e-06 31.6657ZM13.3335 31.6657V44.999C13.3294 47.7574 15.5683 49.9959 18.3322 50C21.0962 49.998 23.3351 47.7594 23.3331 45.001V31.6697C23.3371 28.9113 21.0982 26.6728 18.3343 26.6687C15.5683 26.6687 13.3314 28.9073 13.3335 31.6657C13.3335 31.6677 13.3335 31.6657 13.3335 31.6657Z" fill="#E01E5A"/>
</svg>
