<svg width="50" height="50" viewBox="0 0 50 50" fill="none" xmlns="http://www.w3.org/2000/svg">
<path d="M25 25V8C25 5.79086 26.7909 4 29 4H44C46.2091 4 48 5.79086 48 8V22.1364" stroke="black" stroke-width="3"/>
<path d="M25 25V8C25 5.79086 23.2091 4 21 4H6C3.79086 4 2 5.79086 2 8V22.1364" stroke="black" stroke-width="3"/>
<path d="M25 40V20C25 17.7909 26.7909 16 29 16H44C46.2091 16 48 17.7909 48 20V37.1364" stroke="black" stroke-width="3"/>
<path d="M25 40V20C25 17.7909 23.2091 16 21 16H6C3.79086 16 2 17.7909 2 20V37.1364" stroke="black" stroke-width="3"/>
<path d="M29 10H44C46.2091 10 48 11.7909 48 14V30.1364V38.2727C48 40.4819 46.2091 42.2727 44 42.2727H32.5865C31.5555 42.2727 30.5644 42.6708 29.8198 43.3839L25.3383 47.676C25.2112 47.7978 25 47.7076 25 47.5315V33V14C25 11.7909 26.7909 10 29 10Z" stroke="black" stroke-width="3"/>
<path d="M21 10H6C3.79086 10 2 11.7909 2 14V30.1364V38.2727C2 40.4819 3.79086 42.2727 6 42.2727H17.4135C18.4445 42.2727 19.4356 42.6708 20.1802 43.3839L24.6617 47.676C24.7888 47.7978 25 47.7076 25 47.5315V33V14C25 11.7909 23.2091 10 21 10Z" stroke="black" stroke-width="3"/>
</svg>
