<svg width="50" height="50" viewBox="0 0 50 50" fill="none" xmlns="http://www.w3.org/2000/svg">
<path d="M24.738 0.207944C25.4516 -0.212884 26.3712 0.0244369 26.792 0.738016L37 18.0471L47.2079 0.738016C47.6288 0.0244369 48.5484 -0.212884 49.262 0.207944C49.9755 0.628773 50.2129 1.54839 49.792 2.26197L37 23.9528L24.2079 2.26197C23.7871 1.54839 24.0244 0.628773 24.738 0.207944Z" fill="#40404B"/>
<path d="M8 7.5C5.51472 7.5 3.5 9.51472 3.5 12V15.5H27C27.8284 15.5 28.5 16.1716 28.5 17C28.5 17.8284 27.8284 18.5 27 18.5H3.5V38C3.5 40.4853 5.51472 42.5 8 42.5H42C44.4853 42.5 46.5 40.4853 46.5 38V17.5C46.5 16.6716 47.1716 16 48 16C48.8284 16 49.5 16.6716 49.5 17.5V38C49.5 42.1421 46.1421 45.5 42 45.5H8C3.85787 45.5 0.5 42.1421 0.5 38V12C0.5 7.85786 3.85786 4.5 8 4.5H21C21.8284 4.5 22.5 5.17157 22.5 6C22.5 6.82843 21.8284 7.5 21 7.5H8Z" fill="#40404B"/>
<path d="M12 24.5C11.1716 24.5 10.5 25.1716 10.5 26C10.5 26.8284 11.1716 27.5 12 27.5H31C31.8284 27.5 32.5 26.8284 32.5 26C32.5 25.1716 31.8284 24.5 31 24.5H12Z" fill="#40404B"/>
<path d="M10.5 34C10.5 33.1716 11.1716 32.5 12 32.5H20.5C21.3284 32.5 22 33.1716 22 34C22 34.8284 21.3284 35.5 20.5 35.5H12C11.1716 35.5 10.5 34.8284 10.5 34Z" fill="#40404B"/>
<path d="M7.5 10C6.67157 10 6 10.6716 6 11.5C6 12.3284 6.67157 13 7.5 13H7.51C8.33843 13 9.01 12.3284 9.01 11.5C9.01 10.6716 8.33843 10 7.51 10H7.5Z" fill="#40404B"/>
<path d="M11 11.5C11 10.6716 11.6716 10 12.5 10H12.51C13.3384 10 14.01 10.6716 14.01 11.5C14.01 12.3284 13.3384 13 12.51 13H12.5C11.6716 13 11 12.3284 11 11.5Z" fill="#40404B"/>
<path d="M17.5 10C16.6716 10 16 10.6716 16 11.5C16 12.3284 16.6716 13 17.5 13H17.51C18.3384 13 19.01 12.3284 19.01 11.5C19.01 10.6716 18.3384 10 17.51 10H17.5Z" fill="#40404B"/>
<path d="M34.3417 1.3292C33.9712 0.588235 33.0702 0.287899 32.3293 0.658383C31.5883 1.02887 31.288 1.92988 31.6584 2.67084L37.0001 13.3541L42.3417 2.67084C42.7122 1.92988 42.4119 1.02887 41.6709 0.658383C40.9299 0.287899 40.0289 0.588235 39.6584 1.3292L37.0001 6.64592L34.3417 1.3292Z" fill="#40404B"/>
</svg>
