<svg width="50" height="50" viewBox="0 0 50 50" fill="none" xmlns="http://www.w3.org/2000/svg">
    <rect width="50" height="50" fill="white" />
    <path d="M34 35L30 39.6L33.8056 44" stroke="#5567D5" stroke-width="2" stroke-linecap="round" />
    <path d="M41 44L45 39.4L41.1944 35" stroke="#5567D5" stroke-width="2" stroke-linecap="round" />
    <path fill-rule="evenodd" clip-rule="evenodd"
        d="M10.9738 2.60413C16.3137 2.60413 20.6426 6.87646 20.6426 12.1466C20.6426 12.7188 20.5915 13.2793 20.4937 13.8238L22.995 13.8235C23.4396 13.8235 23.8001 14.1839 23.8001 14.6286C23.8001 15.0733 23.4396 15.4338 22.995 15.4338H14.7589C14.3142 15.4338 13.9538 15.7942 13.9538 16.2389C13.9538 16.6836 14.3142 17.0441 14.7589 17.0441H15.0648C15.5094 17.0441 15.8699 17.4045 15.8699 17.8492C15.8699 18.2939 15.5094 18.6544 15.0648 18.6544H14.1099C13.6652 18.6544 13.3047 19.0148 13.3047 19.4595C13.3047 19.9042 13.6652 20.2647 14.1099 20.2647H19.494C19.9387 20.2647 20.2992 20.6251 20.2992 21.0698C20.2992 21.5145 19.9387 21.875 19.494 21.875H5.35737C4.9127 21.875 4.55222 21.5145 4.55222 21.0698C4.55222 20.6251 4.9127 20.2647 5.35737 20.2647H8.61665C9.06132 20.2647 9.4218 19.9042 9.4218 19.4595C9.4218 19.0148 9.06132 18.6544 8.61665 18.6544H3.56386C3.11919 18.6544 2.75871 18.2939 2.75871 17.8492C2.75871 17.4045 3.11919 17.0441 3.56386 17.0441L3.93403 17.0436C3.91636 17.0397 3.89832 17.0357 3.87997 17.0318C4.26121 16.97 4.55222 16.6384 4.55222 16.2389C4.55222 15.7942 4.19174 15.4338 3.74707 15.4338H0.80515C0.360478 15.4338 0 15.0733 0 14.6286C0 14.1839 0.360478 13.8235 0.80515 13.8235L1.45388 13.8239C1.35605 13.2794 1.30502 12.7189 1.30502 12.1466C1.30502 6.87646 5.63387 2.60413 10.9738 2.60413ZM19.494 17.0441C19.9387 17.0441 20.2992 17.4045 20.2992 17.8492C20.2992 18.2939 19.9387 18.6544 19.494 18.6544H17.8024C17.3577 18.6544 16.9972 18.2939 16.9972 17.8492C16.9972 17.4045 17.3577 17.0441 17.8024 17.0441H19.494ZM24.1949 17.0441C24.6395 17.0441 25 17.4045 25 17.8492C25 18.2939 24.6395 18.6544 24.1949 18.6544H22.5032C22.0585 18.6544 21.698 18.2939 21.698 17.8492C21.698 17.4045 22.0585 17.0441 22.5032 17.0441H24.1949Z"
        fill="#EB6D4A" />
    <rect x="26" y="30" width="23" height="19" rx="5" stroke="#CCD1F2" stroke-width="2" />
</svg>