<svg width="72" height="72" viewBox="0 0 72 72" fill="none" xmlns="http://www.w3.org/2000/svg">
<rect width="72" height="72" fill="white"/>
<path d="M70.5 47.94C71.2908 47.94 71.9386 48.5519 71.9959 49.3281L72 49.44V66.0082C72 68.809 69.7835 71.093 67.011 71.187L66.8333 71.19H41.1667C38.3713 71.19 36.0966 68.9644 36.003 66.1862L36 66.0082V49.44C36 48.6116 36.6716 47.94 37.5 47.94C38.2908 47.94 38.9386 48.5519 38.9959 49.3281L39 49.44V66.0082C39 67.1715 39.9033 68.12 41.0395 68.1863L41.1667 68.19H66.8333C67.9859 68.19 68.9303 67.283 68.9963 66.1365L69 66.0082V49.44C69 48.6116 69.6716 47.94 70.5 47.94Z" fill="#CCD1F2"/>
<path d="M65.7548 40.44H42.239C41.3004 40.44 40.4052 40.8357 39.7735 41.53C38.5346 42.8916 38.634 44.9998 39.9956 46.2388L50.5102 55.8061C52.4801 57.5985 55.4897 57.5999 57.4612 55.8092L67.9959 46.2408C68.6915 45.609 69.0881 44.713 69.0881 43.7733C69.0881 41.9324 67.5957 40.44 65.7548 40.44ZM42.239 43.44H65.7548C65.9389 43.44 66.0881 43.5892 66.0881 43.7733C66.0881 43.8673 66.0484 43.9569 65.9789 44.0201L55.4442 53.5885C54.6174 54.3394 53.3553 54.3388 52.5292 53.5872L42.0147 44.0199C41.8785 43.896 41.8686 43.6852 41.9925 43.549C42.0556 43.4796 42.1451 43.44 42.239 43.44Z" fill="#5567D5"/>
<path fill-rule="evenodd" clip-rule="evenodd" d="M15.8023 3.75C23.4917 3.75 29.7253 9.90216 29.7253 17.4912C29.7253 18.3152 29.6518 19.1222 29.511 19.9063L33.1127 19.9058C33.7531 19.9058 34.2721 20.4249 34.2721 21.0653C34.2721 21.7056 33.7531 22.2247 33.1127 22.2247H21.2528C20.6125 22.2247 20.0934 22.7438 20.0934 23.3841C20.0934 24.0244 20.6125 24.5435 21.2528 24.5435H21.6933C22.3336 24.5435 22.8527 25.0626 22.8527 25.7029C22.8527 26.3433 22.3336 26.8623 21.6933 26.8623H20.3183C19.6779 26.8623 19.1588 27.3814 19.1588 28.0218C19.1588 28.6621 19.6779 29.1812 20.3183 29.1812H28.0714C28.7117 29.1812 29.2308 29.7003 29.2308 30.3406C29.2308 30.9809 28.7117 31.5 28.0714 31.5H7.71461C7.07429 31.5 6.5552 30.9809 6.5552 30.3406C6.5552 29.7003 7.07429 29.1812 7.71461 29.1812H12.408C13.0483 29.1812 13.5674 28.6621 13.5674 28.0218C13.5674 27.3814 13.0483 26.8623 12.408 26.8623H5.13196C4.49163 26.8623 3.97254 26.3433 3.97254 25.7029C3.97254 25.0626 4.49163 24.5435 5.13196 24.5435L5.665 24.5429C5.63955 24.5372 5.61358 24.5315 5.58715 24.5258C6.13614 24.4369 6.5552 23.9594 6.5552 23.3841C6.5552 22.7438 6.03611 22.2247 5.39578 22.2247H1.15942C0.519088 22.2247 0 21.7056 0 21.0653C0 20.4249 0.519088 19.9058 1.15942 19.9058L2.09359 19.9065C1.95272 19.1224 1.87922 18.3153 1.87922 17.4912C1.87922 9.90216 8.11278 3.75 15.8023 3.75ZM28.0714 24.5435C28.7117 24.5435 29.2308 25.0626 29.2308 25.7029C29.2308 26.3433 28.7117 26.8623 28.0714 26.8623H25.6354C24.9951 26.8623 24.476 26.3433 24.476 25.7029C24.476 25.0626 24.9951 24.5435 25.6354 24.5435H28.0714ZM34.8406 24.5435C35.4809 24.5435 36 25.0626 36 25.7029C36 26.3433 35.4809 26.8623 34.8406 26.8623H32.4046C31.7643 26.8623 31.2452 26.3433 31.2452 25.7029C31.2452 25.0626 31.7643 24.5435 32.4046 24.5435H34.8406Z" fill="#EB6D4A"/>
</svg>
