<svg width="24" height="24" viewBox="0 0 24 24" >
<path d="M12 3C10.22 3 8.47991 3.52784 6.99987 4.51677C5.51983 5.50571 4.36628 6.91131 3.68509 8.55585C3.0039 10.2004 2.82567 12.01 3.17294 13.7558C3.5202 15.5016 4.37737 17.1053 5.63604 18.364C6.89472 19.6226 8.49836 20.4798 10.2442 20.8271C11.99 21.1743 13.7996 20.9961 15.4442 20.3149C17.0887 19.6337 18.4943 18.4802 19.4832 17.0001C20.4722 15.5201 21 13.78 21 12C21 10.8181 20.7672 9.64778 20.3149 8.55585C19.8626 7.46392 19.1997 6.47177 18.364 5.63604C17.5282 4.80031 16.5361 4.13738 15.4442 3.68508C14.3522 3.23279 13.1819 3 12 3ZM12 19.6957C10.4779 19.6957 8.99007 19.2443 7.72453 18.3987C6.45898 17.5531 5.47261 16.3512 4.89015 14.945C4.30768 13.5388 4.15528 11.9915 4.45222 10.4987C4.74916 9.00584 5.4821 7.63461 6.55836 6.55835C7.63461 5.4821 9.00585 4.74916 10.4987 4.45222C11.9915 4.15528 13.5388 4.30768 14.945 4.89014C16.3512 5.47261 17.5531 6.45898 18.3987 7.72452C19.2443 8.99007 19.6957 10.4779 19.6957 12C19.6928 14.0401 18.8811 15.9959 17.4385 17.4385C15.9959 18.8811 14.0401 19.6928 12 19.6957Z" />
<path d="M12 17.2065C12.2883 17.2065 12.5648 17.092 12.7686 16.8882C12.9724 16.6843 13.087 16.4078 13.087 16.1196V11.1848C13.087 10.8965 12.9724 10.62 12.7686 10.4162C12.5648 10.2123 12.2883 10.0978 12 10.0978C11.7117 10.0978 11.4353 10.2123 11.2314 10.4162C11.0276 10.62 10.913 10.8965 10.913 11.1848V16.163C10.9243 16.4437 11.0437 16.7092 11.2464 16.9037C11.449 17.0982 11.7191 17.2068 12 17.2065Z" />
<path d="M12 9.01087C12.2883 9.01087 12.5648 8.89635 12.7686 8.69251C12.9724 8.48867 13.087 8.21219 13.087 7.92392C13.087 7.63564 12.9724 7.35917 12.7686 7.15532C12.5648 6.95148 12.2883 6.83696 12 6.83696C11.7117 6.83696 11.4353 6.95148 11.2314 7.15532C11.0276 7.35917 10.913 7.63564 10.913 7.92392C10.913 8.21219 11.0276 8.48867 11.2314 8.69251C11.4353 8.89635 11.7117 9.01087 12 9.01087Z" />
</svg>
