<svg width="24" height="24" viewBox="0 0 24 24" >
<path d="M12 3C10.22 3 8.47991 3.52784 6.99987 4.51677C5.51983 5.50571 4.36628 6.91131 3.68509 8.55585C3.0039 10.2004 2.82567 12.01 3.17294 13.7558C3.5202 15.5016 4.37737 17.1053 5.63604 18.364C6.89472 19.6226 8.49836 20.4798 10.2442 20.8271C11.99 21.1743 13.7996 20.9961 15.4442 20.3149C17.0887 19.6337 18.4943 18.4802 19.4832 17.0001C20.4722 15.5201 21 13.78 21 12C21 10.8181 20.7672 9.64778 20.3149 8.55585C19.8626 7.46392 19.1997 6.47177 18.364 5.63604C17.5282 4.80031 16.5361 4.13738 15.4442 3.68508C14.3522 3.23279 13.1819 3 12 3ZM12 19.6957C10.4779 19.6957 8.99007 19.2443 7.72453 18.3987C6.45898 17.5531 5.47261 16.3512 4.89015 14.945C4.30768 13.5388 4.15528 11.9915 4.45222 10.4987C4.74916 9.00584 5.4821 7.63461 6.55836 6.55835C7.63461 5.4821 9.00585 4.74916 10.4987 4.45222C11.9915 4.15528 13.5388 4.30768 14.945 4.89014C16.3512 5.47261 17.5531 6.45898 18.3987 7.72452C19.2443 8.99007 19.6957 10.4779 19.6957 12C19.6928 14.0401 18.8811 15.9959 17.4385 17.4385C15.9959 18.8811 14.0401 19.6928 12 19.6957Z" />
<path d="M12 6.02911C11.7117 6.02911 11.4353 6.14363 11.2314 6.34747C11.0276 6.55132 10.913 6.82779 10.913 7.11607V13.2682C10.913 13.5565 11.0276 13.833 11.2314 14.0368C11.4353 14.2407 11.7117 14.3552 12 14.3552C12.2883 14.3552 12.5648 14.2407 12.7686 14.0368C12.9724 13.833 13.087 13.5565 13.087 13.2682V7.11607C13.087 6.82779 12.9724 6.55132 12.7686 6.34747C12.5648 6.14363 12.2883 6.02911 12 6.02911Z" />
<path d="M12 15.3769C11.7117 15.3769 11.4353 15.4915 11.2314 15.6953C11.0276 15.8991 10.913 16.1756 10.913 16.4639C10.913 16.7522 11.0276 17.0286 11.2314 17.2325C11.4353 17.4363 11.7117 17.5508 12 17.5508C12.2883 17.5508 12.5648 17.4363 12.7686 17.2325C12.9724 17.0286 13.087 16.7522 13.087 16.4639C13.087 16.1756 12.9724 15.8991 12.7686 15.6953C12.5648 15.4915 12.2883 15.3769 12 15.3769Z" />
</svg>
