<svg width="24" height="24" viewBox="0 0 24 24" >
<path d="M12 16.5611C12.2883 16.5611 12.5648 16.4466 12.7686 16.2427C12.9724 16.0389 13.087 15.7624 13.087 15.4741V12.5393C13.087 12.2511 12.9724 11.9746 12.7686 11.7708C12.5648 11.5669 12.2883 11.4524 12 11.4524C11.7117 11.4524 11.4353 11.5669 11.2314 11.7708C11.0276 11.9746 10.9131 12.2511 10.9131 12.5393V15.5176C10.9243 15.7983 11.0437 16.0637 11.2464 16.2582C11.449 16.4528 11.7191 16.5613 12 16.5611Z" />
<path d="M12 10.7554C12.2883 10.7554 12.5648 10.6409 12.7686 10.437C12.9724 10.2332 13.087 9.95672 13.087 9.66844C13.087 9.38016 12.9724 9.10369 12.7686 8.89985C12.5648 8.696 12.2883 8.58148 12 8.58148C11.7117 8.58148 11.4353 8.696 11.2314 8.89985C11.0276 9.10369 10.9131 9.38016 10.9131 9.66844C10.9131 9.95672 11.0276 10.2332 11.2314 10.437C11.4353 10.6409 11.7117 10.7554 12 10.7554Z" />
<path fill-rule="evenodd" clip-rule="evenodd" d="M12 5.4L5.02689 17.4778H18.9731L12 5.4ZM12.866 4.5C12.4811 3.83333 11.5189 3.83333 11.134 4.5L3.81445 17.1778C3.42955 17.8444 3.91068 18.6778 4.68048 18.6778H19.3195C20.0893 18.6778 20.5704 17.8444 20.1855 17.1778L12.866 4.5Z" />
</svg>
