<svg width="24" height="24" viewBox="0 0 24 24" >
<path d="M12 3C10.22 3 8.47991 3.52784 6.99987 4.51677C5.51983 5.50571 4.36628 6.91131 3.68509 8.55585C3.0039 10.2004 2.82567 12.01 3.17294 13.7558C3.5202 15.5016 4.37737 17.1053 5.63604 18.364C6.89472 19.6226 8.49836 20.4798 10.2442 20.8271C11.99 21.1743 13.7996 20.9961 15.4442 20.3149C17.0887 19.6337 18.4943 18.4802 19.4832 17.0001C20.4722 15.5201 21 13.78 21 12C21 10.8181 20.7672 9.64778 20.3149 8.55585C19.8626 7.46392 19.1997 6.47177 18.364 5.63604C17.5282 4.80031 16.5361 4.13738 15.4442 3.68508C14.3522 3.23279 13.1819 3 12 3ZM12 19.6957C10.4779 19.6957 8.99007 19.2443 7.72453 18.3987C6.45898 17.5531 5.47261 16.3512 4.89015 14.945C4.30768 13.5388 4.15528 11.9915 4.45222 10.4987C4.74916 9.00584 5.4821 7.63461 6.55836 6.55835C7.63461 5.4821 9.00585 4.74916 10.4987 4.45222C11.9915 4.15528 13.5388 4.30768 14.945 4.89014C16.3512 5.47261 17.5531 6.45898 18.3987 7.72452C19.2443 8.99007 19.6957 10.4779 19.6957 12C19.6928 14.0401 18.8811 15.9959 17.4385 17.4385C15.9959 18.8811 14.0401 19.6928 12 19.6957Z" />
<path d="M15.413 8.89131L10.3696 13.9457L8.58696 12.163C8.48573 12.0595 8.36484 11.9773 8.23138 11.9211C8.09792 11.8649 7.95458 11.836 7.80979 11.836C7.66499 11.836 7.52166 11.8649 7.3882 11.9211C7.25474 11.9773 7.13384 12.0595 7.03261 12.163C6.92908 12.2643 6.84682 12.3852 6.79066 12.5186C6.7345 12.6521 6.70557 12.7954 6.70557 12.9402C6.70557 13.085 6.7345 13.2283 6.79066 13.3618C6.84682 13.4953 6.92908 13.6162 7.03261 13.7174L9.58696 16.2826C9.68819 16.3861 9.80908 16.4684 9.94254 16.5246C10.076 16.5807 10.2193 16.6096 10.3641 16.6096C10.5089 16.6096 10.6523 16.5807 10.7857 16.5246C10.9192 16.4684 11.0401 16.3861 11.1413 16.2826L16.9674 10.4565C17.0702 10.3545 17.1518 10.2332 17.2077 10.0995C17.2636 9.96592 17.2927 9.8226 17.2932 9.67776C17.2937 9.53292 17.2656 9.3894 17.2107 9.25539C17.1557 9.12138 17.0749 8.99951 16.9728 8.89674C16.8708 8.79397 16.7495 8.7123 16.6158 8.65641C16.4822 8.60051 16.3389 8.57149 16.1941 8.57098C16.0492 8.57048 15.9057 8.59851 15.7717 8.65347C15.6377 8.70843 15.5158 8.78925 15.413 8.89131Z" />
</svg>
