<?xml version="1.0" encoding="UTF-8"?>
<svg width="145px" height="48px" viewBox="0 0 145 48" version="1.1" xmlns="http://www.w3.org/2000/svg" xmlns:xlink="http://www.w3.org/1999/xlink">
    <title>41435F51-08A4-47BF-86EA-34F419CF12E9</title>
    <g id="Home" stroke="none" stroke-width="1" fill="none" fill-rule="evenodd">
        <g id="new-existing-integrations" transform="translate(-495.000000, -976.000000)">
            <g id="Group-Copy-15" transform="translate(495.000000, 976.000000)">
                <g id="Logo/GCalendar" fill-rule="nonzero">
                    <g id="006-sheets">
                        <path d="M34.819875,13.1470313 L34.819875,44.90775 C34.819875,46.6157813 33.4344375,47.9999063 31.7277188,47.9999063 L3.147375,47.9999063 C1.43934375,47.9999063 0.05521875,46.6157813 0.05521875,44.90775 L0.05521875,3.09215625 C0.05521875,1.384125 1.43925,0 3.147375,0 L21.6728438,0 L34.819875,13.1470313 Z" id="Path" fill="#28B446"></path>
                        <polygon id="Path" fill="#219B38" points="23.4665625 12.861375 34.819875 17.5386562 34.819875 13.1470313 28.3829062 11.2464375"></polygon>
                        <path d="M34.819875,13.1470312 L24.765,13.1470312 C23.056875,13.1470312 21.6728437,11.7629063 21.6728437,10.054875 L21.6728437,0 L34.819875,13.1470312 Z" id="Path" fill="#6ACE7C"></path>
                        <path d="M25.0420312,23.9011875 L9.832125,23.9011875 C9.2865,23.9011875 8.844375,24.3434063 8.844375,24.8889375 L8.844375,38.1235312 C8.844375,38.6689687 9.2865,39.1112812 9.832125,39.1112812 L25.0420312,39.1112812 C25.5876562,39.1112812 26.0297812,38.6690625 26.0297812,38.1235312 L26.0297812,24.8889375 C26.0297812,24.3435 25.5876562,23.9011875 25.0420312,23.9011875 Z M10.819875,30.2514375 L16.449375,30.2514375 L16.449375,32.7614063 L10.819875,32.7614063 L10.819875,30.2514375 Z M18.4247812,30.2514375 L24.0542812,30.2514375 L24.0542812,32.7614063 L18.4247812,32.7614063 L18.4247812,30.2514375 Z M24.054375,28.2760312 L18.424875,28.2760312 L18.424875,25.8766875 L24.054375,25.8766875 L24.054375,28.2760312 L24.054375,28.2760312 Z M16.449375,25.8766875 L16.449375,28.2759375 L10.819875,28.2759375 L10.819875,25.8766875 L16.449375,25.8766875 Z M10.819875,34.7368125 L16.449375,34.7368125 L16.449375,37.1360625 L10.819875,37.1360625 L10.819875,34.7368125 Z M18.4247812,37.1359687 L18.4247812,34.7367188 L24.0542812,34.7367188 L24.0542812,37.1359687 L18.4247812,37.1359687 Z" id="Shape" fill="#FFFFFF"></path>
                    </g>
                </g>
                <g id="Logo/Twilio" transform="translate(97.000000, 6.000000)" fill-rule="nonzero">
                    <g id="Gmail_icon_(2020)">
                        <path d="M3.27272727,36.5454545 L10.9090909,36.5454545 L10.9090909,18 L0,9.81818182 L0,33.2727273 C0,35.0836364 1.46727273,36.5454545 3.27272727,36.5454545" id="Path" fill="#4285F4"></path>
                        <path d="M37.0909091,36.5454545 L44.7272727,36.5454545 C46.5381818,36.5454545 48,35.0781818 48,33.2727273 L48,9.81818182 L37.0909091,18" id="Path" fill="#34A853"></path>
                        <path d="M37.0909091,3.81818182 L37.0909091,18 L48,9.81818182 L48,5.45454545 C48,1.40727273 43.38,-0.9 40.1454545,1.52727273" id="Path" fill="#FBBC04"></path>
                        <polyline id="Path" fill="#EA4335" points="10.9090909 18 10.9090909 3.81818182 24 13.6363636 37.0909091 3.81818182 37.0909091 18 24 27.8181818"></polyline>
                        <path d="M0,5.45454545 L0,9.81818182 L10.9090909,18 L10.9090909,3.81818182 L7.85454545,1.52727273 C4.61454545,-0.9 0,1.40727273 0,5.45454545" id="Path" fill="#C5221F"></path>
                    </g>
                </g>
                <text id="→" font-family="GilmerRegular, Gilmer Regular" font-size="24" font-weight="normal" line-spacing="16" fill="#1D2028">
                    <tspan x="59" y="32">→</tspan>
                </text>
            </g>
        </g>
    </g>
</svg>