<?xml version="1.0" encoding="UTF-8"?>
<svg width="48px" height="46px" viewBox="0 0 48 46" version="1.1" xmlns="http://www.w3.org/2000/svg" xmlns:xlink="http://www.w3.org/1999/xlink">
    <title>7A02723E-8B4C-4975-BDBA-1230B96F6535</title>
    <g id="Apps" stroke="none" stroke-width="1" fill="none" fill-rule="evenodd">
        <g id="apps-UI-kit" transform="translate(-470.000000, -1814.000000)" fill="#5567D5" fill-rule="nonzero">
            <g id="Logo/Samples/Content-routing" transform="translate(470.000000, 1814.000000)">
                <path d="M36.5,0 C42.5751322,0 47.5,4.92486775 47.5,11 C47.5,17.0751322 42.5751322,22 36.5,22 C31.1080066,22 26.6221317,18.120446 25.6814526,13.0004156 L21.057971,13 L20.8431466,13.0049057 C18.4226985,13.1156911 16.5,15.0888797 16.5,17.5 C16.5,19.9111203 18.4226985,21.8843089 20.8431466,21.9950943 L21.057971,22 L26.942029,22 C31.1129696,22 34.5,25.3546186 34.5,29.5 C34.5,33.5640994 31.2444922,36.8681423 27.1864546,36.9961501 L26.942029,37 L22.3185474,37.0004156 C21.3778683,42.120446 16.8919934,46 11.5,46 C5.42486775,46 0.5,41.0751322 0.5,35 C0.5,28.9248678 5.42486775,24 11.5,24 C17.238136,24 21.9500817,28.3936431 22.4551817,34.000274 L26.942029,34 C29.4625383,34 31.5,31.9820356 31.5,29.5 C31.5,27.0888797 29.5773015,25.1156911 27.1568534,25.0049057 L26.942029,25 L21.057971,25 L20.8135454,24.9961501 C16.7555078,24.8681423 13.5,21.5640994 13.5,17.5 C13.5,13.4359006 16.7555078,10.1318577 20.8135454,10.0038499 L21.057971,10 L25.5448183,10.000274 C26.0499183,4.39364311 30.761864,0 36.5,0 Z M11.5,27 C7.081722,27 3.5,30.581722 3.5,35 C3.5,39.418278 7.081722,43 11.5,43 C15.918278,43 19.5,39.418278 19.5,35 C19.5,30.581722 15.918278,27 11.5,27 Z M11.5,37.5 C12.3284271,37.5 13,38.1715729 13,39 C13,39.8284271 12.3284271,40.5 11.5,40.5 C10.6715729,40.5 10,39.8284271 10,39 C10,38.1715729 10.6715729,37.5 11.5,37.5 Z M11.5,29 C12.2796961,29 12.9204487,29.5948881 12.9931334,30.35554 L13,30.5 L13,34.6269592 C13,35.4553864 12.3284271,36.1269592 11.5,36.1269592 C10.7203039,36.1269592 10.0795513,35.5320711 10.0068666,34.7714192 L10,34.6269592 L10,30.5 C10,29.6715729 10.6715729,29 11.5,29 Z M36.5,3 C32.081722,3 28.5,6.581722 28.5,11 C28.5,15.418278 32.081722,19 36.5,19 C40.918278,19 44.5,15.418278 44.5,11 C44.5,6.581722 40.918278,3 36.5,3 Z M34.5217395,7.14475328 L34.6168542,7.23123617 L36.5025754,9.1160145 L38.3880904,7.23123617 C38.9087895,6.71053711 39.7530094,6.71053711 40.2737085,7.23123617 C40.7637782,7.72130587 40.7926058,8.49795465 40.3601914,9.02173953 L40.2737085,9.11685425 L38.3884292,11.0018683 L40.2737085,12.8880904 C40.7944076,13.4087895 40.7944076,14.2530094 40.2737085,14.7737085 C39.7836388,15.2637782 39.00699,15.2926058 38.4832051,14.8601914 L38.3880904,14.7737085 L36.5025754,12.8877221 L34.6168542,14.7737085 C34.0961552,15.2944076 33.2519352,15.2944076 32.7312362,14.7737085 C32.2411665,14.2836388 32.2123388,13.50699 32.6447533,12.9832051 L32.7312362,12.8880904 L34.6167216,11.0018683 L32.7312362,9.11685425 C32.2105371,8.59615519 32.2105371,7.75193522 32.7312362,7.23123617 C33.2213059,6.74116647 33.9979546,6.71233884 34.5217395,7.14475328 Z" id="Combined-Shape"></path>
            </g>
        </g>
    </g>
</svg>