<?xml version="1.0" encoding="UTF-8"?>
<svg width="152px" height="48px" viewBox="0 0 152 48" version="1.1" xmlns="http://www.w3.org/2000/svg" xmlns:xlink="http://www.w3.org/1999/xlink">
    <title>994CEFE3-B741-48B4-AEDB-E2CF901474AD</title>
    <g id="Home" stroke="none" stroke-width="1" fill="none" fill-rule="evenodd">
        <g id="new-existing-integrations" transform="translate(-1112.000000, -1224.000000)">
            <g id="Group-Copy-18" transform="translate(1112.000000, 1224.000000)">
                <g id="Logo/GCalendar" fill="#CF272D" fill-rule="nonzero">
                    <g id="Twilio">
                        <path d="M24,41.6745205 C14.2421918,41.6745205 6.32547945,33.7578082 6.32547945,24 C6.32547945,14.2421918 14.2421918,6.32547945 24,6.32547945 C33.7578082,6.32547945 41.6745205,14.2421918 41.6745205,24 C41.6745205,33.7578082 33.7578082,41.6745205 24,41.6745205 Z M24,0 C10.7441096,0 0,10.7441096 0,24 C0,37.2558904 10.7441096,48 24,48 C37.2558904,48 48,37.2558904 48,24 C48,10.7441096 37.2558904,0 24,0 Z" id="XMLID_5_"></path>
                        <path d="M24.9836066,18.0327869 C24.9836066,15.2786885 27.2131148,13.0622951 29.9540984,13.0622951 C32.7081967,13.0622951 34.9245902,15.2918033 34.9245902,18.0327869 C34.9245902,20.7868852 32.695082,23.0033363 29.9540984,23.0033363 C27.2131148,23.0163934 24.9836066,20.7868852 24.9836066,18.0327869" id="XMLID_6_"></path>
                        <path d="M24.9836066,29.9672131 C24.9836066,27.2131148 27.2131148,24.9967213 29.9540984,24.9967213 C32.7081967,24.9967213 34.9245902,27.2262295 34.9245902,29.9672131 C34.9245902,32.7213115 32.695082,34.9377049 29.9540984,34.9377049 C27.2131148,34.9377049 24.9836066,32.7081967 24.9836066,29.9672131" id="XMLID_7_"></path>
                        <path d="M13.0622951,29.9672131 C13.0622951,27.2131148 15.2918033,24.9967213 18.0327869,24.9967213 C20.7868852,24.9967213 23.0032787,27.2262295 23.0032787,29.9672131 C23.0032787,32.7213115 20.7737705,34.9377049 18.0327869,34.9377049 C15.2918033,34.9377049 13.0622951,32.7081967 13.0622951,29.9672131" id="XMLID_8_"></path>
                        <path d="M13.0622951,18.0327869 C13.0622951,15.2786885 15.2918033,13.0622951 18.0327869,13.0622951 C20.7868852,13.0622951 23.0032787,15.2918033 23.0032787,18.0327869 C23.0032787,20.7737705 20.7737705,23.0033363 18.0327869,23.0033363 C15.2918033,23.0163934 13.0622951,20.7868852 13.0622951,18.0327869" id="XMLID_9_"></path>
                    </g>
                </g>
                <g id="Logo/Twilio" transform="translate(104.000000, 6.000000)" fill-rule="nonzero">
                    <g id="Gmail_icon_(2020)">
                        <path d="M3.27272727,36.5454545 L10.9090909,36.5454545 L10.9090909,18 L0,9.81818182 L0,33.2727273 C0,35.0836364 1.46727273,36.5454545 3.27272727,36.5454545" id="Path" fill="#4285F4"></path>
                        <path d="M37.0909091,36.5454545 L44.7272727,36.5454545 C46.5381818,36.5454545 48,35.0781818 48,33.2727273 L48,9.81818182 L37.0909091,18" id="Path" fill="#34A853"></path>
                        <path d="M37.0909091,3.81818182 L37.0909091,18 L48,9.81818182 L48,5.45454545 C48,1.40727273 43.38,-0.9 40.1454545,1.52727273" id="Path" fill="#FBBC04"></path>
                        <polyline id="Path" fill="#EA4335" points="10.9090909 18 10.9090909 3.81818182 24 13.6363636 37.0909091 3.81818182 37.0909091 18 24 27.8181818"></polyline>
                        <path d="M0,5.45454545 L0,9.81818182 L10.9090909,18 L10.9090909,3.81818182 L7.85454545,1.52727273 C4.61454545,-0.9 0,1.40727273 0,5.45454545" id="Path" fill="#C5221F"></path>
                    </g>
                </g>
                <text id="→" font-family="GilmerRegular, Gilmer Regular" font-size="24" font-weight="normal" line-spacing="16" fill="#1D2028">
                    <tspan x="66" y="32">→</tspan>
                </text>
            </g>
        </g>
    </g>
</svg>