<?xml version="1.0" encoding="UTF-8"?>
<svg width="152px" height="48px" viewBox="0 0 152 48" version="1.1" xmlns="http://www.w3.org/2000/svg" xmlns:xlink="http://www.w3.org/1999/xlink">
    <title>96B8B8FD-E43F-4F57-9EFC-0C4EACA6EF92</title>
    <g id="Home" stroke="none" stroke-width="1" fill="none" fill-rule="evenodd">
        <g id="new-existing-integrations" transform="translate(-488.000000, -728.000000)">
            <g id="Group-Copy-6" transform="translate(488.000000, 728.000000)">
                <g id="Logo/GCalendar" transform="translate(0.000000, 3.000000)" fill-rule="nonzero">
                    <path d="M3.62886598,36.8532051 L5.74570447,40.5192308 C6.18556701,41.2910256 6.81786942,41.8974359 7.56013746,42.3384615 L15.1202749,29.2179487 L0,29.2179487 C0,30.0724359 0.219931271,30.9269231 0.659793814,31.6987179 L3.62886598,36.8532051 Z" id="Path" fill="#0066DA"></path>
                    <path d="M24,13.7820513 L16.4398625,0.661538462 C15.6975945,1.1025641 15.0652921,1.70897436 14.6254296,2.48076923 L0.659793814,26.7371795 C0.228020893,27.4923301 0.000574879964,28.3475079 0,29.2179487 L15.1202749,29.2179487 L24,13.7820513 Z" id="Path" fill="#00AC47"></path>
                    <path d="M40.4398625,42.3384615 C41.1821306,41.8974359 41.814433,41.2910256 42.2542955,40.5192308 L43.1340206,39.0032051 L47.3402062,31.6987179 C47.7800687,30.9269231 48,30.0724359 48,29.2179487 L32.8786254,29.2179487 L36.0962199,35.5576923 L40.4398625,42.3384615 Z" id="Path" fill="#EA4335"></path>
                    <path d="M24,13.7820513 L31.5601375,0.661538462 C30.8178694,0.220512821 29.9656357,0 29.0859107,0 L18.9140893,0 C18.0343643,0 17.1821306,0.248076923 16.4398625,0.661538462 L24,13.7820513 Z" id="Path" fill="#00832D"></path>
                    <path d="M32.8797251,29.2179487 L15.1202749,29.2179487 L7.56013746,42.3384615 C8.3024055,42.7794872 9.15463918,43 10.0343643,43 L37.9656357,43 C38.8453608,43 39.6975945,42.7519231 40.4398625,42.3384615 L32.8797251,29.2179487 Z" id="Path" fill="#2684FC"></path>
                    <path d="M40.3573883,14.6089744 L33.3745704,2.48076923 C32.9347079,1.70897436 32.3024055,1.1025641 31.5601375,0.661538462 L24,13.7820513 L32.8797251,29.2179487 L47.9725086,29.2179487 C47.9725086,28.3634615 47.7525773,27.5089744 47.3127148,26.7371795 L40.3573883,14.6089744 Z" id="Path" fill="#FFBA00"></path>
                </g>
                <g id="Logo/Twilio" transform="translate(104.000000, 0.000000)" fill="#CF272D" fill-rule="nonzero">
                    <g id="Twilio">
                        <path d="M24,41.6745205 C14.2421918,41.6745205 6.32547945,33.7578082 6.32547945,24 C6.32547945,14.2421918 14.2421918,6.32547945 24,6.32547945 C33.7578082,6.32547945 41.6745205,14.2421918 41.6745205,24 C41.6745205,33.7578082 33.7578082,41.6745205 24,41.6745205 Z M24,0 C10.7441096,0 0,10.7441096 0,24 C0,37.2558904 10.7441096,48 24,48 C37.2558904,48 48,37.2558904 48,24 C48,10.7441096 37.2558904,0 24,0 Z" id="XMLID_5_"></path>
                        <path d="M24.9836066,18.0327869 C24.9836066,15.2786885 27.2131148,13.0622951 29.9540984,13.0622951 C32.7081967,13.0622951 34.9245902,15.2918033 34.9245902,18.0327869 C34.9245902,20.7868852 32.695082,23.0033363 29.9540984,23.0033363 C27.2131148,23.0163934 24.9836066,20.7868852 24.9836066,18.0327869" id="XMLID_6_"></path>
                        <path d="M24.9836066,29.9672131 C24.9836066,27.2131148 27.2131148,24.9967213 29.9540984,24.9967213 C32.7081967,24.9967213 34.9245902,27.2262295 34.9245902,29.9672131 C34.9245902,32.7213115 32.695082,34.9377049 29.9540984,34.9377049 C27.2131148,34.9377049 24.9836066,32.7081967 24.9836066,29.9672131" id="XMLID_7_"></path>
                        <path d="M13.0622951,29.9672131 C13.0622951,27.2131148 15.2918033,24.9967213 18.0327869,24.9967213 C20.7868852,24.9967213 23.0032787,27.2262295 23.0032787,29.9672131 C23.0032787,32.7213115 20.7737705,34.9377049 18.0327869,34.9377049 C15.2918033,34.9377049 13.0622951,32.7081967 13.0622951,29.9672131" id="XMLID_8_"></path>
                        <path d="M13.0622951,18.0327869 C13.0622951,15.2786885 15.2918033,13.0622951 18.0327869,13.0622951 C20.7868852,13.0622951 23.0032787,15.2918033 23.0032787,18.0327869 C23.0032787,20.7737705 20.7737705,23.0033363 18.0327869,23.0033363 C15.2918033,23.0163934 13.0622951,20.7868852 13.0622951,18.0327869" id="XMLID_9_"></path>
                    </g>
                </g>
                <text id="→" font-family="GilmerRegular, Gilmer Regular" font-size="24" font-weight="normal" line-spacing="16" fill="#1D2028">
                    <tspan x="66" y="32">→</tspan>
                </text>
            </g>
        </g>
    </g>
</svg>