<?xml version="1.0" encoding="UTF-8"?>
<svg width="152px" height="48px" viewBox="0 0 152 48" version="1.1" xmlns="http://www.w3.org/2000/svg" xmlns:xlink="http://www.w3.org/1999/xlink">
    <title>5571F109-81D5-4C42-BD6C-434E3C934565</title>
    <g id="Home" stroke="none" stroke-width="1" fill="none" fill-rule="evenodd">
        <g id="new-existing-integrations" transform="translate(-1113.000000, -480.000000)">
            <g id="Group-Copy-6" transform="translate(1113.000000, 480.000000)">
                <g id="Logo/GCalendar" fill="#161514">
                    <path d="M23.99779,0 C10.7465545,0 0,11.0170092 0,24.6081283 C0,35.4801173 6.87608582,44.7025005 16.4130268,47.956393 C17.6138003,48.1829872 18.0513828,47.4231413 18.0513828,46.7705501 C18.0513828,46.1874477 18.030756,44.6390541 18.0189693,42.5861108 C11.3432579,44.0725687 9.93474324,39.2868995 9.93474324,39.2868995 C8.84299702,36.4438978 7.26946806,35.6870733 7.26946806,35.6870733 C5.09039565,34.1613391 7.43448234,34.1915517 7.43448234,34.1915517 C9.84339605,34.3652739 11.1104699,36.7278959 11.1104699,36.7278959 C13.2512355,40.4878487 16.7283219,39.4017073 18.095583,38.7717754 C18.3136376,37.1825949 18.9339145,36.0979641 19.6190184,35.4831385 C14.2899414,34.8622704 8.6868228,32.7504127 8.6868228,23.3210734 C8.6868228,20.635177 9.62239479,18.4372134 11.1576169,16.7181189 C10.9100955,16.0957402 10.0864974,13.5926298 11.3933515,10.205802 C11.3933515,10.205802 13.4074097,9.54414701 17.9924491,12.7285506 C19.90632,12.1817033 21.9601584,11.9097903 24.0007367,11.8992159 C26.0398416,11.9097903 28.0922066,12.1817033 30.0090242,12.7285506 C34.591117,9.54414701 36.6022284,10.205802 36.6022284,10.205802 C37.9120292,13.5926298 37.0884312,16.0957402 36.8423831,16.7181189 C38.3805519,18.4372134 39.3087572,20.635177 39.3087572,23.3210734 C39.3087572,32.7745827 33.6967986,34.8547173 28.3515148,35.4635003 C29.2119463,36.2233462 29.9795574,37.7249103 29.9795574,40.0210647 C29.9795574,43.3097016 29.9500905,45.9638748 29.9500905,46.7705501 C29.9500905,47.4291839 30.383253,48.1950722 31.6002333,47.9548824 C41.1298075,44.6934368 48,35.477096 48,24.6081283 C48,11.0170092 37.2534455,0 23.99779,0" id="Fill-4"></path>
                </g>
                <g id="Logo/Twilio" transform="translate(104.000000, 0.000000)" fill="#CF272D" fill-rule="nonzero">
                    <g id="Twilio">
                        <path d="M24,41.6745205 C14.2421918,41.6745205 6.32547945,33.7578082 6.32547945,24 C6.32547945,14.2421918 14.2421918,6.32547945 24,6.32547945 C33.7578082,6.32547945 41.6745205,14.2421918 41.6745205,24 C41.6745205,33.7578082 33.7578082,41.6745205 24,41.6745205 Z M24,0 C10.7441096,0 0,10.7441096 0,24 C0,37.2558904 10.7441096,48 24,48 C37.2558904,48 48,37.2558904 48,24 C48,10.7441096 37.2558904,0 24,0 Z" id="XMLID_5_"></path>
                        <path d="M24.9836066,18.0327869 C24.9836066,15.2786885 27.2131148,13.0622951 29.9540984,13.0622951 C32.7081967,13.0622951 34.9245902,15.2918033 34.9245902,18.0327869 C34.9245902,20.7868852 32.695082,23.0033363 29.9540984,23.0033363 C27.2131148,23.0163934 24.9836066,20.7868852 24.9836066,18.0327869" id="XMLID_6_"></path>
                        <path d="M24.9836066,29.9672131 C24.9836066,27.2131148 27.2131148,24.9967213 29.9540984,24.9967213 C32.7081967,24.9967213 34.9245902,27.2262295 34.9245902,29.9672131 C34.9245902,32.7213115 32.695082,34.9377049 29.9540984,34.9377049 C27.2131148,34.9377049 24.9836066,32.7081967 24.9836066,29.9672131" id="XMLID_7_"></path>
                        <path d="M13.0622951,29.9672131 C13.0622951,27.2131148 15.2918033,24.9967213 18.0327869,24.9967213 C20.7868852,24.9967213 23.0032787,27.2262295 23.0032787,29.9672131 C23.0032787,32.7213115 20.7737705,34.9377049 18.0327869,34.9377049 C15.2918033,34.9377049 13.0622951,32.7081967 13.0622951,29.9672131" id="XMLID_8_"></path>
                        <path d="M13.0622951,18.0327869 C13.0622951,15.2786885 15.2918033,13.0622951 18.0327869,13.0622951 C20.7868852,13.0622951 23.0032787,15.2918033 23.0032787,18.0327869 C23.0032787,20.7737705 20.7737705,23.0033363 18.0327869,23.0033363 C15.2918033,23.0163934 13.0622951,20.7868852 13.0622951,18.0327869" id="XMLID_9_"></path>
                    </g>
                </g>
                <text id="→" font-family="GilmerRegular, Gilmer Regular" font-size="24" font-weight="normal" line-spacing="16" fill="#1D2028">
                    <tspan x="66" y="32">→</tspan>
                </text>
            </g>
        </g>
    </g>
</svg>