<?xml version="1.0" encoding="UTF-8"?>
<svg width="43px" height="48px" viewBox="0 0 43 48" version="1.1" xmlns="http://www.w3.org/2000/svg" xmlns:xlink="http://www.w3.org/1999/xlink">
    <title>EDCE275A-A830-4918-9240-221F46FC80F0</title>
    <g id="Apps" stroke="none" stroke-width="1" fill="none" fill-rule="evenodd">
        <g id="apps-library" transform="translate(-483.000000, -264.000000)" fill="#5567D5" fill-rule="nonzero">
            <g id="Logo/GitHub-Copy" transform="translate(483.000000, 264.000000)">
                <path d="M19.0319724,0.951251222 C20.5626458,0.0824906572 22.4373542,0.0824906572 23.9680276,0.951251222 L23.9680276,0.951251222 L40.4680276,10.3161161 C42.0330242,11.2043574 43,12.8650493 43,14.6645457 L43,14.6645457 L43,33.3354543 C43,35.1349507 42.0330242,36.7956426 40.4680276,37.6838839 L40.4680276,37.6838839 L23.9680276,47.0487488 C22.4373542,47.9175093 20.5626458,47.9175093 19.0319724,47.0487488 L19.0319724,47.0487488 L2.5319724,37.6838839 C0.966975802,36.7956426 0,35.1349507 0,33.3354543 L0,33.3354543 L0,14.6645457 C0,12.8650493 0.966975802,11.2043574 2.5319724,10.3161161 L2.5319724,10.3161161 Z M22.487211,3.56030897 C21.8749417,3.21280474 21.1250583,3.21280474 20.512789,3.56030897 L20.512789,3.56030897 L4.01278896,12.9251738 C3.38679032,13.2804704 3,13.9447471 3,14.6645457 L3,14.6645457 L3,33.3354543 C3,34.0552529 3.38679032,34.7195296 4.01278896,35.0748262 L4.01278896,35.0748262 L20.512789,44.439691 C21.1250583,44.7871953 21.8749417,44.7871953 22.487211,44.439691 L22.487211,44.439691 L38.987211,35.0748262 C39.6132097,34.7195296 40,34.0552529 40,33.3354543 L40,33.3354543 L40,14.6645457 C40,13.9447471 39.6132097,13.2804704 38.987211,12.9251738 L38.987211,12.9251738 Z M21.5,11.7667501 L31.7515544,17.7018606 C32.468497,18.1169326 32.7132115,19.0346118 32.2981394,19.7515544 C31.9074834,20.4263239 31.0716113,20.6827875 30.3769055,20.3645766 L30.2484456,20.2981394 L23,16.1006808 L23,33.5 C23,34.3284271 22.3284271,35 21.5,35 C20.7203039,35 20.0795513,34.4051119 20.0068666,33.64446 L20,33.5 L20,16.1006808 L12.7515544,20.2981394 C12.0767849,20.6887955 11.2242003,20.495004 10.7801828,19.8731335 L10.7018606,19.7515544 C10.3112045,19.0767849 10.504996,18.2242003 11.1268665,17.7801828 L11.2484456,17.7018606 L21.5,11.7667501 Z" id="Combined-Shape"></path>
            </g>
        </g>
    </g>
</svg>