<?xml version="1.0" encoding="UTF-8"?>
<svg width="152px" height="48px" viewBox="0 0 152 48" version="1.1" xmlns="http://www.w3.org/2000/svg" xmlns:xlink="http://www.w3.org/1999/xlink">
    <title>7BB4C4E0-CF0A-4095-937F-F8DCC8C71A42</title>
    <g id="Home" stroke="none" stroke-width="1" fill="none" fill-rule="evenodd">
        <g id="new-integrations" transform="translate(-176.000000, -232.000000)">
            <g id="Group" transform="translate(176.000000, 232.000000)">
                <g id="Logo/GCalendar" fill="#CF272D" fill-rule="nonzero">
                    <g id="Twilio">
                        <path d="M24,41.6745205 C14.2421918,41.6745205 6.32547945,33.7578082 6.32547945,24 C6.32547945,14.2421918 14.2421918,6.32547945 24,6.32547945 C33.7578082,6.32547945 41.6745205,14.2421918 41.6745205,24 C41.6745205,33.7578082 33.7578082,41.6745205 24,41.6745205 Z M24,0 C10.7441096,0 0,10.7441096 0,24 C0,37.2558904 10.7441096,48 24,48 C37.2558904,48 48,37.2558904 48,24 C48,10.7441096 37.2558904,0 24,0 Z" id="XMLID_5_"></path>
                        <path d="M24.9836066,18.0327869 C24.9836066,15.2786885 27.2131148,13.0622951 29.9540984,13.0622951 C32.7081967,13.0622951 34.9245902,15.2918033 34.9245902,18.0327869 C34.9245902,20.7868852 32.695082,23.0033363 29.9540984,23.0033363 C27.2131148,23.0163934 24.9836066,20.7868852 24.9836066,18.0327869" id="XMLID_6_"></path>
                        <path d="M24.9836066,29.9672131 C24.9836066,27.2131148 27.2131148,24.9967213 29.9540984,24.9967213 C32.7081967,24.9967213 34.9245902,27.2262295 34.9245902,29.9672131 C34.9245902,32.7213115 32.695082,34.9377049 29.9540984,34.9377049 C27.2131148,34.9377049 24.9836066,32.7081967 24.9836066,29.9672131" id="XMLID_7_"></path>
                        <path d="M13.0622951,29.9672131 C13.0622951,27.2131148 15.2918033,24.9967213 18.0327869,24.9967213 C20.7868852,24.9967213 23.0032787,27.2262295 23.0032787,29.9672131 C23.0032787,32.7213115 20.7737705,34.9377049 18.0327869,34.9377049 C15.2918033,34.9377049 13.0622951,32.7081967 13.0622951,29.9672131" id="XMLID_8_"></path>
                        <path d="M13.0622951,18.0327869 C13.0622951,15.2786885 15.2918033,13.0622951 18.0327869,13.0622951 C20.7868852,13.0622951 23.0032787,15.2918033 23.0032787,18.0327869 C23.0032787,20.7737705 20.7737705,23.0033363 18.0327869,23.0033363 C15.2918033,23.0163934 13.0622951,20.7868852 13.0622951,18.0327869" id="XMLID_9_"></path>
                    </g>
                </g>
                <g id="Logo/Twilio" transform="translate(111.000000, 0.000000)" fill-rule="nonzero">
                    <g id="006-sheets">
                        <path d="M34.819875,13.1470313 L34.819875,44.90775 C34.819875,46.6157813 33.4344375,47.9999063 31.7277188,47.9999063 L3.147375,47.9999063 C1.43934375,47.9999063 0.05521875,46.6157813 0.05521875,44.90775 L0.05521875,3.09215625 C0.05521875,1.384125 1.43925,0 3.147375,0 L21.6728438,0 L34.819875,13.1470313 Z" id="Path" fill="#28B446"></path>
                        <polygon id="Path" fill="#219B38" points="23.4665625 12.861375 34.819875 17.5386562 34.819875 13.1470313 28.3829062 11.2464375"></polygon>
                        <path d="M34.819875,13.1470312 L24.765,13.1470312 C23.056875,13.1470312 21.6728437,11.7629063 21.6728437,10.054875 L21.6728437,0 L34.819875,13.1470312 Z" id="Path" fill="#6ACE7C"></path>
                        <path d="M25.0420312,23.9011875 L9.832125,23.9011875 C9.2865,23.9011875 8.844375,24.3434063 8.844375,24.8889375 L8.844375,38.1235312 C8.844375,38.6689687 9.2865,39.1112812 9.832125,39.1112812 L25.0420312,39.1112812 C25.5876562,39.1112812 26.0297812,38.6690625 26.0297812,38.1235312 L26.0297812,24.8889375 C26.0297812,24.3435 25.5876562,23.9011875 25.0420312,23.9011875 Z M10.819875,30.2514375 L16.449375,30.2514375 L16.449375,32.7614063 L10.819875,32.7614063 L10.819875,30.2514375 Z M18.4247812,30.2514375 L24.0542812,30.2514375 L24.0542812,32.7614063 L18.4247812,32.7614063 L18.4247812,30.2514375 Z M24.054375,28.2760312 L18.424875,28.2760312 L18.424875,25.8766875 L24.054375,25.8766875 L24.054375,28.2760312 L24.054375,28.2760312 Z M16.449375,25.8766875 L16.449375,28.2759375 L10.819875,28.2759375 L10.819875,25.8766875 L16.449375,25.8766875 Z M10.819875,34.7368125 L16.449375,34.7368125 L16.449375,37.1360625 L10.819875,37.1360625 L10.819875,34.7368125 Z M18.4247812,37.1359687 L18.4247812,34.7367188 L24.0542812,34.7367188 L24.0542812,37.1359687 L18.4247812,37.1359687 Z" id="Shape" fill="#FFFFFF"></path>
                    </g>
                </g>
                <text id="→" font-family="GilmerRegular, Gilmer Regular" font-size="24" font-weight="normal" line-spacing="16" fill="#1D2028">
                    <tspan x="66" y="32">→</tspan>
                </text>
            </g>
        </g>
    </g>
</svg>