<?xml version="1.0" encoding="UTF-8"?>
<svg width="46px" height="46px" viewBox="0 0 46 46" version="1.1" xmlns="http://www.w3.org/2000/svg" xmlns:xlink="http://www.w3.org/1999/xlink">
    <title>C55C4665-1E55-42A5-889A-B8BE153420BE</title>
    <g id="Apps" stroke="none" stroke-width="1" fill="none" fill-rule="evenodd">
        <g id="apps-UI-kit" transform="translate(-599.000000, -1814.000000)" fill="#5567D5" fill-rule="nonzero">
            <g id="Logo/Samples/Header-routing" transform="translate(599.000000, 1814.000000)">
                <path d="M6,34.5 C9.03756612,34.5 11.5,36.9624339 11.5,40 C11.5,43.0375661 9.03756612,45.5 6,45.5 C2.96243388,45.5 0.5,43.0375661 0.5,40 C0.5,36.9624339 2.96243388,34.5 6,34.5 Z M6,37.5 C4.61928813,37.5 3.5,38.6192881 3.5,40 C3.5,41.3807119 4.61928813,42.5 6,42.5 C7.38071187,42.5 8.5,41.3807119 8.5,40 C8.5,38.6192881 7.38071187,37.5 6,37.5 Z M14.0302525,38.5 C14.8586796,38.5 15.5302525,39.1715729 15.5302525,40 C15.5302525,40.8284271 14.8586796,41.5 14.0302525,41.5 C13.2018253,41.5 12.5302525,40.8284271 12.5302525,40 C12.5302525,39.1715729 13.2018253,38.5 14.0302525,38.5 Z M26.0302525,38.5 C26.8586796,38.5 27.5302525,39.1715729 27.5302525,40 C27.5302525,40.8284271 26.8586796,41.5 26.0302525,41.5 C25.2018253,41.5 24.5302525,40.8284271 24.5302525,40 C24.5302525,39.1715729 25.2018253,38.5 26.0302525,38.5 Z M20.0302525,38.5 C20.8586796,38.5 21.5302525,39.1715729 21.5302525,40 C21.5302525,40.8284271 20.8586796,41.5 20.0302525,41.5 C19.2018253,41.5 18.5302525,40.8284271 18.5302525,40 C18.5302525,39.1715729 19.2018253,38.5 20.0302525,38.5 Z M32.0302525,38.5 C32.8586796,38.5 33.5302525,39.1715729 33.5302525,40 C33.5302525,40.8284271 32.8586796,41.5 32.0302525,41.5 C31.2018253,41.5 30.5302525,40.8284271 30.5302525,40 C30.5302525,39.1715729 31.2018253,38.5 32.0302525,38.5 Z M37.7875919,37.0072279 C38.6160191,37.0072279 39.2875919,37.6788008 39.2875919,38.5072279 C39.2875919,39.335655 38.6160191,40.0072279 37.7875919,40.0072279 C36.9591648,40.0072279 36.2875919,39.335655 36.2875919,38.5072279 C36.2875919,37.6788008 36.9591648,37.0072279 37.7875919,37.0072279 Z M41.2410541,32.1943889 C42.0694812,32.1943889 42.7410541,32.8659617 42.7410541,33.6943889 C42.7410541,34.522816 42.0694812,35.1943889 41.2410541,35.1943889 C40.4126269,35.1943889 39.7410541,34.522816 39.7410541,33.6943889 C39.7410541,32.8659617 40.4126269,32.1943889 41.2410541,32.1943889 Z M23,12 C29.0751322,12 34,16.9248678 34,23 C34,29.0751322 29.0751322,34 23,34 C16.9248678,34 12,29.0751322 12,23 C12,16.9248678 16.9248678,12 23,12 Z M23,15 C18.581722,15 15,18.581722 15,23 C15,27.418278 18.581722,31 23,31 C27.418278,31 31,27.418278 31,23 C31,18.581722 27.418278,15 23,15 Z M40.6736603,26.3038993 C41.5020874,26.3038993 42.1736603,26.9754722 42.1736603,27.8038993 C42.1736603,28.6323264 41.5020874,29.3038993 40.6736603,29.3038993 C39.8452332,29.3038993 39.1736603,28.6323264 39.1736603,27.8038993 C39.1736603,26.9754722 39.8452332,26.3038993 40.6736603,26.3038993 Z M23,25.5 C23.8284271,25.5 24.5,26.1715729 24.5,27 C24.5,27.8284271 23.8284271,28.5 23,28.5 C22.1715729,28.5 21.5,27.8284271 21.5,27 C21.5,26.1715729 22.1715729,25.5 23,25.5 Z M36.3866234,22.228548 C37.2150505,22.228548 37.8866234,22.9001209 37.8866234,23.728548 C37.8866234,24.5569752 37.2150505,25.228548 36.3866234,25.228548 C35.5581963,25.228548 34.8866234,24.5569752 34.8866234,23.728548 C34.8866234,22.9001209 35.5581963,22.228548 36.3866234,22.228548 Z M23,17 C23.7796961,17 24.4204487,17.5948881 24.4931334,18.35554 L24.5,18.5 L24.5,22.6269592 C24.5,23.4553864 23.8284271,24.1269592 23,24.1269592 C22.2203039,24.1269592 21.5795513,23.5320711 21.5068666,22.7714192 L21.5,22.6269592 L21.5,18.5 C21.5,17.6715729 22.1715729,17 23,17 Z M8.14362907,20.771452 C8.9720562,20.771452 9.64362907,21.4430248 9.64362907,22.271452 C9.64362907,23.0998791 8.9720562,23.771452 8.14362907,23.771452 C7.31520195,23.771452 6.64362907,23.0998791 6.64362907,22.271452 C6.64362907,21.4430248 7.31520195,20.771452 8.14362907,20.771452 Z M3.85659218,16.6961007 C4.6850193,16.6961007 5.35659218,17.3676736 5.35659218,18.1961007 C5.35659218,19.0245278 4.6850193,19.6961007 3.85659218,19.6961007 C3.02816505,19.6961007 2.35659218,19.0245278 2.35659218,18.1961007 C2.35659218,17.3676736 3.02816505,16.6961007 3.85659218,16.6961007 Z M3.2891984,10.8056111 C4.11762552,10.8056111 4.7891984,11.477184 4.7891984,12.3056111 C4.7891984,13.1340383 4.11762552,13.8056111 3.2891984,13.8056111 C2.46077127,13.8056111 1.7891984,13.1340383 1.7891984,12.3056111 C1.7891984,11.477184 2.46077127,10.8056111 3.2891984,10.8056111 Z M40,0.5 C43.0375661,0.5 45.5,2.96243388 45.5,6 C45.5,9.03756612 43.0375661,11.5 40,11.5 C36.9624339,11.5 34.5,9.03756612 34.5,6 C34.5,2.96243388 36.9624339,0.5 40,0.5 Z M6.74266052,5.9927721 C7.57108765,5.9927721 8.24266052,6.66434498 8.24266052,7.4927721 C8.24266052,8.32119923 7.57108765,8.9927721 6.74266052,8.9927721 C5.9142334,8.9927721 5.24266052,8.32119923 5.24266052,7.4927721 C5.24266052,6.66434498 5.9142334,5.9927721 6.74266052,5.9927721 Z M40,3.5 C38.6192881,3.5 37.5,4.61928813 37.5,6 C37.5,7.38071187 38.6192881,8.5 40,8.5 C41.3807119,8.5 42.5,7.38071187 42.5,6 C42.5,4.61928813 41.3807119,3.5 40,3.5 Z M30.5,4.5 C31.3284271,4.5 32,5.17157288 32,6 C32,6.82842712 31.3284271,7.5 30.5,7.5 C29.6715729,7.5 29,6.82842712 29,6 C29,5.17157288 29.6715729,4.5 30.5,4.5 Z M18.5,4.5 C19.3284271,4.5 20,5.17157288 20,6 C20,6.82842712 19.3284271,7.5 18.5,7.5 C17.6715729,7.5 17,6.82842712 17,6 C17,5.17157288 17.6715729,4.5 18.5,4.5 Z M24.5,4.5 C25.3284271,4.5 26,5.17157288 26,6 C26,6.82842712 25.3284271,7.5 24.5,7.5 C23.6715729,7.5 23,6.82842712 23,6 C23,5.17157288 23.6715729,4.5 24.5,4.5 Z M12.5,4.5 C13.3284271,4.5 14,5.17157288 14,6 C14,6.82842712 13.3284271,7.5 12.5,7.5 C11.6715729,7.5 11,6.82842712 11,6 C11,5.17157288 11.6715729,4.5 12.5,4.5 Z" id="Combined-Shape"></path>
            </g>
        </g>
    </g>
</svg>