<?xml version="1.0" encoding="UTF-8"?>
<svg width="152px" height="48px" viewBox="0 0 152 48" version="1.1" xmlns="http://www.w3.org/2000/svg" xmlns:xlink="http://www.w3.org/1999/xlink">
    <title>1046E18A-AAA7-41FC-860D-24A618BBB748</title>
    <g id="Home" stroke="none" stroke-width="1" fill="none" fill-rule="evenodd">
        <g id="new-existing-integrations" transform="translate(-176.000000, -232.000000)">
            <g id="Group" transform="translate(176.000000, 232.000000)">
                <g id="Logo/GCalendar" transform="translate(0.000000, 8.000000)" fill-rule="nonzero">
                    <g id="Salesforce">
                        <path d="M19.9868852,3.6852459 C21.5344262,2.07213115 23.6852459,1.07540984 26.0590164,1.07540984 C29.2196721,1.07540984 31.9737705,2.83278689 33.442623,5.4557377 C34.7147541,4.89180328 36.1311475,4.56393443 37.6131148,4.56393443 C43.3180328,4.56393443 47.9344262,9.21967213 47.9344262,14.9770492 C47.9344262,20.7213115 43.3180328,25.3901639 37.6131148,25.3901639 C36.9180328,25.3901639 36.2360656,25.3245902 35.5803279,25.1934426 C34.2819672,27.5016393 31.8295082,29.0622951 28.9967213,29.0622951 C27.8163934,29.0622951 26.6885246,28.7868852 25.6918033,28.3016393 C24.3803279,31.3836066 21.3245902,33.547541 17.7704918,33.547541 C14.0590164,33.547541 10.9114754,31.2 9.69180328,27.9081967 C9.16721311,28.0262295 8.61639344,28.0786885 8.05245902,28.0786885 C3.64590164,28.0786885 0.0655737705,24.4590164 0.0655737705,20 C0.0655737705,17.0098361 1.67868852,14.4 4.06557377,13.0098361 C3.58032787,11.8819672 3.30491803,10.6360656 3.30491803,9.31147541 C3.30491803,4.18360656 7.46229508,0.0262295082 12.6032787,0.0262295082 C15.6065574,0.0393442623 18.2819672,1.46885246 19.9868852,3.6852459" id="XMLID_3_" fill="#00A1E0"></path>
                        <path d="M7.00327869,17.4032787 C6.97704918,17.4819672 7.01639344,17.495082 7.0295082,17.5081967 C7.12131148,17.5737705 7.21311475,17.6262295 7.30491803,17.6786885 C7.79016393,17.9409836 8.24918033,18.0196721 8.73442623,18.0196721 C9.71803279,18.0196721 10.3213115,17.495082 10.3213115,16.6557377 L10.3213115,16.642623 C10.3213115,15.8688525 9.63934426,15.5803279 8.98360656,15.3836066 L8.90491803,15.357377 C8.41967213,15.2 8,15.0688525 8,14.7409836 L8,14.7278689 C8,14.452459 8.24918033,14.2557377 8.6295082,14.2557377 C9.04918033,14.2557377 9.56065574,14.4 9.87540984,14.5704918 C9.87540984,14.5704918 9.96721311,14.6360656 10.0065574,14.5442623 C10.0196721,14.4918033 10.1901639,14.0590164 10.2032787,14.0065574 C10.2163934,13.9540984 10.1901639,13.9147541 10.1508197,13.9016393 C9.78360656,13.6786885 9.27213115,13.5213115 8.74754098,13.5213115 L8.6557377,13.5213115 C7.75081967,13.5213115 7.13442623,14.0590164 7.13442623,14.8459016 L7.13442623,14.8590164 C7.13442623,15.6852459 7.8295082,15.947541 8.47213115,16.1311475 L8.57704918,16.157377 C9.04918033,16.3016393 9.4557377,16.4327869 9.4557377,16.7606557 L9.4557377,16.7737705 C9.4557377,17.0754098 9.19344262,17.2983607 8.76065574,17.2983607 C8.59016393,17.2983607 8.06557377,17.2983607 7.50163934,16.9311475 C7.43606557,16.8918033 7.39672131,16.8655738 7.3442623,16.8262295 C7.31803279,16.8131148 7.25245902,16.7737705 7.21311475,16.8655738 L7.00327869,17.4032787 Z" id="XMLID_4_" fill="#FFFFFF"></path>
                        <path d="M21.3770492,17.4032787 C21.3508197,17.4819672 21.3901639,17.495082 21.4032787,17.5081967 C21.495082,17.5737705 21.5868852,17.6262295 21.6786885,17.6786885 C22.1639344,17.9409836 22.6229508,18.0196721 23.1081967,18.0196721 C24.0918033,18.0196721 24.695082,17.495082 24.695082,16.6557377 L24.695082,16.642623 C24.695082,15.8688525 24.0131148,15.5803279 23.357377,15.3836066 L23.2786885,15.357377 C22.7934426,15.2 22.3737705,15.0688525 22.3737705,14.7409836 L22.3737705,14.7278689 C22.3737705,14.452459 22.6229508,14.2557377 23.0032787,14.2557377 C23.4229508,14.2557377 23.9344262,14.4 24.2491803,14.5704918 C24.2491803,14.5704918 24.3409836,14.6360656 24.3803279,14.5442623 C24.3934426,14.4918033 24.5639344,14.0590164 24.5770492,14.0065574 C24.5901639,13.9540984 24.5639344,13.9147541 24.5245902,13.9016393 C24.157377,13.6786885 23.6459016,13.5213115 23.1213115,13.5213115 L23.0295082,13.5213115 C22.1245902,13.5213115 21.5081967,14.0590164 21.5081967,14.8459016 L21.5081967,14.8590164 C21.5081967,15.6852459 22.2032787,15.947541 22.8459016,16.1311475 L22.9508197,16.157377 C23.4229508,16.3016393 23.8295082,16.4327869 23.8295082,16.7606557 L23.8295082,16.7737705 C23.8295082,17.0754098 23.5672131,17.2983607 23.1344262,17.2983607 C22.9639344,17.2983607 22.4393443,17.2983607 21.8754098,16.9311475 C21.8098361,16.8918033 21.7704918,16.8655738 21.7180328,16.8262295 C21.704918,16.8131148 21.6131148,16.7868852 21.5868852,16.8655738 L21.3770492,17.4032787 Z" id="XMLID_5_" fill="#FFFFFF"></path>
                        <path d="M31.1868852,15.7639344 C31.1868852,16.2360656 31.095082,16.6163934 30.9245902,16.8786885 C30.7540984,17.1409836 30.4918033,17.2721311 30.1245902,17.2721311 C29.757377,17.2721311 29.495082,17.1409836 29.3245902,16.8786885 C29.1540984,16.6163934 29.0622951,16.2360656 29.0622951,15.7639344 C29.0622951,15.2918033 29.1540984,14.9114754 29.3245902,14.6491803 C29.495082,14.3868852 29.757377,14.2688525 30.1245902,14.2688525 C30.4918033,14.2688525 30.7540984,14.4 30.9245902,14.6491803 C31.095082,14.9114754 31.1868852,15.2918033 31.1868852,15.7639344 M32.0131148,14.8852459 C31.9344262,14.6098361 31.8032787,14.3737705 31.6459016,14.1770492 C31.4754098,13.9803279 31.2655738,13.8098361 31.0163934,13.6918033 C30.7672131,13.5737705 30.4655738,13.5213115 30.1377049,13.5213115 C29.8098361,13.5213115 29.5081967,13.5868852 29.2590164,13.6918033 C29.0098361,13.8098361 28.8,13.9672131 28.6295082,14.1770492 C28.4590164,14.3737705 28.3409836,14.6229508 28.2622951,14.8852459 C28.1836066,15.1606557 28.1442623,15.4491803 28.1442623,15.7639344 C28.1442623,16.0786885 28.1836066,16.3803279 28.2622951,16.642623 C28.3409836,16.9180328 28.4721311,17.1540984 28.6295082,17.3508197 C28.8,17.547541 29.0098361,17.7180328 29.2590164,17.8229508 C29.5081967,17.9409836 29.8098361,17.9934426 30.1377049,17.9934426 C30.4655738,17.9934426 30.7672131,17.9409836 31.0163934,17.8229508 C31.2655738,17.704918 31.4754098,17.547541 31.6459016,17.3508197 C31.8163934,17.1540984 31.9344262,16.904918 32.0131148,16.642623 C32.0918033,16.3672131 32.1311475,16.0786885 32.1311475,15.7639344 C32.1311475,15.4491803 32.0918033,15.147541 32.0131148,14.8852459" id="XMLID_8_" fill="#FFFFFF"></path>
                        <path d="M38.7409836,17.1409836 C38.7147541,17.0622951 38.6360656,17.0885246 38.6360656,17.0885246 C38.5180328,17.1278689 38.3868852,17.1803279 38.2557377,17.1934426 C38.1245902,17.2196721 37.9672131,17.2196721 37.8098361,17.2196721 C37.4163934,17.2196721 37.1016393,17.1016393 36.8786885,16.8655738 C36.6557377,16.6295082 36.5245902,16.2491803 36.5245902,15.7508197 C36.5245902,15.2918033 36.642623,14.9377049 36.8393443,14.6754098 C37.0360656,14.4131148 37.3377049,14.2688525 37.7442623,14.2688525 C38.0852459,14.2688525 38.3344262,14.3081967 38.6098361,14.3868852 C38.6098361,14.3868852 38.6754098,14.4131148 38.7016393,14.3344262 C38.7672131,14.1377049 38.8327869,13.9934426 38.8983607,13.7704918 C38.9245902,13.704918 38.8721311,13.6786885 38.8459016,13.6786885 C38.7409836,13.6393443 38.4918033,13.5737705 38.295082,13.5344262 C38.1114754,13.5081967 37.9147541,13.495082 37.6786885,13.495082 C37.3377049,13.495082 37.0229508,13.547541 36.7606557,13.6655738 C36.4983607,13.7836066 36.2754098,13.9409836 36.104918,14.1377049 C35.9344262,14.3344262 35.7901639,14.5836066 35.7114754,14.8459016 C35.6196721,15.1213115 35.5803279,15.4098361 35.5803279,15.7245902 C35.5803279,16.4065574 35.7639344,16.957377 36.1311475,17.3508197 C36.4983607,17.757377 37.0360656,17.9540984 37.7442623,17.9540984 C38.1639344,17.9540984 38.5967213,17.8754098 38.8983607,17.7442623 C38.8983607,17.7442623 38.9639344,17.7180328 38.9377049,17.652459 L38.7409836,17.1409836 Z" id="XMLID_9_" fill="#FFFFFF"></path>
                        <path d="M40.1704918,15.304918 C40.2098361,15.042623 40.2885246,14.8196721 40.3934426,14.6491803 C40.5639344,14.3868852 40.8262295,14.242623 41.1803279,14.242623 C41.547541,14.242623 41.7836066,14.3868852 41.9540984,14.6491803 C42.0721311,14.8196721 42.1245902,15.0557377 42.1377049,15.304918 L40.1704918,15.304918 Z M42.9377049,14.7278689 C42.8721311,14.4655738 42.7016393,14.2032787 42.5836066,14.0852459 C42.4,13.8885246 42.2295082,13.757377 42.0590164,13.6786885 C41.8360656,13.5868852 41.5606557,13.5213115 41.2590164,13.5213115 C40.9180328,13.5213115 40.6032787,13.5737705 40.3409836,13.704918 C40.0918033,13.8229508 39.8688525,13.9934426 39.6983607,14.1901639 C39.5278689,14.3868852 39.3967213,14.6360656 39.3180328,14.9114754 C39.2393443,15.1868852 39.2,15.4885246 39.2,15.8032787 C39.2,16.1180328 39.2393443,16.4196721 39.3311475,16.695082 C39.4098361,16.9704918 39.5540984,17.2065574 39.7377049,17.4032787 C39.9213115,17.6 40.157377,17.757377 40.4327869,17.8622951 C40.7081967,17.9672131 41.0491803,18.0196721 41.442623,18.0196721 C42.242623,18.0196721 42.6622951,17.8360656 42.8459016,17.7442623 C42.8721311,17.7311475 42.9114754,17.6918033 42.8721311,17.6131148 L42.6885246,17.1016393 C42.6622951,17.0229508 42.5836066,17.0491803 42.5836066,17.0491803 C42.3868852,17.1278689 42.0983607,17.2590164 41.442623,17.2590164 C41.0098361,17.2590164 40.695082,17.1278689 40.4983607,16.9311475 C40.2885246,16.7344262 40.1967213,16.4327869 40.1704918,16.0131148 L42.9508197,16.0131148 C42.9508197,16.0131148 43.0295082,16.0131148 43.0295082,15.9344262 C43.0163934,15.895082 43.1081967,15.357377 42.9377049,14.7278689 Z" id="XMLID_12_" fill="#FFFFFF"></path>
                        <path d="M17.9540984,15.304918 C17.9934426,15.042623 18.0721311,14.8196721 18.1770492,14.6491803 C18.347541,14.3868852 18.6098361,14.242623 18.9639344,14.242623 C19.3311475,14.242623 19.5672131,14.3868852 19.7377049,14.6491803 C19.8557377,14.8196721 19.895082,15.0557377 19.9213115,15.304918 L17.9540984,15.304918 Z M20.7081967,14.7278689 C20.642623,14.4655738 20.4721311,14.2032787 20.3540984,14.0852459 C20.1704918,13.8885246 20,13.757377 19.8295082,13.6786885 C19.6065574,13.5868852 19.3311475,13.5213115 19.0295082,13.5213115 C18.6885246,13.5213115 18.3737705,13.5737705 18.1114754,13.704918 C17.8622951,13.8229508 17.6393443,13.9934426 17.4688525,14.1901639 C17.2983607,14.3868852 17.1672131,14.6360656 17.0885246,14.9114754 C17.0098361,15.1868852 16.9704918,15.4885246 16.9704918,15.8032787 C16.9704918,16.1180328 17.0098361,16.4196721 17.1016393,16.695082 C17.1803279,16.9704918 17.3245902,17.2065574 17.5081967,17.4032787 C17.6918033,17.6 17.9278689,17.757377 18.2032787,17.8622951 C18.4786885,17.9672131 18.8196721,18.0196721 19.2131148,18.0196721 C20.0131148,18.0196721 20.4327869,17.8360656 20.6163934,17.7442623 C20.642623,17.7311475 20.6819672,17.6918033 20.642623,17.6131148 L20.4590164,17.1016393 C20.4327869,17.0229508 20.3540984,17.0491803 20.3540984,17.0491803 C20.157377,17.1278689 19.8688525,17.2590164 19.2131148,17.2590164 C18.7803279,17.2590164 18.4655738,17.1278689 18.2688525,16.9311475 C18.0590164,16.7344262 17.9672131,16.4327869 17.9409836,16.0131148 L20.7213115,16.0131148 C20.7213115,16.0131148 20.8,16.0131148 20.8,15.9344262 C20.8,15.895082 20.8918033,15.357377 20.7081967,14.7278689 Z" id="XMLID_15_" fill="#FFFFFF"></path>
                        <path d="M11.947541,17.1278689 C11.842623,17.0360656 11.8295082,17.0229508 11.7901639,16.957377 C11.7377049,16.8786885 11.7114754,16.747541 11.7114754,16.5901639 C11.7114754,16.3409836 11.7901639,16.1704918 11.9606557,16.052459 C11.9606557,16.052459 12.1967213,15.842623 12.7606557,15.8557377 C13.1540984,15.8557377 13.5081967,15.9213115 13.5081967,15.9213115 L13.5081967,17.1803279 L13.5081967,17.1803279 C13.5081967,17.1803279 13.1540984,17.2590164 12.7606557,17.2852459 C12.1967213,17.3245902 11.947541,17.1278689 11.947541,17.1278689 M13.0622951,15.1737705 C12.9442623,15.1606557 12.8,15.1606557 12.6295082,15.1606557 C12.3934426,15.1606557 12.157377,15.1868852 11.947541,15.252459 C11.7245902,15.304918 11.5409836,15.3967213 11.3704918,15.5147541 C11.2,15.6327869 11.0688525,15.7901639 10.9639344,15.9737705 C10.8721311,16.157377 10.8196721,16.3672131 10.8196721,16.6163934 C10.8196721,16.8655738 10.8590164,17.0754098 10.9508197,17.2459016 C11.0295082,17.4163934 11.1606557,17.5606557 11.3180328,17.6786885 C11.4754098,17.7967213 11.6590164,17.8754098 11.8819672,17.9278689 C12.104918,17.9803279 12.3409836,18.0065574 12.6163934,18.0065574 C12.904918,18.0065574 13.1803279,17.9803279 13.4557377,17.9409836 C13.7311475,17.8885246 14.0590164,17.8229508 14.1508197,17.8098361 C14.242623,17.7836066 14.347541,17.757377 14.347541,17.757377 C14.4131148,17.7442623 14.4131148,17.6655738 14.4131148,17.6655738 L14.4131148,15.1344262 C14.4131148,14.5836066 14.2688525,14.1639344 13.9672131,13.9147541 C13.6786885,13.6655738 13.2459016,13.5344262 12.695082,13.5344262 C12.4852459,13.5344262 12.157377,13.5606557 11.947541,13.6 C11.947541,13.6 11.3442623,13.7180328 11.095082,13.9147541 C11.095082,13.9147541 11.042623,13.9540984 11.0688525,14.0196721 L11.2655738,14.5442623 C11.2918033,14.6098361 11.357377,14.5836066 11.357377,14.5836066 C11.357377,14.5836066 11.3836066,14.5704918 11.3967213,14.557377 C11.9344262,14.2688525 12.6032787,14.2819672 12.6032787,14.2819672 C12.904918,14.2819672 13.1278689,14.347541 13.2852459,14.4655738 C13.442623,14.5836066 13.5081967,14.7540984 13.5081967,15.1213115 L13.5081967,15.2393443 C13.2721311,15.2 13.0622951,15.1737705 13.0622951,15.1737705" id="XMLID_18_" fill="#FFFFFF"></path>
                        <path d="M35.4360656,13.7442623 C35.4622951,13.6786885 35.4098361,13.652459 35.3967213,13.6393443 C35.3442623,13.6262295 35.1081967,13.5737705 34.9377049,13.5606557 C34.5836066,13.5344262 34.4,13.6 34.2163934,13.6786885 C34.0459016,13.757377 33.8491803,13.8754098 33.7442623,14.0196721 L33.7442623,13.6786885 C33.7442623,13.6262295 33.704918,13.6 33.6655738,13.6 L32.957377,13.6 C32.904918,13.6 32.8786885,13.6393443 32.8786885,13.6786885 L32.8786885,17.8229508 C32.8786885,17.8754098 32.9180328,17.9016393 32.957377,17.9016393 L33.6918033,17.9016393 C33.7442623,17.9016393 33.7704918,17.8622951 33.7704918,17.8229508 L33.7704918,15.7508197 C33.7704918,15.4754098 33.7967213,15.2 33.8622951,15.0163934 C33.9278689,14.8459016 34.0065574,14.7016393 34.1114754,14.6098361 C34.2163934,14.5180328 34.3344262,14.4393443 34.452459,14.4 C34.5836066,14.3606557 34.7278689,14.347541 34.8196721,14.347541 C34.9639344,14.347541 35.1213115,14.3868852 35.1213115,14.3868852 C35.1737705,14.3868852 35.2,14.3606557 35.2262295,14.3081967 C35.2786885,14.2032787 35.4098361,13.8229508 35.4360656,13.7442623" id="XMLID_19_" fill="#FFFFFF"></path>
                        <path d="M28.5901639,11.8295082 C28.4983607,11.8032787 28.4196721,11.7901639 28.3147541,11.7639344 C28.2098361,11.7508197 28.0786885,11.7377049 27.9344262,11.7377049 C27.4360656,11.7377049 27.042623,11.8819672 26.7540984,12.157377 C26.4786885,12.4327869 26.295082,12.8655738 26.1901639,13.4163934 L26.1508197,13.6 L25.5213115,13.6 C25.5213115,13.6 25.442623,13.6 25.4295082,13.6786885 L25.3245902,14.2557377 C25.3114754,14.3081967 25.3377049,14.347541 25.4163934,14.347541 L26.0327869,14.347541 L25.4163934,17.8229508 C25.3639344,18.0983607 25.3114754,18.3344262 25.2459016,18.504918 C25.1803279,18.6754098 25.1278689,18.8065574 25.0491803,18.8983607 C24.9836066,18.9901639 24.904918,19.0557377 24.8,19.095082 C24.7081967,19.1213115 24.5901639,19.147541 24.4721311,19.147541 C24.4065574,19.147541 24.3147541,19.1344262 24.2491803,19.1213115 C24.1836066,19.1081967 24.1442623,19.095082 24.104918,19.0688525 C24.104918,19.0688525 24.0393443,19.042623 24,19.1081967 C23.9737705,19.1737705 23.8163934,19.6196721 23.7901639,19.6721311 C23.7770492,19.7245902 23.8032787,19.7639344 23.8295082,19.7770492 C23.9081967,19.8032787 23.9737705,19.8295082 24.0786885,19.8557377 C24.2360656,19.895082 24.3672131,19.895082 24.4852459,19.895082 C24.7344262,19.895082 24.9704918,19.8557377 25.1672131,19.7901639 C25.3639344,19.7245902 25.5344262,19.5934426 25.6786885,19.4360656 C25.8360656,19.252459 25.9409836,19.0688525 26.0327869,18.8196721 C26.1245902,18.5704918 26.2163934,18.2557377 26.2819672,17.8885246 L26.9114754,14.347541 L27.8295082,14.347541 C27.8295082,14.347541 27.9081967,14.347541 27.9213115,14.2688525 L28.0262295,13.6918033 C28.0393443,13.6393443 28.0131148,13.6 27.9344262,13.6 L27.042623,13.6 C27.042623,13.5737705 27.0819672,13.2721311 27.1868852,12.9704918 C27.2262295,12.8393443 27.3180328,12.747541 27.3836066,12.6688525 C27.4491803,12.6032787 27.5278689,12.5508197 27.6196721,12.5245902 C27.7114754,12.4983607 27.8032787,12.4852459 27.9213115,12.4852459 C28,12.4852459 28.0918033,12.4983607 28.1442623,12.5114754 C28.2360656,12.5245902 28.2622951,12.5377049 28.2885246,12.5508197 C28.3803279,12.5770492 28.3934426,12.5508197 28.4065574,12.5114754 L28.6163934,11.9344262 C28.6688525,11.8557377 28.6163934,11.8295082 28.5901639,11.8295082" id="XMLID_20_" fill="#FFFFFF"></path>
                        <path d="M16.1967213,17.8229508 C16.1967213,17.8754098 16.157377,17.9016393 16.1180328,17.9016393 L15.3836066,17.9016393 C15.3311475,17.9016393 15.304918,17.8622951 15.304918,17.8229508 L15.304918,11.895082 C15.304918,11.842623 15.3311475,11.8163934 15.3836066,11.8163934 L16.1180328,11.8163934 C16.1704918,11.8163934 16.1967213,11.8557377 16.1967213,11.895082 L16.1967213,17.8229508 Z" id="XMLID_21_" fill="#FFFFFF"></path>
                    </g>
                </g>
                <g id="Logo/Twilio" transform="translate(111.000000, 0.000000)" fill-rule="nonzero">
                    <g id="006-sheets">
                        <path d="M34.819875,13.1470313 L34.819875,44.90775 C34.819875,46.6157813 33.4344375,47.9999063 31.7277188,47.9999063 L3.147375,47.9999063 C1.43934375,47.9999063 0.05521875,46.6157813 0.05521875,44.90775 L0.05521875,3.09215625 C0.05521875,1.384125 1.43925,0 3.147375,0 L21.6728438,0 L34.819875,13.1470313 Z" id="Path" fill="#28B446"></path>
                        <polygon id="Path" fill="#219B38" points="23.4665625 12.861375 34.819875 17.5386562 34.819875 13.1470313 28.3829062 11.2464375"></polygon>
                        <path d="M34.819875,13.1470312 L24.765,13.1470312 C23.056875,13.1470312 21.6728437,11.7629063 21.6728437,10.054875 L21.6728437,0 L34.819875,13.1470312 Z" id="Path" fill="#6ACE7C"></path>
                        <path d="M25.0420312,23.9011875 L9.832125,23.9011875 C9.2865,23.9011875 8.844375,24.3434063 8.844375,24.8889375 L8.844375,38.1235312 C8.844375,38.6689687 9.2865,39.1112812 9.832125,39.1112812 L25.0420312,39.1112812 C25.5876562,39.1112812 26.0297812,38.6690625 26.0297812,38.1235312 L26.0297812,24.8889375 C26.0297812,24.3435 25.5876562,23.9011875 25.0420312,23.9011875 Z M10.819875,30.2514375 L16.449375,30.2514375 L16.449375,32.7614063 L10.819875,32.7614063 L10.819875,30.2514375 Z M18.4247812,30.2514375 L24.0542812,30.2514375 L24.0542812,32.7614063 L18.4247812,32.7614063 L18.4247812,30.2514375 Z M24.054375,28.2760312 L18.424875,28.2760312 L18.424875,25.8766875 L24.054375,25.8766875 L24.054375,28.2760312 L24.054375,28.2760312 Z M16.449375,25.8766875 L16.449375,28.2759375 L10.819875,28.2759375 L10.819875,25.8766875 L16.449375,25.8766875 Z M10.819875,34.7368125 L16.449375,34.7368125 L16.449375,37.1360625 L10.819875,37.1360625 L10.819875,34.7368125 Z M18.4247812,37.1359687 L18.4247812,34.7367188 L24.0542812,34.7367188 L24.0542812,37.1359687 L18.4247812,37.1359687 Z" id="Shape" fill="#FFFFFF"></path>
                    </g>
                </g>
                <text id="→" font-family="GilmerRegular, Gilmer Regular" font-size="24" font-weight="normal" line-spacing="16" fill="#1D2028">
                    <tspan x="66" y="32">→</tspan>
                </text>
            </g>
        </g>
    </g>
</svg>