<?xml version="1.0" encoding="UTF-8"?>
<svg width="38px" height="40px" viewBox="0 0 38 40" version="1.1" xmlns="http://www.w3.org/2000/svg" xmlns:xlink="http://www.w3.org/1999/xlink">
    <title>6E6A7F8F-6272-4534-B519-8583C9C84579</title>
    <g id="Apps" stroke="none" stroke-width="1" fill="none" fill-rule="evenodd">
        <g id="apps-services" transform="translate(-462.000000, -264.000000)" fill="#5567D5" fill-rule="nonzero">
            <g id="Logo/GitHub-Copy" transform="translate(462.000000, 264.000000)">
                <path d="M34.1421356,5.85786438 C34.630291,6.34601974 34.630291,7.13747597 34.1421356,7.62563133 C33.6539803,8.11378669 32.862524,8.11378669 32.3743687,7.62563133 C25.5401936,0.791456225 14.4598064,0.791456225 7.62563133,7.62563133 C0.791456225,14.4598064 0.791456225,25.5401936 7.62563133,32.3743687 C14.4598064,39.2085438 25.5401936,39.2085438 32.3743687,32.3743687 C32.862524,31.8862133 33.6539803,31.8862133 34.1421356,32.3743687 C34.630291,32.862524 34.630291,33.6539803 34.1421356,34.1421356 C26.3316498,41.9526215 13.6683502,41.9526215 5.85786438,34.1421356 C-1.95262146,26.3316498 -1.95262146,13.6683502 5.85786438,5.85786438 C13.6683502,-1.95262146 26.3316498,-1.95262146 34.1421356,5.85786438 Z M29.892767,20.9405664 C30.3504126,21.398212 30.3790155,22.1224307 29.9785755,22.613398 L29.892767,22.7083333 L27.8594499,24.7417832 L36.5088835,24.7411165 C37.1992394,24.7411165 37.7588835,25.3007606 37.7588835,25.9911165 C37.7588835,26.6408633 37.2631434,27.1748238 36.6292668,27.2353944 L36.5088835,27.2411165 L27.8594499,27.2417832 L29.892767,29.2738997 C30.3504126,29.7315454 30.3790155,30.455764 29.9785755,30.9467313 L29.892767,31.0416667 C29.4351213,31.4993123 28.7109026,31.5279152 28.2199353,31.1274752 L28.125,31.0416667 L23.0744499,25.9911165 L23.9524029,25.1132033 C23.9577886,25.107745 23.9632243,25.102336 23.968709,25.096977 L28.125,20.9405664 C28.6131554,20.452411 29.4046116,20.452411 29.892767,20.9405664 Z M21.5594336,9.27389971 C22.0170793,9.73154537 22.0456821,10.455764 21.6452422,10.9467313 L21.5594336,11.0416667 L19.5261165,13.0751165 L29.8422168,13.0744499 C30.5325727,13.0744499 31.0922168,13.6340939 31.0922168,14.3244499 C31.0922168,14.9741966 30.5964767,15.5081571 29.9626002,15.5687277 L29.8422168,15.5744499 L19.5261165,15.5751165 L21.5594336,17.607233 C22.0170793,18.0648787 22.0456821,18.7890974 21.6452422,19.2800647 L21.5594336,19.375 C21.101788,19.8326457 20.3775693,19.8612485 19.886602,19.4608086 L19.7916667,19.375 L15.6345821,15.2178132 L14.7411165,14.3244499 L15.6353757,13.4303103 L15.6353757,13.4303103 L19.7916667,9.27389971 C20.279822,8.78574435 21.0712783,8.78574435 21.5594336,9.27389971 Z" id="Combined-Shape"></path>
            </g>
        </g>
    </g>
</svg>