<?xml version="1.0" encoding="UTF-8"?>
<svg width="152px" height="48px" viewBox="0 0 152 48" version="1.1" xmlns="http://www.w3.org/2000/svg" xmlns:xlink="http://www.w3.org/1999/xlink">
    <title>1783675D-14D5-466D-841F-A9A97955C852</title>
    <g id="Home" stroke="none" stroke-width="1" fill="none" fill-rule="evenodd">
        <g id="new-existing-integrations" transform="translate(-801.000000, -232.000000)">
            <g id="Group-Copy-2" transform="translate(801.000000, 232.000000)">
                <g id="Logo/GCalendar" fill-rule="nonzero">
                    <g id="Google_Calendar_icon_(2020)">
                        <polygon id="Path" fill="#FFFFFF" points="36.6315789 11.3684211 11.3684211 11.3684211 11.3684211 36.6315789 36.6315789 36.6315789"></polygon>
                        <polygon id="Path" fill="#EA4335" points="36.6315789 48 48 36.6315789 36.6315789 36.6315789"></polygon>
                        <polygon id="Path" fill="#FBBC04" points="48 11.3684211 36.6315789 11.3684211 36.6315789 36.6315789 48 36.6315789"></polygon>
                        <polygon id="Path" fill="#34A853" points="36.6315789 36.6315789 11.3684211 36.6315789 11.3684211 48 36.6315789 48"></polygon>
                        <path d="M0,36.6315789 L0,44.2105263 C0,46.3042105 1.69578947,48 3.78947368,48 L11.3684211,48 L11.3684211,36.6315789 L0,36.6315789 Z" id="Path" fill="#188038"></path>
                        <path d="M48,11.3684211 L48,3.78947368 C48,1.69578947 46.3042105,0 44.2105263,0 L36.6315789,0 L36.6315789,11.3684211 L48,11.3684211 Z" id="Path" fill="#1967D2"></path>
                        <path d="M36.6315789,0 L3.78947368,0 C1.69578947,0 0,1.69578947 0,3.78947368 L0,36.6315789 L11.3684211,36.6315789 L11.3684211,11.3684211 L36.6315789,11.3684211 L36.6315789,0 Z" id="Path" fill="#4285F4"></path>
                        <path d="M16.5505263,30.9663158 C15.6063158,30.3284211 14.9526316,29.3968421 14.5957895,28.1652632 L16.7873684,27.2621053 C16.9863158,28.02 17.3336842,28.6073684 17.8294737,29.0242105 C18.3221053,29.4410526 18.9221053,29.6463158 19.6231579,29.6463158 C20.34,29.6463158 20.9557895,29.4284211 21.4705263,28.9926316 C21.9852632,28.5568421 22.2442105,28.0010526 22.2442105,27.3284211 C22.2442105,26.64 21.9726316,26.0778947 21.4294737,25.6421053 C20.8863158,25.2063158 20.2042105,24.9884211 19.3894737,24.9884211 L18.1231579,24.9884211 L18.1231579,22.8189474 L19.26,22.8189474 C19.9610526,22.8189474 20.5515789,22.6294737 21.0315789,22.2505263 C21.5115789,21.8715789 21.7515789,21.3536842 21.7515789,20.6936842 C21.7515789,20.1063158 21.5368421,19.6389474 21.1073684,19.2884211 C20.6778947,18.9378947 20.1347368,18.7610526 19.4747368,18.7610526 C18.8305263,18.7610526 18.3189474,18.9315789 17.94,19.2757895 C17.5613029,19.6209159 17.2765914,20.0566766 17.1126316,20.5421053 L14.9431579,19.6389474 C15.2305263,18.8242105 15.7578947,18.1042105 16.5315789,17.4821053 C17.3052632,16.86 18.2936842,16.5473684 19.4936842,16.5473684 C20.3810526,16.5473684 21.18,16.7178947 21.8873684,17.0621053 C22.5947368,17.4063158 23.1505263,17.8831579 23.5515789,18.4894737 C23.9526316,19.0989474 24.1515789,19.7810526 24.1515789,20.5389474 C24.1515789,21.3126316 23.9652632,21.9663158 23.5926316,22.5031579 C23.22,23.04 22.7621053,23.4505263 22.2189474,23.7378947 L22.2189474,23.8673684 C22.9202939,24.156523 23.5295151,24.6314534 23.9810526,25.2410526 C24.4389474,25.8568421 24.6694737,26.5926316 24.6694737,27.4515789 C24.6694737,28.3105263 24.4515789,29.0778947 24.0157895,29.7505263 C23.58,30.4231579 22.9768421,30.9536842 22.2126316,31.3389474 C21.4452632,31.7242105 20.5831579,31.9200232 19.6263158,31.9200232 C18.5178947,31.9231579 17.4947368,31.6042105 16.5505263,30.9663158 L16.5505263,30.9663158 Z M30.0126316,20.0905263 L27.6063158,21.8305263 L26.4031579,20.0052632 L30.72,16.8915789 L32.3747368,16.8915789 L32.3747368,31.5789474 L30.0126316,31.5789474 L30.0126316,20.0905263 Z" id="Shape" fill="#4285F4"></path>
                    </g>
                </g>
                <g id="Logo/Twilio" transform="translate(104.000000, 0.000000)" fill="#CF272D" fill-rule="nonzero">
                    <g id="Twilio">
                        <path d="M24,41.6745205 C14.2421918,41.6745205 6.32547945,33.7578082 6.32547945,24 C6.32547945,14.2421918 14.2421918,6.32547945 24,6.32547945 C33.7578082,6.32547945 41.6745205,14.2421918 41.6745205,24 C41.6745205,33.7578082 33.7578082,41.6745205 24,41.6745205 Z M24,0 C10.7441096,0 0,10.7441096 0,24 C0,37.2558904 10.7441096,48 24,48 C37.2558904,48 48,37.2558904 48,24 C48,10.7441096 37.2558904,0 24,0 Z" id="XMLID_5_"></path>
                        <path d="M24.9836066,18.0327869 C24.9836066,15.2786885 27.2131148,13.0622951 29.9540984,13.0622951 C32.7081967,13.0622951 34.9245902,15.2918033 34.9245902,18.0327869 C34.9245902,20.7868852 32.695082,23.0033363 29.9540984,23.0033363 C27.2131148,23.0163934 24.9836066,20.7868852 24.9836066,18.0327869" id="XMLID_6_"></path>
                        <path d="M24.9836066,29.9672131 C24.9836066,27.2131148 27.2131148,24.9967213 29.9540984,24.9967213 C32.7081967,24.9967213 34.9245902,27.2262295 34.9245902,29.9672131 C34.9245902,32.7213115 32.695082,34.9377049 29.9540984,34.9377049 C27.2131148,34.9377049 24.9836066,32.7081967 24.9836066,29.9672131" id="XMLID_7_"></path>
                        <path d="M13.0622951,29.9672131 C13.0622951,27.2131148 15.2918033,24.9967213 18.0327869,24.9967213 C20.7868852,24.9967213 23.0032787,27.2262295 23.0032787,29.9672131 C23.0032787,32.7213115 20.7737705,34.9377049 18.0327869,34.9377049 C15.2918033,34.9377049 13.0622951,32.7081967 13.0622951,29.9672131" id="XMLID_8_"></path>
                        <path d="M13.0622951,18.0327869 C13.0622951,15.2786885 15.2918033,13.0622951 18.0327869,13.0622951 C20.7868852,13.0622951 23.0032787,15.2918033 23.0032787,18.0327869 C23.0032787,20.7737705 20.7737705,23.0033363 18.0327869,23.0033363 C15.2918033,23.0163934 13.0622951,20.7868852 13.0622951,18.0327869" id="XMLID_9_"></path>
                    </g>
                </g>
                <text id="→" font-family="GilmerRegular, Gilmer Regular" font-size="24" font-weight="normal" line-spacing="16" fill="#1D2028">
                    <tspan x="66" y="32">→</tspan>
                </text>
            </g>
        </g>
    </g>
</svg>