<?xml version="1.0" encoding="UTF-8"?>
<svg width="152px" height="48px" viewBox="0 0 152 48" version="1.1" xmlns="http://www.w3.org/2000/svg" xmlns:xlink="http://www.w3.org/1999/xlink">
    <title>5ACD3D29-1EC0-4475-A171-9366A130463E</title>
    <g id="Home" stroke="none" stroke-width="1" fill="none" fill-rule="evenodd">
        <g id="new-existing-integrations" transform="translate(-488.000000, -480.000000)">
            <g id="Group-Copy-7" transform="translate(488.000000, 480.000000)">
                <g id="Logo/GCalendar" fill="#161514">
                    <path d="M23.99779,0 C10.7465545,0 0,11.0170092 0,24.6081283 C0,35.4801173 6.87608582,44.7025005 16.4130268,47.956393 C17.6138003,48.1829872 18.0513828,47.4231413 18.0513828,46.7705501 C18.0513828,46.1874477 18.030756,44.6390541 18.0189693,42.5861108 C11.3432579,44.0725687 9.93474324,39.2868995 9.93474324,39.2868995 C8.84299702,36.4438978 7.26946806,35.6870733 7.26946806,35.6870733 C5.09039565,34.1613391 7.43448234,34.1915517 7.43448234,34.1915517 C9.84339605,34.3652739 11.1104699,36.7278959 11.1104699,36.7278959 C13.2512355,40.4878487 16.7283219,39.4017073 18.095583,38.7717754 C18.3136376,37.1825949 18.9339145,36.0979641 19.6190184,35.4831385 C14.2899414,34.8622704 8.6868228,32.7504127 8.6868228,23.3210734 C8.6868228,20.635177 9.62239479,18.4372134 11.1576169,16.7181189 C10.9100955,16.0957402 10.0864974,13.5926298 11.3933515,10.205802 C11.3933515,10.205802 13.4074097,9.54414701 17.9924491,12.7285506 C19.90632,12.1817033 21.9601584,11.9097903 24.0007367,11.8992159 C26.0398416,11.9097903 28.0922066,12.1817033 30.0090242,12.7285506 C34.591117,9.54414701 36.6022284,10.205802 36.6022284,10.205802 C37.9120292,13.5926298 37.0884312,16.0957402 36.8423831,16.7181189 C38.3805519,18.4372134 39.3087572,20.635177 39.3087572,23.3210734 C39.3087572,32.7745827 33.6967986,34.8547173 28.3515148,35.4635003 C29.2119463,36.2233462 29.9795574,37.7249103 29.9795574,40.0210647 C29.9795574,43.3097016 29.9500905,45.9638748 29.9500905,46.7705501 C29.9500905,47.4291839 30.383253,48.1950722 31.6002333,47.9548824 C41.1298075,44.6934368 48,35.477096 48,24.6081283 C48,11.0170092 37.2534455,0 23.99779,0" id="Fill-4"></path>
                </g>
                <g id="Logo/Twilio" transform="translate(111.000000, 0.000000)" fill-rule="nonzero">
                    <g id="006-sheets">
                        <path d="M34.819875,13.1470313 L34.819875,44.90775 C34.819875,46.6157813 33.4344375,47.9999063 31.7277188,47.9999063 L3.147375,47.9999063 C1.43934375,47.9999063 0.05521875,46.6157813 0.05521875,44.90775 L0.05521875,3.09215625 C0.05521875,1.384125 1.43925,0 3.147375,0 L21.6728438,0 L34.819875,13.1470313 Z" id="Path" fill="#28B446"></path>
                        <polygon id="Path" fill="#219B38" points="23.4665625 12.861375 34.819875 17.5386562 34.819875 13.1470313 28.3829062 11.2464375"></polygon>
                        <path d="M34.819875,13.1470312 L24.765,13.1470312 C23.056875,13.1470312 21.6728437,11.7629063 21.6728437,10.054875 L21.6728437,0 L34.819875,13.1470312 Z" id="Path" fill="#6ACE7C"></path>
                        <path d="M25.0420312,23.9011875 L9.832125,23.9011875 C9.2865,23.9011875 8.844375,24.3434063 8.844375,24.8889375 L8.844375,38.1235312 C8.844375,38.6689687 9.2865,39.1112812 9.832125,39.1112812 L25.0420312,39.1112812 C25.5876562,39.1112812 26.0297812,38.6690625 26.0297812,38.1235312 L26.0297812,24.8889375 C26.0297812,24.3435 25.5876562,23.9011875 25.0420312,23.9011875 Z M10.819875,30.2514375 L16.449375,30.2514375 L16.449375,32.7614063 L10.819875,32.7614063 L10.819875,30.2514375 Z M18.4247812,30.2514375 L24.0542812,30.2514375 L24.0542812,32.7614063 L18.4247812,32.7614063 L18.4247812,30.2514375 Z M24.054375,28.2760312 L18.424875,28.2760312 L18.424875,25.8766875 L24.054375,25.8766875 L24.054375,28.2760312 L24.054375,28.2760312 Z M16.449375,25.8766875 L16.449375,28.2759375 L10.819875,28.2759375 L10.819875,25.8766875 L16.449375,25.8766875 Z M10.819875,34.7368125 L16.449375,34.7368125 L16.449375,37.1360625 L10.819875,37.1360625 L10.819875,34.7368125 Z M18.4247812,37.1359687 L18.4247812,34.7367188 L24.0542812,34.7367188 L24.0542812,37.1359687 L18.4247812,37.1359687 Z" id="Shape" fill="#FFFFFF"></path>
                    </g>
                </g>
                <text id="→" font-family="GilmerRegular, Gilmer Regular" font-size="24" font-weight="normal" line-spacing="16" fill="#1D2028">
                    <tspan x="66" y="32">→</tspan>
                </text>
            </g>
        </g>
    </g>
</svg>