<?xml version="1.0" encoding="UTF-8"?>
<svg width="48px" height="48px" viewBox="0 0 48 48" version="1.1" xmlns="http://www.w3.org/2000/svg" xmlns:xlink="http://www.w3.org/1999/xlink">
    <title>3DD1BF06-0BB9-45D5-8441-7555740DE0CC</title>
    <g id="Apps" stroke="none" stroke-width="1" fill="none" fill-rule="evenodd">
        <g id="apps-library" transform="translate(-192.000000, -264.000000)" fill="#5567D5" fill-rule="nonzero">
            <g id="Logo/GitHub" transform="translate(192.000000, 264.000000)">
                <path d="M24,0.5 C36.9786916,0.5 47.5,11.0213084 47.5,24 C47.5,36.9786916 36.9786916,47.5 24,47.5 C11.0213084,47.5 0.5,36.9786916 0.5,24 C0.5,11.0213084 11.0213084,0.5 24,0.5 Z M24,3.5 C12.6781626,3.5 3.5,12.6781626 3.5,24 C3.5,35.3218374 12.6781626,44.5 24,44.5 C35.3218374,44.5 44.5,35.3218374 44.5,24 C44.5,12.6781626 35.3218374,3.5 24,3.5 Z M39.3504044,28.771617 C40.1149642,29.0905839 40.4761886,29.9689557 40.1572218,30.7335155 C37.4596333,37.1996032 31.1270954,41.5 24,41.5 C16.8729046,41.5 10.5403667,37.1996032 7.84277824,30.7335155 C7.52381139,29.9689557 7.88503583,29.0905839 8.64959561,28.771617 C9.41415539,28.4526502 10.2925273,28.8138746 10.6114941,29.5784344 C12.8469068,34.9366923 18.0940461,38.5 24,38.5 C29.9059539,38.5 35.1530932,34.9366923 37.3885059,29.5784344 C37.7074727,28.8138746 38.5858446,28.4526502 39.3504044,28.771617 Z M33.8108374,26.4621003 C34.5754308,26.7809866 34.9367477,27.6593205 34.6178613,28.4239138 C32.8454907,32.6735241 28.6838328,35.5 24,35.5 C19.3161672,35.5 15.1545093,32.6735241 13.3821387,28.4239138 C13.0632523,27.6593205 13.4245692,26.7809866 14.1891626,26.4621003 C14.9537559,26.1432139 15.8320898,26.5045308 16.1509762,27.2691241 C17.4612431,30.4107492 20.5374226,32.5 24,32.5 C27.4625774,32.5 30.5387569,30.4107492 31.8490238,27.2691241 C32.1679102,26.5045308 33.0462441,26.1432139 33.8108374,26.4621003 Z M24,18.5 C27.0375661,18.5 29.5,20.9624339 29.5,24 C29.5,27.0375661 27.0375661,29.5 24,29.5 C20.9624339,29.5 18.5,27.0375661 18.5,24 C18.5,20.9624339 20.9624339,18.5 24,18.5 Z M24,21.5 C22.6192881,21.5 21.5,22.6192881 21.5,24 C21.5,25.3807119 22.6192881,26.5 24,26.5 C25.3807119,26.5 26.5,25.3807119 26.5,24 C26.5,22.6192881 25.3807119,21.5 24,21.5 Z" id="Combined-Shape"></path>
            </g>
        </g>
    </g>
</svg>